<svg width="49" height="48" viewBox="0 0 49 48" fill="none" xmlns="http://www.w3.org/2000/svg">
<path id="iconVIP" d="M33.6182 48C34.1487 48 34.6574 47.7893 35.0325 47.4142L47.9142 34.5324C48.2893 34.1573 48.5 33.6486 48.5 33.1182V14.8818C48.5 14.3514 48.2893 13.8427 47.9142 13.4676L35.0325 0.585788C34.6574 0.210714 34.1487 0 33.6182 0H15.3818C14.8513 0 14.3426 0.210715 13.9676 0.585789L1.08578 13.4676C0.710713 13.8427 0.5 14.3514 0.5 14.8818V33.1182C0.5 33.6486 0.710713 34.1573 1.08578 34.5324L13.9676 47.4142C14.3426 47.7893 14.8513 48 15.3818 48H33.6182Z" fill="black"/>
</svg>
