<svg width="40" height="40" viewBox="0 0 40 40" fill="none" xmlns="http://www.w3.org/2000/svg">
<g id="Icons">
<path id="Vector" d="M23.3346 16.6667V28.3333M16.668 16.6667V28.3333M10.0013 10V29.6667C10.0013 31.5335 10.0013 32.4663 10.3646 33.1793C10.6842 33.8065 11.1938 34.3175 11.821 34.637C12.5333 35 13.4663 35 15.3295 35H24.6731C26.5363 35 27.468 35 28.1803 34.637C28.8075 34.3175 29.3188 33.8065 29.6383 33.1793C30.0013 32.467 30.0013 31.535 30.0013 29.6718V10M10.0013 10H13.3346M10.0013 10H6.66797M13.3346 10H26.668M13.3346 10C13.3346 8.44686 13.3346 7.67068 13.5884 7.05811C13.9267 6.24135 14.5752 5.59205 15.3919 5.25373C16.0045 5 16.7815 5 18.3346 5H21.668C23.2211 5 23.9977 5 24.6102 5.25373C25.427 5.59205 26.0757 6.24135 26.4141 7.05811C26.6678 7.67067 26.668 8.44686 26.668 10M26.668 10H30.0013M30.0013 10H33.3346" stroke="#F78254" stroke-width="3" stroke-linecap="round" stroke-linejoin="round"/>
</g>
</svg>
