<svg width="16" height="16" viewBox="0 0 16 16" fill="none" xmlns="http://www.w3.org/2000/svg">
<path d="M7.01924 13C6.92521 12.9997 6.83225 12.9783 6.74613 12.9371C6.66001 12.896 6.58258 12.836 6.51864 12.7609L3.18588 8.89749C3.0613 8.75282 2.99456 8.56013 3.00035 8.36184C3.00613 8.16354 3.08397 7.97587 3.21674 7.84011C3.34951 7.70435 3.52633 7.63162 3.7083 7.63793C3.89028 7.64424 4.0625 7.72906 4.18708 7.87373L7.01238 11.1542L12.7796 4.27937C12.8381 4.19995 12.9109 4.13441 12.9935 4.08677C13.0761 4.03913 13.1668 4.0104 13.26 4.00234C13.3532 3.99428 13.4469 4.00707 13.5354 4.03991C13.6238 4.07275 13.7052 4.12496 13.7745 4.19332C13.8438 4.26168 13.8995 4.34476 13.9383 4.43745C13.977 4.53014 13.998 4.63048 13.9999 4.73232C14.0017 4.83416 13.9845 4.93533 13.9492 5.02964C13.9138 5.12394 13.8612 5.20938 13.7945 5.28071L7.5267 12.7534C7.46336 12.8299 7.3862 12.8913 7.30005 12.9337C7.2139 12.9762 7.12063 12.9987 7.0261 13H7.01924Z" fill="white"/>
</svg>
