<svg width="38" height="38" viewBox="0 0 38 38" fill="none" xmlns="http://www.w3.org/2000/svg">
<path d="M21.0833 0.25C21.6143 0.250589 22.1251 0.453915 22.5112 0.818434C22.8973 1.18295 23.1297 1.68115 23.1608 2.21124C23.1919 2.74133 23.0194 3.26329 22.6786 3.67048C22.3378 4.07768 21.8544 4.33937 21.3271 4.40208L21.0833 4.41667H4.41667V33.5833H33.5833V16.9167C33.5839 16.3857 33.7872 15.8749 34.1518 15.4888C34.5163 15.1027 35.0145 14.8703 35.5446 14.8392C36.0747 14.8081 36.5966 14.9806 37.0038 15.3214C37.411 15.6622 37.6727 16.1456 37.7354 16.6729L37.75 16.9167V33.5833C37.7503 34.6345 37.3533 35.647 36.6385 36.4178C35.9238 37.1886 34.9441 37.6607 33.8958 37.7396L33.5833 37.75H4.41667C3.36547 37.7503 2.35299 37.3533 1.58219 36.6385C0.811397 35.9238 0.339257 34.9441 0.260417 33.8958L0.25 33.5833V4.41667C0.249668 3.36547 0.64668 2.35299 1.36145 1.58219C2.07622 0.811397 3.05593 0.339257 4.10417 0.260417L4.41667 0.25H21.0833ZM34.0896 0.964583C34.4645 0.590942 34.9676 0.374013 35.4966 0.357858C36.0257 0.341703 36.5411 0.527532 36.9381 0.877602C37.3351 1.22767 37.584 1.71573 37.6342 2.24266C37.6844 2.76958 37.5321 3.29585 37.2083 3.71458L37.0354 3.9125L16.4104 24.5354C16.0355 24.9091 15.5324 25.126 15.0034 25.1421C14.4743 25.1583 13.9589 24.9725 13.5619 24.6224C13.1649 24.2723 12.916 23.7843 12.8658 23.2573C12.8156 22.7304 12.9679 22.2041 13.2917 21.7854L13.4646 21.5896L34.0896 0.964583Z" fill="#333333"/>
<path d="M21.0833 0.25C21.6143 0.250589 22.1251 0.453915 22.5112 0.818434C22.8973 1.18295 23.1297 1.68115 23.1608 2.21124C23.1919 2.74133 23.0194 3.26329 22.6786 3.67048C22.3378 4.07768 21.8544 4.33937 21.3271 4.40208L21.0833 4.41667H4.41667V33.5833H33.5833V16.9167C33.5839 16.3857 33.7872 15.8749 34.1518 15.4888C34.5163 15.1027 35.0145 14.8703 35.5446 14.8392C36.0747 14.8081 36.5966 14.9806 37.0038 15.3214C37.411 15.6622 37.6727 16.1456 37.7354 16.6729L37.75 16.9167V33.5833C37.7503 34.6345 37.3533 35.647 36.6385 36.4178C35.9238 37.1886 34.9441 37.6607 33.8958 37.7396L33.5833 37.75H4.41667C3.36547 37.7503 2.35299 37.3533 1.58219 36.6385C0.811397 35.9238 0.339257 34.9441 0.260417 33.8958L0.25 33.5833V4.41667C0.249668 3.36547 0.64668 2.35299 1.36145 1.58219C2.07622 0.811397 3.05593 0.339257 4.10417 0.260417L4.41667 0.25H21.0833ZM34.0896 0.964583C34.4645 0.590942 34.9676 0.374013 35.4966 0.357858C36.0257 0.341703 36.5411 0.527532 36.9381 0.877602C37.3351 1.22767 37.584 1.71573 37.6342 2.24266C37.6844 2.76958 37.5321 3.29585 37.2083 3.71458L37.0354 3.9125L16.4104 24.5354C16.0355 24.9091 15.5324 25.126 15.0034 25.1421C14.4743 25.1583 13.9589 24.9725 13.5619 24.6224C13.1649 24.2723 12.916 23.7843 12.8658 23.2573C12.8156 22.7304 12.9679 22.2041 13.2917 21.7854L13.4646 21.5896L34.0896 0.964583Z" fill="black" fill-opacity="0.2"/>
<path d="M21.0833 0.25C21.6143 0.250589 22.1251 0.453915 22.5112 0.818434C22.8973 1.18295 23.1297 1.68115 23.1608 2.21124C23.1919 2.74133 23.0194 3.26329 22.6786 3.67048C22.3378 4.07768 21.8544 4.33937 21.3271 4.40208L21.0833 4.41667H4.41667V33.5833H33.5833V16.9167C33.5839 16.3857 33.7872 15.8749 34.1518 15.4888C34.5163 15.1027 35.0145 14.8703 35.5446 14.8392C36.0747 14.8081 36.5966 14.9806 37.0038 15.3214C37.411 15.6622 37.6727 16.1456 37.7354 16.6729L37.75 16.9167V33.5833C37.7503 34.6345 37.3533 35.647 36.6385 36.4178C35.9238 37.1886 34.9441 37.6607 33.8958 37.7396L33.5833 37.75H4.41667C3.36547 37.7503 2.35299 37.3533 1.58219 36.6385C0.811397 35.9238 0.339257 34.9441 0.260417 33.8958L0.25 33.5833V4.41667C0.249668 3.36547 0.64668 2.35299 1.36145 1.58219C2.07622 0.811397 3.05593 0.339257 4.10417 0.260417L4.41667 0.25H21.0833ZM34.0896 0.964583C34.4645 0.590942 34.9676 0.374013 35.4966 0.357858C36.0257 0.341703 36.5411 0.527532 36.9381 0.877602C37.3351 1.22767 37.584 1.71573 37.6342 2.24266C37.6844 2.76958 37.5321 3.29585 37.2083 3.71458L37.0354 3.9125L16.4104 24.5354C16.0355 24.9091 15.5324 25.126 15.0034 25.1421C14.4743 25.1583 13.9589 24.9725 13.5619 24.6224C13.1649 24.2723 12.916 23.7843 12.8658 23.2573C12.8156 22.7304 12.9679 22.2041 13.2917 21.7854L13.4646 21.5896L34.0896 0.964583Z" fill="black" fill-opacity="0.2"/>
<path d="M21.0833 0.25C21.6143 0.250589 22.1251 0.453915 22.5112 0.818434C22.8973 1.18295 23.1297 1.68115 23.1608 2.21124C23.1919 2.74133 23.0194 3.26329 22.6786 3.67048C22.3378 4.07768 21.8544 4.33937 21.3271 4.40208L21.0833 4.41667H4.41667V33.5833H33.5833V16.9167C33.5839 16.3857 33.7872 15.8749 34.1518 15.4888C34.5163 15.1027 35.0145 14.8703 35.5446 14.8392C36.0747 14.8081 36.5966 14.9806 37.0038 15.3214C37.411 15.6622 37.6727 16.1456 37.7354 16.6729L37.75 16.9167V33.5833C37.7503 34.6345 37.3533 35.647 36.6385 36.4178C35.9238 37.1886 34.9441 37.6607 33.8958 37.7396L33.5833 37.75H4.41667C3.36547 37.7503 2.35299 37.3533 1.58219 36.6385C0.811397 35.9238 0.339257 34.9441 0.260417 33.8958L0.25 33.5833V4.41667C0.249668 3.36547 0.64668 2.35299 1.36145 1.58219C2.07622 0.811397 3.05593 0.339257 4.10417 0.260417L4.41667 0.25H21.0833ZM34.0896 0.964583C34.4645 0.590942 34.9676 0.374013 35.4966 0.357858C36.0257 0.341703 36.5411 0.527532 36.9381 0.877602C37.3351 1.22767 37.584 1.71573 37.6342 2.24266C37.6844 2.76958 37.5321 3.29585 37.2083 3.71458L37.0354 3.9125L16.4104 24.5354C16.0355 24.9091 15.5324 25.126 15.0034 25.1421C14.4743 25.1583 13.9589 24.9725 13.5619 24.6224C13.1649 24.2723 12.916 23.7843 12.8658 23.2573C12.8156 22.7304 12.9679 22.2041 13.2917 21.7854L13.4646 21.5896L34.0896 0.964583Z" fill="black" fill-opacity="0.2"/>
</svg>
