<svg width="634" height="517" viewBox="0 0 634 517" fill="none" xmlns="http://www.w3.org/2000/svg">
<path d="M464.891 436.689C464.891 436.689 473.76 380.775 512.942 380.439C537.926 379.745 532.8 443.899 464.891 436.689Z" fill="#99AD25" stroke="#171949" stroke-miterlimit="10"/>
<path d="M475.676 494.026H542.626C545.197 485.437 545.349 476.305 543.064 467.635C540.779 458.966 536.147 451.094 529.677 444.888C523.207 438.681 515.15 434.38 506.393 432.458C497.636 430.535 488.518 431.066 480.043 433.992C481.719 441.494 482.562 449.159 482.556 456.846C482.608 469.561 480.275 482.172 475.676 494.026Z" fill="#C6E07C" stroke="#171949" stroke-miterlimit="10"/>
<path d="M513.006 395.967C513.006 395.967 481.335 405.714 464.891 441.04" stroke="#171949" stroke-miterlimit="10"/>
<path d="M352.804 456.846C352.804 439.448 357.007 423.298 364.187 409.973C363.646 409.973 363.098 409.973 362.551 409.973C352.481 409.98 342.56 412.41 333.627 417.059C324.693 421.707 317.01 428.436 311.224 436.678C305.439 444.921 301.721 454.434 300.386 464.416C299.051 474.397 300.137 484.553 303.553 494.027H359.702C355.095 482.175 352.755 469.562 352.804 456.846Z" fill="#99AD25" stroke="#171949" stroke-miterlimit="10"/>
<path d="M480.043 433.965C472.285 399.363 447.289 374.043 417.69 374.043C395.489 374.043 375.901 388.281 364.206 409.999C357.026 423.33 352.806 439.474 352.806 456.849C352.753 469.556 355.087 482.16 359.686 494.006H475.634C480.244 482.162 482.592 469.558 482.556 456.849C482.564 449.152 481.721 441.477 480.043 433.965Z" fill="#A6C94F" stroke="#171949" stroke-miterlimit="10"/>
<path d="M413.73 374.34V494.026" stroke="#171949" stroke-miterlimit="10"/>
<path d="M462.541 397.035L413.73 494.026L482.558 456.869" stroke="#171949" stroke-miterlimit="10"/>
<path d="M368.657 402.662L414.342 494.026L352.824 464.18" stroke="#171949" stroke-miterlimit="10"/>
<path d="M495.953 431.291V494.027" stroke="#171949" stroke-miterlimit="10"/>
<path d="M526.712 442.225L495.953 494.025L543.939 471.5" stroke="#171949" stroke-miterlimit="10"/>
<path d="M481.945 467.836L497.042 494.027L478.902 485.499" stroke="#171949" stroke-miterlimit="10"/>
<path d="M316.893 429.465L359.829 494.025L299.836 467.834" stroke="#171949" stroke-miterlimit="10"/>
<path d="M343.77 412.846L354.317 474.581" stroke="#171949" stroke-miterlimit="10"/>
<path d="M73.2328 253.79C73.2328 253.79 95.4514 207.476 74.9986 199.053C64.9928 194.933 54.3986 209.648 73.2328 253.79Z" fill="#99AD25" stroke="#171949" stroke-miterlimit="10"/>
<path d="M73.2318 253.792C73.2318 253.792 63.5439 214.51 46.1575 224.363C28.5004 234.369 62.6375 256.735 73.2318 253.792Z" fill="#A6C94F" stroke="#171949" stroke-miterlimit="10"/>
<path d="M72.9648 253.792C72.9648 253.792 82.6468 214.51 100.039 224.363C117.696 234.369 83.5591 256.735 72.9648 253.792Z" fill="#A6C94F" stroke="#171949" stroke-miterlimit="10"/>
<path d="M73.2316 205.527V253.79C73.2316 253.79 57.3402 243.784 50.2773 231.424" stroke="#171949" stroke-miterlimit="10"/>
<path d="M95.6001 232.012C95.6001 232.012 85.0058 246.726 73.2344 253.789" stroke="#171949" stroke-miterlimit="10"/>
<path d="M119.141 398.873H27.3235V298.227C27.3235 292.199 28.511 286.229 30.8181 280.659C33.1252 275.089 36.5068 270.028 40.7698 265.765C45.0328 261.502 50.0938 258.121 55.6636 255.813C61.2335 253.506 67.2033 252.319 73.2321 252.319C85.4078 252.319 97.0848 257.156 105.694 265.765C114.304 274.375 119.141 286.052 119.141 298.227V398.873Z" fill="#C6E07C" stroke="#171949" stroke-miterlimit="10"/>
<path d="M105.02 396.523H41.4538V284.106C41.4538 275.677 44.8024 267.593 50.7628 261.632C56.7233 255.672 64.8074 252.323 73.2367 252.323C81.666 252.323 89.7501 255.672 95.7106 261.632C101.671 267.593 105.02 275.677 105.02 284.106V396.523Z" stroke="#171949" stroke-miterlimit="10"/>
<path d="M92.0703 396.523H54.4018V271.058C54.4018 266.063 56.3861 261.272 59.9182 257.74C63.4503 254.208 68.2409 252.223 73.236 252.223C78.2312 252.223 83.0218 254.208 86.5539 257.74C90.086 261.272 92.0703 266.063 92.0703 271.058V396.523Z" stroke="#171949" stroke-miterlimit="10"/>
<path d="M49.6914 354.143H19.0857V317.651H49.6914V354.143Z" fill="#C6E07C"/>
<path d="M5.54809 340.311C5.54809 347.95 11.7406 354.143 19.3795 354.143C27.0184 354.143 33.2109 347.95 33.2109 340.311V309.117C33.2109 301.478 27.0184 295.285 19.3795 295.285C11.7406 295.285 5.54809 301.478 5.54809 309.117V340.311Z" fill="#C6E07C"/>
<path d="M49.3977 343.98H22.8119C19.9507 343.98 17.2066 342.843 15.1833 340.82C13.1601 338.796 12.0234 336.052 12.0234 333.191V302.397C12.0234 300.511 12.7725 298.703 14.1059 297.37C15.4393 296.036 17.2477 295.287 19.1334 295.287C20.0668 295.287 20.9911 295.471 21.8533 295.828C22.7156 296.186 23.499 296.71 24.1588 297.37C24.8185 298.03 25.3417 298.814 25.6984 299.677C26.055 300.539 26.2382 301.464 26.2374 302.397V323.586C26.2327 325.753 27.0888 327.833 28.6173 329.369C30.1459 330.906 32.222 331.772 34.3891 331.779H50.2806" stroke="#171949" stroke-miterlimit="10"/>
<path d="M19.3822 354.144C15.7139 354.144 12.1958 352.687 9.60191 350.093C7.00802 347.499 5.55078 343.981 5.55078 340.313V309.119C5.55078 305.45 7.00802 301.932 9.60191 299.338C12.1958 296.744 15.7139 295.287 19.3822 295.287C23.0505 295.287 26.5686 296.744 29.1625 299.338C31.7564 301.932 33.2136 305.45 33.2136 309.119V319.06C33.2129 319.725 33.3434 320.385 33.5978 321C33.8522 321.615 34.2254 322.174 34.6962 322.645C35.1669 323.115 35.7258 323.489 36.341 323.743C36.9562 323.997 37.6155 324.128 38.2812 324.127H49.3993" stroke="#171949" stroke-miterlimit="10"/>
<path d="M129.297 494.223H14.5255V415.943H129.297V494.223Z" fill="#F78254" stroke="#171949" stroke-miterlimit="10"/>
<path d="M16.8793 420.652H126.942C133.606 420.652 139.008 415.25 139.008 408.587C139.008 401.923 133.606 396.521 126.942 396.521H16.8793C10.2156 396.521 4.81358 401.923 4.81358 408.587C4.81358 415.25 10.2156 420.652 16.8793 420.652Z" fill="#F9A17A" stroke="#171949" stroke-miterlimit="10"/>
<path d="M19.0859 354.143H49.6916" stroke="#171949" stroke-miterlimit="10"/>
<path d="M48.2195 317.652H33.2109" stroke="#171949" stroke-miterlimit="10"/>
<path d="M73.2344 252.32V396.52V252.32Z" fill="#C6E07C"/>
<path d="M73.2344 252.32V396.52" stroke="#171949" stroke-miterlimit="10"/>
<path d="M19.6758 295.287V328.836C19.6758 331.177 20.6059 333.423 22.2616 335.078C23.9173 336.734 26.1629 337.664 28.5043 337.664H49.6929" stroke="#171949" stroke-miterlimit="10"/>
<path d="M98.25 22.7773H288.358V494.223H98.25V22.7773Z" fill="#A2C3FC" stroke="#171949" stroke-miterlimit="10"/>
<path d="M205.957 234.074H255.397V475.977H205.957V234.074Z" fill="#BBD5F9" stroke="#171949" stroke-miterlimit="10"/>
<path d="M241.566 516V1L288.358 22.7771V494.223" stroke="#171949" stroke-miterlimit="10"/>
<path d="M122.973 131.074H158.875V214.651H122.973V131.074Z" fill="#F9B964" stroke="#171949" stroke-miterlimit="10"/>
<path d="M135.59 142.691C135.59 142.691 123.559 145.199 119.439 155.793C115.319 166.387 125.325 176.393 132.388 175.216C139.451 174.039 135.59 142.691 135.59 142.691Z" fill="#F9C0C0" stroke="#171949" stroke-miterlimit="10"/>
<path d="M346.627 226.423C346.627 226.423 288.359 338.251 259.519 454.2C240.685 482.451 178.296 460.674 168.879 421.828C178.885 365.914 251.867 209.943 305.427 187.577C358.987 165.211 363.107 201.703 346.627 226.423Z" fill="#F9B964" stroke="#171949" stroke-miterlimit="10"/>
<path d="M311.829 70.5576C311.829 70.5576 285.414 86.3431 264.814 135.195C238.917 135.195 175.352 120.48 154.752 132.84C134.152 145.2 158.283 172.863 154.752 175.806C151.22 178.749 135.329 184.634 138.272 195.817C141.214 207 165.316 192.18 176.529 194.052C190.654 196.406 251.277 201.114 287.18 174.04C323.083 146.966 311.829 70.5576 311.829 70.5576Z" fill="#F9C0C0" stroke="#171949" stroke-miterlimit="10"/>
<path d="M332.5 179.338C332.5 179.338 338.386 383.572 424.906 368.857C480.82 361.206 507.306 247.612 507.306 247.612L460.22 209.355L418.431 199.938L412.546 208.178L401.951 175.806C401.951 175.806 347.214 152.263 332.5 179.338Z" fill="#FFDA66" stroke="#171949" stroke-miterlimit="10"/>
<path d="M407.645 193.198L427.78 160.367L537.324 227.6C537.324 227.6 530.885 239.683 532.663 250.195C512.169 245.133 498.479 276.451 498.479 276.451C498.479 276.451 491.416 296.463 476.702 284.103C461.987 271.743 474.936 231.131 455.513 215.24C443.288 205.234 425.319 205.664 412.547 207.588" fill="#85DEED"/>
<path d="M407.645 193.198L427.78 160.367L537.324 227.6C537.324 227.6 530.885 239.683 532.663 250.195C512.169 245.133 498.479 276.451 498.479 276.451C498.479 276.451 491.416 296.463 476.702 284.103C461.987 271.743 474.936 231.131 455.513 215.24C443.288 205.234 425.319 205.664 412.547 207.588" stroke="#171949" stroke-miterlimit="10"/>
<path d="M584.996 240.549C570.282 232.309 434.911 148.731 434.911 148.731L427.777 160.367L537.322 227.6C537.322 227.6 530.883 239.683 532.661 250.195C535.78 251.007 538.746 252.321 541.442 254.086C570.5 272.579 581.465 251.143 584.996 240.549Z" fill="#FCF4E0" stroke="#171949" stroke-miterlimit="10"/>
<path d="M467.947 252.025C467.947 252.025 466.105 224.068 493.768 226.422C521.431 228.776 533.65 237.258 533.65 237.258" stroke="#171949" stroke-miterlimit="10"/>
<path d="M526.14 229.953C526.14 229.953 521.432 244.667 529.083 254.085" stroke="#171949" stroke-miterlimit="10"/>
<path d="M516.496 226.42C516.496 226.42 510.61 244.901 520.192 256.731" stroke="#171949" stroke-miterlimit="10"/>
<path d="M503.414 220.766C503.414 220.766 497.563 247.84 512.831 263.313" stroke="#171949" stroke-miterlimit="10"/>
<path d="M482.016 217.887C482.016 217.887 482.999 255.155 507.913 270.517" stroke="#171949" stroke-miterlimit="10"/>
<path d="M482 219.36C482.975 219.36 483.766 218.569 483.766 217.594C483.766 216.619 482.975 215.828 482 215.828C481.025 215.828 480.234 216.619 480.234 217.594C480.234 218.569 481.025 219.36 482 219.36Z" fill="#171949" stroke="#171949" stroke-miterlimit="10"/>
<path d="M503.191 222.303C504.167 222.303 504.957 221.512 504.957 220.537C504.957 219.562 504.167 218.771 503.191 218.771C502.216 218.771 501.426 219.562 501.426 220.537C501.426 221.512 502.216 222.303 503.191 222.303Z" fill="#171949" stroke="#171949" stroke-miterlimit="10"/>
<path d="M516.727 227.6C517.702 227.6 518.492 226.809 518.492 225.834C518.492 224.859 517.702 224.068 516.727 224.068C515.751 224.068 514.961 224.859 514.961 225.834C514.961 226.809 515.751 227.6 516.727 227.6Z" fill="#171949" stroke="#171949" stroke-miterlimit="10"/>
<path d="M526.731 231.131C527.706 231.131 528.496 230.34 528.496 229.365C528.496 228.39 527.706 227.6 526.731 227.6C525.755 227.6 524.965 228.39 524.965 229.365C524.965 230.34 525.755 231.131 526.731 231.131Z" fill="#171949" stroke="#171949" stroke-miterlimit="10"/>
<path d="M287.076 174.117L287.182 174.04C323.085 146.966 311.831 70.5576 311.831 70.5576C311.831 70.5576 285.416 86.3431 264.816 135.195C264.816 135.195 282.014 147.766 287.076 174.117Z" fill="#A6C94F" stroke="#171949" stroke-miterlimit="10"/>
<path d="M153.578 174.629C153.578 174.629 152.99 183.458 146.516 184.047C140.041 184.635 124.15 176.984 122.973 159.915C121.86 143.794 150.747 131.11 158.634 130.798C166.521 130.487 138.276 146.378 142.396 156.972C144.992 163.503 148.784 169.491 153.578 174.629Z" fill="#F9C0C0" stroke="#171949" stroke-miterlimit="10"/>
<path d="M318.964 68.6859C318.964 68.6859 333.679 66.9202 358.987 97.5259C384.296 128.132 401.953 175.806 401.953 175.806L275.41 211.12C275.41 211.12 278.353 70.4516 318.964 68.6859Z" fill="#A6C94F" stroke="#171949" stroke-miterlimit="10"/>
<path d="M320.141 68.6841C320.141 68.6841 386.649 55.7355 419.021 81.0441C451.392 106.353 464.341 142.844 467.283 159.324C470.226 175.804 420.786 192.873 408.426 158.735C396.066 124.598 382.529 94.5812 341.918 100.467" fill="#F9C0C0"/>
<path d="M320.141 68.6841C320.141 68.6841 386.649 55.7355 419.021 81.0441C451.392 106.353 464.341 142.844 467.283 159.324C470.226 175.804 420.786 192.873 408.426 158.735C396.066 124.598 382.529 94.5812 341.918 100.467" stroke="#171949" stroke-miterlimit="10"/>
<path d="M387.727 59.8276C385.16 59.1448 381.982 61.8052 378.98 66.5962C383.319 67.1243 387.626 67.8886 391.882 68.8857C391.517 63.8711 390.11 60.4632 387.727 59.8276Z" fill="#171949" stroke="#171949" stroke-miterlimit="10"/>
<path d="M341.918 100.467C352.948 98.8666 361.971 99.926 369.528 102.981C369.216 97.8071 369.981 91.015 371.882 83.7932C373.713 76.9187 376.261 70.8976 378.945 66.5952C381.176 63.0638 383.506 60.6506 385.608 59.9443C375.278 60.5329 329.493 63.4758 320.105 68.6846" fill="#A6C94F"/>
<path d="M341.918 100.467C352.948 98.8666 361.971 99.926 369.528 102.981C369.216 97.8071 369.981 91.015 371.882 83.7932C373.713 76.9187 376.261 70.8976 378.945 66.5952C381.176 63.0638 383.506 60.6506 385.608 59.9443C375.278 60.5329 329.493 63.4758 320.105 68.6846" stroke="#171949" stroke-miterlimit="10"/>
<path d="M385.648 59.946L387.732 59.8283C387.041 59.6629 386.316 59.7038 385.648 59.946Z" fill="#F9C0C0" stroke="#171949" stroke-miterlimit="10"/>
<path d="M307.848 94.4422C313.498 97.7029 323.015 91.7877 329.113 81.2346C332.38 75.5785 333.998 69.734 333.928 65.0254C327.671 66.0848 322.627 67.3032 320.143 68.6863C319.752 68.6528 319.358 68.6528 318.966 68.6863C314.175 68.8923 309.914 71.0406 306.112 74.6485C302.604 83.4477 303.128 91.7171 307.848 94.4422Z" fill="#F9C0C0" stroke="#171949" stroke-miterlimit="10"/>
<path d="M308.961 84.5774L310.138 55.7375L319.885 50.0283L323.675 71.0403" fill="#F9C0C0"/>
<path d="M308.961 84.5774L310.138 55.7375L319.885 50.0283L323.675 71.0403" stroke="#171949" stroke-miterlimit="10"/>
<path d="M311.309 62.8002C316.185 62.8002 320.138 58.1887 320.138 52.5002C320.138 46.8117 316.185 42.2002 311.309 42.2002C306.433 42.2002 302.48 46.8117 302.48 52.5002C302.48 58.1887 306.433 62.8002 311.309 62.8002Z" fill="#F9C0C0"/>
<path d="M315.763 61.3935C314.457 62.3039 312.905 62.7946 311.313 62.8002C306.44 62.8002 302.484 58.1858 302.484 52.5002C302.484 46.8146 306.44 42.2002 311.313 42.2002C316.186 42.2002 320.142 46.8146 320.142 52.5002" stroke="#171949" stroke-miterlimit="10"/>
<path d="M309.871 62.6649C310.887 62.857 311.931 62.8434 312.942 62.6251C313.953 62.4067 314.91 61.988 315.756 61.3936C315.502 63.3008 314.807 65.1224 313.725 66.7133C312.643 68.3043 311.204 69.6206 309.523 70.5576C309.547 69.2745 309.871 62.6649 309.871 62.6649Z" fill="#171949" stroke="#171949" stroke-miterlimit="10"/>
<path d="M312.473 53.7842C312.473 53.7842 314.238 48.6754 317.181 49.264C320.124 49.8525 317.67 57.5922 320.96 56.0796C324.25 54.567 328.364 41.024 322.478 36.3154C316.593 31.6068 314.238 39.2582 310.707 32.1954C305.998 22.7782 295.275 28.2343 293.05 33.9611C288.93 44.5554 300.701 47.4982 307.176 45.7325C313.65 43.9668 309.548 59.8582 312.473 53.7842Z" fill="#85DEED" stroke="#171949" stroke-miterlimit="10"/>
<path d="M466.065 153.732C466.065 153.732 474.776 181.925 463.163 187.004C453.746 191.124 457.277 173.467 455.512 169.347" fill="#F9C0C0"/>
<path d="M466.065 153.732C466.065 153.732 474.776 181.925 463.163 187.004C453.746 191.124 457.277 173.467 455.512 169.347" stroke="#171949" stroke-miterlimit="10"/>
<path d="M459.637 166.387C459.637 166.387 464.934 194.05 447.866 191.107C444.334 190.518 450.809 174.627 447.277 173.45" fill="#F9C0C0"/>
<path d="M459.637 166.387C459.637 166.387 464.934 194.05 447.866 191.107C444.334 190.518 450.809 174.627 447.277 173.45" stroke="#171949" stroke-miterlimit="10"/>
<path d="M449.633 170.507C449.633 170.507 453.753 193.461 441.393 196.404C433.194 198.358 434.919 189.341 436.096 185.81C437.273 182.278 437.861 173.45 437.861 173.45" fill="#F9C0C0"/>
<path d="M449.633 170.507C449.633 170.507 453.753 193.461 441.393 196.404C433.194 198.358 434.919 189.341 436.096 185.81C437.273 182.278 437.861 173.45 437.861 173.45" stroke="#171949" stroke-miterlimit="10"/>
<path d="M440.212 172.273C440.212 172.273 441.389 196.405 428.441 198.759C415.492 201.113 419.024 188.753 420.201 186.988C421.378 185.222 427.264 174.628 425.498 172.273" fill="#F9C0C0"/>
<path d="M440.212 172.273C440.212 172.273 441.389 196.405 428.441 198.759C415.492 201.113 419.024 188.753 420.201 186.988C421.378 185.222 427.264 174.628 425.498 172.273" stroke="#171949" stroke-miterlimit="10"/>
<path d="M427.264 172.862C427.264 172.862 427.699 195.14 416.081 198.171C402.544 201.702 397.835 186.988 400.778 179.925C403.721 172.862 411.372 175.805 411.372 175.805C411.372 175.805 408.906 157.965 403.374 145.405" fill="#F9C0C0"/>
<path d="M427.264 172.862C427.264 172.862 427.699 195.14 416.081 198.171C402.544 201.702 397.835 186.988 400.778 179.925C403.721 172.862 411.372 175.805 411.372 175.805C411.372 175.805 408.906 157.965 403.374 145.405" stroke="#171949" stroke-miterlimit="10"/>
<path d="M529.086 494.221H0.84375H529.086Z" fill="#F9C0C0"/>
<path d="M529.086 494.221H0.84375" stroke="#171949" stroke-miterlimit="10"/>
<path d="M160.048 179.337C167.849 179.337 174.173 173.013 174.173 165.212C174.173 157.41 167.849 151.086 160.048 151.086C152.246 151.086 145.922 157.41 145.922 165.212C145.922 173.013 152.246 179.337 160.048 179.337Z" fill="#FFDA66" stroke="#171949" stroke-miterlimit="10"/>
<path d="M189.48 128.131C189.48 128.131 145.337 122.834 128.857 152.851C121.794 166.977 151.811 184.634 158.874 175.217C165.937 165.8 152.988 155.794 152.988 155.794L164.171 145.788" fill="#F9C0C0"/>
<path d="M189.48 128.131C189.48 128.131 145.337 122.834 128.857 152.851C121.794 166.977 151.811 184.634 158.874 175.217C165.937 165.8 152.988 155.794 152.988 155.794L164.171 145.788" stroke="#171949" stroke-miterlimit="10"/>
<path d="M176.529 194.05C165.316 192.178 141.214 206.998 138.272 195.816C135.329 184.633 151.22 178.747 154.752 175.804C161.573 172.67 168.746 170.364 176.117 168.936" fill="#F9C0C0"/>
<path d="M176.529 194.05C165.316 192.178 141.214 206.998 138.272 195.816C135.329 184.633 151.22 178.747 154.752 175.804C161.573 172.67 168.746 170.364 176.117 168.936" stroke="#171949" stroke-miterlimit="10"/>
<path d="M122.969 234.074H172.409V475.977H122.969V234.074Z" fill="#BBD5F9" stroke="#171949" stroke-miterlimit="10"/>
<path d="M409.016 198.172L438.444 285.869L409.016 198.172Z" fill="#F9C0C0"/>
<path d="M409.016 198.172L438.444 285.869" stroke="#171949" stroke-miterlimit="10"/>
<path d="M131.211 461.262C144.613 467.484 221.05 489.661 249.155 497.754L259.519 454.199C230.091 478.331 210.079 450.079 213.611 421.828C221.262 382.394 187.59 357.144 172.999 402.994C163.465 432.958 144.271 431.545 125.543 427.302C129.816 432.717 133.636 442.775 131.211 461.262Z" fill="#85DEED" stroke="#171949" stroke-miterlimit="10"/>
<path d="M97.6594 422.418C74.1165 423.595 61.168 458.32 61.168 458.32L244.802 516L249.152 497.755C221.047 489.685 144.61 467.508 131.208 461.263C133.633 442.776 129.813 432.718 125.54 427.303C115.611 425.066 105.817 422.011 97.6594 422.418Z" fill="#FCF4E0" stroke="#171949" stroke-miterlimit="10"/>
<path d="M214.107 418.875C214.107 418.875 205.372 467.15 130.918 439.381" stroke="#171949" stroke-miterlimit="10"/>
<path d="M133.566 425.359C133.566 425.359 142.984 429.479 141.806 448.902" stroke="#171949" stroke-miterlimit="10"/>
<path d="M146.516 425.359C146.516 425.359 156.992 429.944 155.68 451.551" stroke="#171949" stroke-miterlimit="10"/>
<path d="M158.285 420.65C158.285 420.65 171.587 426.471 169.921 453.905" stroke="#171949" stroke-miterlimit="10"/>
<path d="M165.324 414.947C165.324 414.947 184.047 417.143 192.363 451.839" stroke="#171949" stroke-miterlimit="10"/>
<path d="M192.422 453.022C193.397 453.022 194.188 452.231 194.188 451.256C194.188 450.281 193.397 449.49 192.422 449.49C191.447 449.49 190.656 450.281 190.656 451.256C190.656 452.231 191.447 453.022 192.422 453.022Z" fill="#171949" stroke="#171949" stroke-miterlimit="10"/>
<path d="M170.059 455.965C171.034 455.965 171.824 455.174 171.824 454.199C171.824 453.224 171.034 452.434 170.059 452.434C169.084 452.434 168.293 453.224 168.293 454.199C168.293 455.174 169.084 455.965 170.059 455.965Z" fill="#171949" stroke="#171949" stroke-miterlimit="10"/>
<path d="M155.34 454.199C156.315 454.199 157.106 453.409 157.106 452.434C157.106 451.459 156.315 450.668 155.34 450.668C154.365 450.668 153.574 451.459 153.574 452.434C153.574 453.409 154.365 454.199 155.34 454.199Z" fill="#171949" stroke="#171949" stroke-miterlimit="10"/>
<path d="M141.805 451.256C142.78 451.256 143.57 450.465 143.57 449.49C143.57 448.515 142.78 447.725 141.805 447.725C140.83 447.725 140.039 448.515 140.039 449.49C140.039 450.465 140.83 451.256 141.805 451.256Z" fill="#171949" stroke="#171949" stroke-miterlimit="10"/>
<path d="M157.113 419.107C157.113 419.107 128.126 394.517 139.209 383.458C150.292 372.398 157.113 419.107 157.113 419.107Z" stroke="#171949" stroke-miterlimit="10"/>
<path d="M156.81 419.233C156.81 419.233 122.414 403.065 130.224 389.493C138.035 375.92 156.81 419.233 156.81 419.233Z" stroke="#171949" stroke-miterlimit="10"/>
<path d="M522.903 268.205C522.903 268.205 529.79 305.585 514.21 307.139C498.631 308.693 522.903 268.205 522.903 268.205Z" stroke="#171949" stroke-miterlimit="10"/>
<path d="M523.185 268.281C523.185 268.281 539.588 302.571 524.95 308.133C510.313 313.695 523.185 268.281 523.185 268.281Z" stroke="#171949" stroke-miterlimit="10"/>
<path d="M137.973 516H288.353C288.353 516 296.593 501.285 307.187 504.817C317.781 508.348 317.781 516 317.781 516" stroke="#171949" stroke-miterlimit="10"/>
<path d="M122.969 49.8516H264.814V115.183H122.969V49.8516Z" fill="#BBD5F9" stroke="#171949" stroke-miterlimit="10"/>
<path d="M241.57 516V1" stroke="#171949" stroke-miterlimit="10"/>
<path d="M385.645 59.946L387.728 59.8283C387.037 59.6629 386.313 59.7038 385.645 59.946Z" fill="#171949" stroke="#171949" stroke-miterlimit="10"/>
<path d="M483.426 370.176H604.671C604.671 370.176 649.403 308.376 626.449 296.604C603.494 284.833 554.054 348.399 554.054 348.399C554.054 348.399 564.649 321.324 551.7 319.559C538.751 317.793 514.031 348.399 514.031 348.399C514.031 348.399 504.026 325.444 483.426 370.176Z" fill="#D2E6FF" stroke="#171949" stroke-miterlimit="10"/>
</svg>
