<svg width="175" height="490" viewBox="0 0 175 490" fill="none" xmlns="http://www.w3.org/2000/svg">
<g filter="url(#filter0_d_3318_20196)">
<path d="M81.6022 350C83.1139 350 84.5637 350.601 85.6326 351.669C86.7015 352.738 87.3021 354.188 87.3021 355.7V364.424H75.9023V355.7C75.9023 354.188 76.5029 352.738 77.5718 351.669C78.6407 350.601 80.0905 350 81.6022 350Z" fill="#171949" stroke="#171949" stroke-miterlimit="10"/>
<path d="M84.0635 373.148H79.257H44.8438L55.0337 477.258H79.257H84.0635H108.287L118.477 373.148H84.0635Z" fill="#CAE3F9" stroke="#171949" stroke-miterlimit="10"/>
<path d="M101.561 463.386C103.689 463.386 105.471 461.667 105.678 459.41L111.904 391.636C112.137 389.044 110.231 386.799 107.786 386.799H104.48C102.268 386.799 100.448 388.66 100.346 391.003L97.4264 458.78C97.3171 461.288 99.1992 463.386 101.561 463.386Z" fill="#E0EDFC" stroke="#171949" stroke-miterlimit="10"/>
<path d="M62.426 463.347C60.2973 463.347 58.5152 461.628 58.3081 459.371L52.0778 391.596C51.8452 389.004 53.7506 386.762 56.1957 386.762H59.5063C61.7164 386.762 63.5381 388.623 63.6404 390.966L66.5601 458.741C66.6672 461.251 64.785 463.347 62.426 463.347Z" fill="#E0EDFC" stroke="#171949" stroke-miterlimit="10"/>
<path d="M82.4798 382.455H78.227C73.2926 382.455 69.3585 387.604 69.6004 393.752L72.22 460.843C72.4527 466.583 76.2402 471.094 80.8466 471.094H82.4751C87.0816 471.094 90.8784 466.583 91.1017 460.843L93.7213 393.752C93.954 387.604 90.0292 382.455 85.0948 382.455H82.4798Z" fill="#E0EDFC" stroke="#171949" stroke-miterlimit="10"/>
<path d="M117.022 362.098H46.2976C42.5714 362.098 39.5508 365.118 39.5508 368.844C39.5508 372.571 42.5714 375.591 46.2976 375.591H117.022C120.749 375.591 123.769 372.571 123.769 368.844C123.769 365.118 120.749 362.098 117.022 362.098Z" fill="#B3D3F4" stroke="#171949" stroke-miterlimit="10"/>
<path d="M31 477.258H127.665" stroke="#171949" stroke-miterlimit="10"/>
</g>
<g filter="url(#filter1_d_3318_20196)">
<path d="M147.99 401.34C147.367 396.946 145.179 392.924 141.828 390.014C138.477 387.103 134.188 385.501 129.75 385.5C125.312 385.501 121.023 387.103 117.672 390.014C114.321 392.924 112.133 396.946 111.51 401.34L100.25 481H159.25L147.99 401.34Z" fill="#F78254" stroke="#171949" stroke-miterlimit="10"/>
<path d="M38.75 70.22V45.75C38.75 33.8816 43.4647 22.4992 51.857 14.107C60.2492 5.71472 71.6316 1 83.5 1C95.3684 1 106.751 5.71472 115.143 14.107C123.535 22.4992 128.25 33.8816 128.25 45.75V385.5" stroke="#171949" stroke-miterlimit="10"/>
<path d="M15.75 84.5H62.75V98.25C62.75 104.483 60.2741 110.46 55.867 114.867C51.4599 119.274 45.4826 121.75 39.25 121.75C33.0174 121.75 27.0401 119.274 22.633 114.867C18.2259 110.46 15.75 104.483 15.75 98.25V84.5Z" fill="#E0EDFC" stroke="#171949" stroke-miterlimit="10"/>
<path d="M27.75 84.5H50.75V110.25C50.75 113.3 49.5384 116.225 47.3817 118.382C45.2251 120.538 42.3 121.75 39.25 121.75C36.2 121.75 33.2749 120.538 31.1183 118.382C28.9616 116.225 27.75 113.3 27.75 110.25V84.5Z" fill="#E0EDFC" stroke="#171949" stroke-miterlimit="10"/>
<path d="M38.75 43.4355C38.75 43.4355 30.315 81.7255 5 87.5655C25.12 86.9205 38.75 87.5655 38.75 87.5655C38.75 87.5655 52.38 86.9205 72.5 87.5655C47.185 81.7255 38.75 43.4355 38.75 43.4355Z" fill="#F78254" stroke="#171949" stroke-miterlimit="10"/>
<path d="M39 47.5C41.3472 47.5 43.25 45.5972 43.25 43.25C43.25 40.9028 41.3472 39 39 39C36.6528 39 34.75 40.9028 34.75 43.25C34.75 45.5972 36.6528 47.5 39 47.5Z" fill="#F78254" stroke="#171949" stroke-miterlimit="10"/>
<path d="M108.742 453H150.742C155.781 453 160.614 455.002 164.177 458.565C167.74 462.128 169.742 466.961 169.742 472V481H89.7422V472C89.7422 466.961 91.744 462.128 95.3072 458.565C98.8704 455.002 103.703 453 108.742 453Z" fill="#F9A17A" stroke="#171949" stroke-miterlimit="10"/>
</g>
<defs>
<filter id="filter0_d_3318_20196" x="27" y="349.5" width="104.664" height="136.258" filterUnits="userSpaceOnUse" color-interpolation-filters="sRGB">
<feFlood flood-opacity="0" result="BackgroundImageFix"/>
<feColorMatrix in="SourceAlpha" type="matrix" values="0 0 0 0 0 0 0 0 0 0 0 0 0 0 0 0 0 0 127 0" result="hardAlpha"/>
<feOffset dy="4"/>
<feGaussianBlur stdDeviation="2"/>
<feComposite in2="hardAlpha" operator="out"/>
<feColorMatrix type="matrix" values="0 0 0 0 0 0 0 0 0 0 0 0 0 0 0 0 0 0 0.25 0"/>
<feBlend mode="normal" in2="BackgroundImageFix" result="effect1_dropShadow_3318_20196"/>
<feBlend mode="normal" in="SourceGraphic" in2="effect1_dropShadow_3318_20196" result="shape"/>
</filter>
<filter id="filter1_d_3318_20196" x="0.886719" y="0.5" width="173.355" height="489" filterUnits="userSpaceOnUse" color-interpolation-filters="sRGB">
<feFlood flood-opacity="0" result="BackgroundImageFix"/>
<feColorMatrix in="SourceAlpha" type="matrix" values="0 0 0 0 0 0 0 0 0 0 0 0 0 0 0 0 0 0 127 0" result="hardAlpha"/>
<feOffset dy="4"/>
<feGaussianBlur stdDeviation="2"/>
<feComposite in2="hardAlpha" operator="out"/>
<feColorMatrix type="matrix" values="0 0 0 0 0 0 0 0 0 0 0 0 0 0 0 0 0 0 0.25 0"/>
<feBlend mode="normal" in2="BackgroundImageFix" result="effect1_dropShadow_3318_20196"/>
<feBlend mode="normal" in="SourceGraphic" in2="effect1_dropShadow_3318_20196" result="shape"/>
</filter>
</defs>
</svg>
