<svg width="167" height="482" viewBox="0 0 167 482" fill="none" xmlns="http://www.w3.org/2000/svg">
<path d="M143.99 401.34C143.367 396.946 141.179 392.924 137.828 390.014C134.477 387.103 130.188 385.501 125.75 385.5C121.312 385.501 117.023 387.103 113.672 390.014C110.321 392.924 108.133 396.946 107.51 401.34L96.25 481H155.25L143.99 401.34Z" fill="#F78254" stroke="#171949" stroke-miterlimit="10"/>
<path d="M34.75 70.22V45.75C34.75 33.8816 39.4647 22.4992 47.857 14.107C56.2492 5.71472 67.6316 1 79.5 1C91.3684 1 102.751 5.71472 111.143 14.107C119.535 22.4992 124.25 33.8816 124.25 45.75V385.5" stroke="#171949" stroke-miterlimit="10"/>
<path d="M11.75 84.5H58.75V98.25C58.75 104.483 56.2741 110.46 51.867 114.867C47.4599 119.274 41.4826 121.75 35.25 121.75C29.0174 121.75 23.0401 119.274 18.633 114.867C14.2259 110.46 11.75 104.483 11.75 98.25V84.5Z" fill="#E0EDFC" stroke="#171949" stroke-miterlimit="10"/>
<path d="M23.75 84.5H46.75V110.25C46.75 113.3 45.5384 116.225 43.3817 118.382C41.2251 120.538 38.3 121.75 35.25 121.75C32.2 121.75 29.2749 120.538 27.1183 118.382C24.9616 116.225 23.75 113.3 23.75 110.25V84.5Z" fill="#E0EDFC" stroke="#171949" stroke-miterlimit="10"/>
<path d="M34.75 43.4355C34.75 43.4355 26.315 81.7255 1 87.5655C21.12 86.9205 34.75 87.5655 34.75 87.5655C34.75 87.5655 48.38 86.9205 68.5 87.5655C43.185 81.7255 34.75 43.4355 34.75 43.4355Z" fill="#F78254" stroke="#171949" stroke-miterlimit="10"/>
<path d="M35 47.5C37.3472 47.5 39.25 45.5972 39.25 43.25C39.25 40.9028 37.3472 39 35 39C32.6528 39 30.75 40.9028 30.75 43.25C30.75 45.5972 32.6528 47.5 35 47.5Z" fill="#F78254" stroke="#171949" stroke-miterlimit="10"/>
<path d="M104.742 453H146.742C151.781 453 156.614 455.002 160.177 458.565C163.74 462.128 165.742 466.961 165.742 472V481H85.7422V472C85.7422 466.961 87.744 462.128 91.3072 458.565C94.8704 455.002 99.7031 453 104.742 453Z" fill="#F9A17A" stroke="#171949" stroke-miterlimit="10"/>
</svg>
