<svg width="24" height="24" viewBox="0 0 24 24" fill="none" xmlns="http://www.w3.org/2000/svg">
<g id="Icons">
<path id="Vector" fill-rule="evenodd" clip-rule="evenodd" d="M23.405 16.8653C22.861 15.7697 22.1442 14.7689 21.282 13.9013C20.9936 13.5754 20.6917 13.2618 20.377 12.9613L20.339 12.9243C20.2222 12.8108 20.1068 12.6958 19.993 12.5793C21.1716 10.9404 22.1801 9.18565 23.003 7.34229L23.036 7.26829L23.059 7.19029C23.168 6.82729 23.292 6.13729 22.852 5.51329C22.396 4.86929 21.667 4.75329 21.178 4.75329H18.931C18.4605 4.73185 17.9953 4.85979 17.6019 5.1188C17.2086 5.37781 16.9072 5.75462 16.741 6.19529C16.2574 7.34693 15.652 8.44351 14.935 9.46629V6.83329C14.935 6.49329 14.903 5.92329 14.538 5.44329C14.102 4.86729 13.471 4.75329 13.033 4.75329H9.467C9.00167 4.74258 8.55005 4.91125 8.20567 5.22437C7.86128 5.53748 7.65051 5.97105 7.617 6.43529L7.614 6.48029V6.52529C7.614 7.01029 7.806 7.36829 7.96 7.59329C8.029 7.69429 8.102 7.78629 8.149 7.84429L8.159 7.85729C8.209 7.91929 8.242 7.96029 8.275 8.00629C8.363 8.12429 8.488 8.30829 8.524 8.78229V10.2553C7.80818 9.05661 7.22124 7.78553 6.773 6.46329L6.765 6.44129L6.757 6.42029C6.635 6.10129 6.44 5.63729 6.049 5.28329C5.593 4.86829 5.053 4.75329 4.562 4.75329H2.282C1.785 4.75329 1.186 4.86929 0.739 5.34029C0.3 5.80429 0.25 6.36029 0.25 6.65429V6.78829L0.278 6.91829C0.909301 9.84907 2.21024 12.594 4.079 14.9383C4.93338 16.2856 6.09329 17.4126 7.46465 18.2278C8.83601 19.043 10.3802 19.5235 11.972 19.6303L12.013 19.6333H12.055C12.781 19.6333 13.538 19.5703 14.107 19.1913C14.874 18.6793 14.935 17.8943 14.935 17.5023V16.3643C15.132 16.5243 15.376 16.7383 15.675 17.0263C16.037 17.3883 16.325 17.7023 16.572 17.9763L16.704 18.1223C16.896 18.3363 17.085 18.5473 17.257 18.7203C17.473 18.9373 17.74 19.1763 18.074 19.3533C18.437 19.5443 18.818 19.6313 19.222 19.6313H21.503C21.984 19.6313 22.673 19.5173 23.158 18.9553C23.686 18.3433 23.646 17.5923 23.48 17.0533L23.45 16.9563L23.405 16.8653ZM17.685 16.9713C17.3751 16.6248 17.056 16.2867 16.728 15.9573L16.725 15.9543C15.368 14.6463 14.735 14.4193 14.287 14.4193C14.048 14.4193 13.785 14.4453 13.614 14.6593C13.537 14.7614 13.4865 14.8809 13.467 15.0073C13.4429 15.154 13.4322 15.3026 13.435 15.4513V17.5023C13.435 17.7573 13.393 17.8643 13.275 17.9423C13.118 18.0473 12.783 18.1323 12.064 18.1323C10.6982 18.0394 9.37398 17.6236 8.20018 16.9192C7.02637 16.2148 6.03652 15.2418 5.312 14.0803L5.304 14.0673L5.294 14.0553C3.55312 11.8884 2.33984 9.34653 1.75 6.63029C1.754 6.50029 1.782 6.42129 1.828 6.37329C1.875 6.32329 1.99 6.25329 2.282 6.25329H4.562C4.815 6.25329 4.947 6.30929 5.042 6.39429C5.148 6.49229 5.242 6.65729 5.354 6.95129C5.914 8.59729 6.67 10.1373 7.387 11.2683C7.745 11.8343 8.097 12.3053 8.415 12.6383C8.574 12.8043 8.729 12.9423 8.878 13.0403C9.021 13.1343 9.184 13.2093 9.352 13.2093C9.44 13.2093 9.543 13.1993 9.642 13.1563C9.74892 13.1091 9.83693 13.0274 9.892 12.9243C9.995 12.7363 10.024 12.4593 10.024 12.0963V8.72329C9.971 7.90529 9.724 7.44429 9.484 7.11729C9.4354 7.05189 9.38538 6.98754 9.334 6.92429L9.321 6.90829C9.27836 6.8565 9.23766 6.80313 9.199 6.74829C9.14977 6.68714 9.12015 6.61255 9.114 6.53429C9.12185 6.45483 9.15976 6.38137 9.21999 6.32894C9.28022 6.27652 9.35821 6.2491 9.438 6.25229H13.033C13.239 6.25229 13.308 6.30229 13.343 6.34929C13.393 6.41429 13.435 6.54929 13.435 6.83329V11.3613C13.435 11.8993 13.683 12.2633 14.043 12.2633C14.457 12.2633 14.756 12.0123 15.278 11.4903L15.287 11.4803L15.295 11.4713C16.466 10.0436 17.4227 8.45287 18.135 6.74929L18.139 6.73729C18.1925 6.58678 18.2938 6.4579 18.4274 6.37034C18.561 6.28277 18.7196 6.24131 18.879 6.25229H21.179C21.491 6.25229 21.593 6.33229 21.627 6.37929C21.662 6.42929 21.687 6.53629 21.627 6.74629C20.8056 8.58265 19.7901 10.3259 18.598 11.9463L18.59 11.9583C18.475 12.1353 18.348 12.3313 18.33 12.5553C18.31 12.7973 18.414 13.0163 18.597 13.2523C18.73 13.4483 19.005 13.7173 19.284 13.9903L19.31 14.0163C19.602 14.3023 19.919 14.6123 20.173 14.9123L20.18 14.9193L20.187 14.9273C20.9444 15.6828 21.5743 16.5561 22.052 17.5133C22.128 17.7733 22.082 17.9073 22.022 17.9763C21.953 18.0563 21.798 18.1313 21.504 18.1313H19.222C19.0665 18.1351 18.9126 18.0989 18.775 18.0263C18.6064 17.9282 18.4534 17.8055 18.321 17.6623C18.178 17.5193 18.023 17.3463 17.833 17.1353L17.686 16.9713H17.685Z" fill="black"/>
</g>
</svg>
