<svg width="28" height="28" viewBox="0 0 28 28" fill="none" xmlns="http://www.w3.org/2000/svg">
<g id="Icons">
<path id="&#208;&#155;&#208;&#176;&#208;&#185;&#208;&#186;" d="M14.0007 24.5001L12.309 22.9835C10.3451 21.214 8.72148 19.6876 7.43815 18.4043C6.15482 17.121 5.13398 15.9687 4.37565 14.9475C3.61732 13.927 3.08765 12.989 2.78665 12.1335C2.48565 11.2779 2.33476 10.4029 2.33398 9.50846C2.33398 7.68069 2.94648 6.1543 4.17148 4.9293C5.39648 3.7043 6.92287 3.0918 8.75065 3.0918C9.76176 3.0918 10.7243 3.30569 11.6382 3.73346C12.552 4.16124 13.3395 4.76402 14.0007 5.5418C14.6618 4.76402 15.4493 4.16124 16.3631 3.73346C17.277 3.30569 18.2395 3.0918 19.2507 3.0918C21.0784 3.0918 22.6048 3.7043 23.8298 4.9293C25.0548 6.1543 25.6673 7.68069 25.6673 9.50846C25.6673 10.4029 25.5164 11.2779 25.2147 12.1335C24.9129 12.989 24.3832 13.927 23.6257 14.9475C22.8673 15.9687 21.8465 17.121 20.5632 18.4043C19.2798 19.6876 17.6562 21.214 15.6923 22.9835L14.0007 24.5001Z" fill="#A6C94F"/>
</g>
</svg>
