<svg width="28" height="28" viewBox="0 0 28 28" fill="none" xmlns="http://www.w3.org/2000/svg">
<g id="Icons">
<path id="&#208;&#155;&#208;&#176;&#208;&#185;&#208;&#186;" d="M14.5148 26.6504L12.7103 24.9501C10.6155 22.9665 8.88365 21.2553 7.51476 19.8166C6.14587 18.3779 5.05698 17.0861 4.24809 15.9413C3.4392 14.7973 2.87422 13.7458 2.55316 12.7866C2.23209 11.8275 2.07114 10.8466 2.07031 9.84385C2.07031 7.7948 2.72365 6.08363 4.03031 4.71034C5.33698 3.33704 6.96513 2.65039 8.91476 2.65039C9.99328 2.65039 11.0199 2.89017 11.9948 3.36974C12.9696 3.8493 13.8096 4.52505 14.5148 5.39698C15.2199 4.52505 16.0599 3.8493 17.0348 3.36974C18.0096 2.89017 19.0362 2.65039 20.1148 2.65039C22.0644 2.65039 23.6925 3.33704 24.9992 4.71034C26.3059 6.08363 26.9592 7.7948 26.9592 9.84385C26.9592 10.8466 26.7983 11.8275 26.4764 12.7866C26.1545 13.7458 25.5895 14.7973 24.7814 15.9413C23.9725 17.0861 22.8836 18.3779 21.5148 19.8166C20.1459 21.2553 18.414 22.9665 16.3192 24.9501L14.5148 26.6504ZM14.5148 23.1191C16.5059 21.2444 18.1444 19.6365 19.4303 18.2955C20.7162 16.9545 21.7325 15.7887 22.4792 14.7982C23.2259 13.8059 23.7444 12.9227 24.0348 12.1484C24.3251 11.3741 24.4703 10.6059 24.4703 9.84385C24.4703 8.53595 24.0555 7.44603 23.2259 6.5741C22.3962 5.70216 21.3592 5.26619 20.1148 5.26619C19.1399 5.26619 18.2377 5.5548 17.4081 6.13203C16.5785 6.70925 16.0081 7.44516 15.697 8.33976H13.3325C13.0214 7.44603 12.4511 6.71012 11.6214 6.13203C10.7918 5.55393 9.88957 5.26532 8.91476 5.26619C7.67031 5.26619 6.63328 5.70216 5.80365 6.5741C4.97402 7.44603 4.5592 8.53595 4.5592 9.84385C4.5592 10.6068 4.70439 11.3754 4.99476 12.1497C5.28513 12.924 5.80365 13.8068 6.55031 14.7982C7.29698 15.7896 8.31328 16.9558 9.5992 18.2968C10.8851 19.6379 12.5236 21.2453 14.5148 23.1191Z" fill="#A6C94F"/>
</g>
</svg>
