<svg width="40" height="40" viewBox="0 0 40 40" fill="none" xmlns="http://www.w3.org/2000/svg">
<g id="Icons">
<path id="Vector" d="M15.0013 10L20.0013 5M20.0013 5L25.0013 10M20.0013 5V21.6667M11.6684 16.6667C10.1152 16.6667 9.33864 16.6667 8.72607 16.9204C7.90931 17.2587 7.26002 17.908 6.9217 18.7248C6.66797 19.3373 6.66797 20.1135 6.66797 21.6667V29.6667C6.66797 31.5335 6.66797 32.4663 7.03128 33.1793C7.35086 33.8065 7.86042 34.3175 8.48763 34.637C9.19997 35 10.133 35 11.9962 35H28.0073C29.8705 35 30.8021 35 31.5144 34.637C32.1416 34.3175 32.6521 33.8065 32.9717 33.1793C33.3346 32.467 33.3346 31.535 33.3346 29.6718V21.6667C33.3346 20.1135 33.3345 19.3373 33.0807 18.7248C32.7424 17.908 32.0937 17.2587 31.2769 16.9204C30.6643 16.6667 29.8878 16.6667 28.3346 16.6667" stroke="#A6C94F" stroke-width="3" stroke-linecap="round" stroke-linejoin="round"/>
</g>
</svg>
