<svg width="508" height="438" viewBox="0 0 508 438" fill="none" xmlns="http://www.w3.org/2000/svg">
<g clip-path="url(#clip0_2440_25701)">
<path d="M443.411 106.898H446.571V298.921H411.309V138.593C411.307 134.431 412.136 130.308 413.748 126.462C415.361 122.616 417.725 119.121 420.707 116.177C423.688 113.234 427.228 110.899 431.124 109.307C435.019 107.715 439.195 106.896 443.411 106.898Z" fill="#DBFBFC" stroke="#171949" stroke-miterlimit="10"/>
<path d="M439.113 159.867H442.243C450.676 159.867 458.765 163.175 464.728 169.063C470.692 174.951 474.042 182.936 474.042 191.263V355.573H439.113V159.867Z" fill="#DBFBFC"/>
<path d="M453.504 193.547H474.199V195.461H453.504V193.547Z" fill="white"/>
<path d="M453.504 201.844H474.199V203.757H453.504V201.844Z" fill="white"/>
<path d="M453.504 210.148H474.199V212.062H453.504V210.148Z" fill="white"/>
<path d="M453.504 218.445H474.199V220.359H453.504V218.445Z" fill="white"/>
<path d="M453.504 226.742H474.199V228.656H453.504V226.742Z" fill="white"/>
<path d="M453.504 235.047H474.199V236.961H453.504V235.047Z" fill="white"/>
<path d="M453.504 243.352H474.199V245.265H453.504V243.352Z" fill="white"/>
<path d="M439.113 159.859H442.243C450.676 159.859 458.765 163.167 464.728 169.055C470.692 174.943 474.042 182.929 474.042 191.255V355.565H439.113V159.859Z" stroke="#171949" stroke-miterlimit="10"/>
<path d="M442.116 122.188H446.548V333.541H397.082V166.66C397.082 154.865 401.828 143.553 410.275 135.213C418.723 126.873 430.18 122.188 442.126 122.188H442.116Z" stroke="#171949" stroke-miterlimit="10"/>
<path d="M441.216 144.227H446.546V355.575H387.051V197.704C387.052 183.521 392.759 169.92 402.917 159.891C413.075 149.863 426.851 144.228 441.216 144.227Z" stroke="#171949" stroke-miterlimit="10"/>
<path d="M164.052 139.597H131.066V70.6358C131.067 69.8694 131.257 69.1148 131.62 68.4371C131.982 67.7595 132.506 67.1792 133.147 66.7464C133.788 66.3136 134.525 66.0414 135.297 65.9532C136.068 65.865 136.849 65.9636 137.573 66.2404L161.003 75.2106C161.897 75.5575 162.665 76.1625 163.205 76.9467C163.745 77.7308 164.033 78.6576 164.032 79.606L164.052 139.597Z" stroke="#171949" stroke-miterlimit="10"/>
<path d="M127.529 89.1406H167.597C169.574 89.1406 171.47 89.9161 172.868 91.2965C174.267 92.6769 175.052 94.5491 175.052 96.5012V215.536H120.074V96.5012C120.074 94.5491 120.86 92.6769 122.258 91.2965C123.656 89.9161 125.552 89.1406 127.529 89.1406Z" stroke="#171949" stroke-miterlimit="10"/>
<path d="M116.213 111.812H178.919C180.896 111.812 182.792 112.588 184.19 113.968C185.588 115.349 186.374 117.221 186.374 119.173V290.28H108.758V119.173C108.758 117.221 109.543 115.349 110.941 113.968C112.34 112.588 114.236 111.812 116.213 111.812Z" stroke="#171949" stroke-miterlimit="10"/>
<path d="M198.486 197.344H261.192C263.169 197.344 265.065 198.119 266.464 199.5C267.862 200.88 268.647 202.752 268.647 204.704V363.044H191.031V204.704C191.031 202.752 191.817 200.88 193.215 199.5C194.613 198.119 196.509 197.344 198.486 197.344Z" stroke="#86D4FC" stroke-miterlimit="10"/>
<path d="M268.654 163.461H289.349C291.327 163.461 293.223 164.236 294.621 165.617C296.019 166.997 296.805 168.869 296.805 170.822V248.374H261.199V170.822C261.199 168.869 261.985 166.997 263.383 165.617C264.781 164.236 266.677 163.461 268.654 163.461Z" stroke="#171949" stroke-miterlimit="10"/>
<path d="M267.139 180.406H299.948C301.925 180.406 303.821 181.182 305.219 182.562C306.618 183.942 307.403 185.815 307.403 187.767V294.224H259.684V187.767C259.684 185.815 260.469 183.942 261.867 182.562C263.265 181.182 265.162 180.406 267.139 180.406Z" stroke="#171949" stroke-miterlimit="10"/>
<path d="M258.049 198.344H314.077C316.054 198.344 317.95 199.119 319.348 200.5C320.746 201.88 321.532 203.752 321.532 205.704V356.32H250.594V205.704C250.594 203.752 251.379 201.88 252.777 200.5C254.175 199.119 256.072 198.344 258.049 198.344Z" stroke="#171949" stroke-miterlimit="10"/>
<path d="M362.773 329.408H321.383V160.359L362.773 186.672V329.408Z" fill="#DBFBFC"/>
<path d="M337.18 195.688H363.154V197.601H337.18V195.688Z" fill="white"/>
<path d="M337.18 203.992H363.154V205.906H337.18V203.992Z" fill="white"/>
<path d="M337.18 212.289H363.154V214.203H337.18V212.289Z" fill="white"/>
<path d="M337.18 220.586H363.154V222.5H337.18V220.586Z" fill="white"/>
<path d="M337.18 228.891H363.154V230.804H337.18V228.891Z" fill="white"/>
<path d="M337.18 237.195H363.154V239.109H337.18V237.195Z" fill="white"/>
<path d="M337.18 245.492H363.154V247.406H337.18V245.492Z" fill="white"/>
<path d="M362.773 329.408H321.383V160.359L362.773 186.672V329.408Z" stroke="#171949" stroke-miterlimit="10"/>
<path d="M316.244 304.039H385.618V356.076H281.527V338.31C281.527 329.221 285.184 320.504 291.694 314.077C298.204 307.65 307.033 304.039 316.239 304.039H316.244Z" fill="#DBFBFC" stroke="#171949" stroke-miterlimit="10"/>
<path d="M446.555 112.051V81.3281V112.051Z" fill="#F9C0C0"/>
<path d="M446.555 112.051V81.3281" stroke="#171949" stroke-miterlimit="10"/>
<path d="M144.008 68.4819V29.2969V68.4819Z" fill="#DBFBFC"/>
<path d="M144.008 68.4819V29.2969" stroke="#171949" stroke-miterlimit="10"/>
<path d="M399.984 189.555H405.012V194.518H399.984V189.555Z" fill="white"/>
<path d="M407.34 189.648H412.367V194.612H407.34V189.648Z" fill="white"/>
<path d="M414.695 189.734H419.723V194.698H414.695V189.734Z" fill="white"/>
<path d="M422.047 189.828H427.074V194.792H422.047V189.828Z" fill="white"/>
<path d="M429.398 189.922H434.426V194.885H429.398V189.922Z" fill="white"/>
<path d="M399.984 200.086H405.012V205.049H399.984V200.086Z" fill="white"/>
<path d="M407.34 200.18H412.367V205.143H407.34V200.18Z" fill="white"/>
<path d="M414.695 200.273H419.723V205.237H414.695V200.273Z" fill="white"/>
<path d="M422.047 200.359H427.074V205.323H422.047V200.359Z" fill="white"/>
<path d="M429.398 200.461H434.426V205.424H429.398V200.461Z" fill="white"/>
<path d="M399.984 210.617H405.012V215.581H399.984V210.617Z" fill="white"/>
<path d="M407.34 210.719H412.367V215.682H407.34V210.719Z" fill="white"/>
<path d="M414.695 210.812H419.723V215.776H414.695V210.812Z" fill="white"/>
<path d="M422.047 210.891H427.074V215.854H422.047V210.891Z" fill="white"/>
<path d="M429.398 210.992H434.426V215.956H429.398V210.992Z" fill="white"/>
<path d="M399.984 221.156H405.012V226.12H399.984V221.156Z" fill="white"/>
<path d="M407.34 221.25H412.367V226.214H407.34V221.25Z" fill="white"/>
<path d="M414.695 221.344H419.723V226.307H414.695V221.344Z" fill="white"/>
<path d="M422.047 221.438H427.074V226.401H422.047V221.438Z" fill="white"/>
<path d="M429.398 221.523H434.426V226.487H429.398V221.523Z" fill="white"/>
<path d="M399.984 231.695H405.012V236.659H399.984V231.695Z" fill="white"/>
<path d="M407.34 231.789H412.367V236.753H407.34V231.789Z" fill="white"/>
<path d="M414.695 231.883H419.723V236.846H414.695V231.883Z" fill="white"/>
<path d="M422.047 231.977H427.074V236.94H422.047V231.977Z" fill="white"/>
<path d="M429.398 232.062H434.426V237.026H429.398V232.062Z" fill="white"/>
<path d="M399.984 242.227H405.012V247.19H399.984V242.227Z" fill="white"/>
<path d="M407.34 242.32H412.367V247.284H407.34V242.32Z" fill="white"/>
<path d="M414.695 242.414H419.723V247.378H414.695V242.414Z" fill="white"/>
<path d="M422.047 242.508H427.074V247.471H422.047V242.508Z" fill="white"/>
<path d="M429.398 242.594H434.426V247.557H429.398V242.594Z" fill="white"/>
<path d="M399.984 252.773H405.012V257.737H399.984V252.773Z" fill="white"/>
<path d="M407.34 252.859H412.367V257.823H407.34V252.859Z" fill="white"/>
<path d="M414.695 252.945H419.723V257.909H414.695V252.945Z" fill="white"/>
<path d="M422.047 253.047H427.074V258.01H422.047V253.047Z" fill="white"/>
<path d="M429.398 253.133H434.426V258.096H429.398V253.133Z" fill="white"/>
<path d="M399.984 263.305H405.012V268.268H399.984V263.305Z" fill="white"/>
<path d="M407.34 263.398H412.367V268.362H407.34V263.398Z" fill="white"/>
<path d="M414.695 263.484H419.723V268.448H414.695V263.484Z" fill="white"/>
<path d="M422.047 263.578H427.074V268.542H422.047V263.578Z" fill="white"/>
<path d="M429.398 263.672H434.426V268.635H429.398V263.672Z" fill="white"/>
<path d="M399.984 273.836H405.012V278.799H399.984V273.836Z" fill="white"/>
<path d="M407.34 273.93H412.367V278.893H407.34V273.93Z" fill="white"/>
<path d="M414.695 274.023H419.723V278.987H414.695V274.023Z" fill="white"/>
<path d="M422.047 274.109H427.074V279.073H422.047V274.109Z" fill="white"/>
<path d="M429.398 274.203H434.426V279.167H429.398V274.203Z" fill="white"/>
<path d="M399.984 284.375H405.012V289.339H399.984V284.375Z" fill="white"/>
<path d="M407.34 284.461H412.367V289.424H407.34V284.461Z" fill="white"/>
<path d="M414.695 284.562H419.723V289.526H414.695V284.562Z" fill="white"/>
<path d="M422.047 284.648H427.074V289.612H422.047V284.648Z" fill="white"/>
<path d="M429.398 284.742H434.426V289.706H429.398V284.742Z" fill="white"/>
<path d="M266.727 203.008H271.754V207.971H266.727V203.008Z" fill="white"/>
<path d="M274.082 203.094H279.109V208.057H274.082V203.094Z" fill="white"/>
<path d="M281.441 203.195H286.469V208.159H281.441V203.195Z" fill="white"/>
<path d="M288.793 203.281H293.82V208.245H288.793V203.281Z" fill="white"/>
<path d="M296.141 203.375H301.168V208.339H296.141V203.375Z" fill="white"/>
<path d="M266.727 213.547H271.754V218.51H266.727V213.547Z" fill="white"/>
<path d="M274.082 213.633H279.109V218.596H274.082V213.633Z" fill="white"/>
<path d="M281.441 213.727H286.469V218.69H281.441V213.727Z" fill="white"/>
<path d="M288.793 213.82H293.82V218.784H288.793V213.82Z" fill="white"/>
<path d="M296.141 213.914H301.168V218.878H296.141V213.914Z" fill="white"/>
<path d="M266.727 224.078H271.754V229.042H266.727V224.078Z" fill="white"/>
<path d="M274.082 224.172H279.109V229.135H274.082V224.172Z" fill="white"/>
<path d="M281.441 224.266H286.469V229.229H281.441V224.266Z" fill="white"/>
<path d="M288.793 224.352H293.82V229.315H288.793V224.352Z" fill="white"/>
<path d="M296.141 224.445H301.168V229.409H296.141V224.445Z" fill="white"/>
<path d="M266.727 234.609H271.754V239.573H266.727V234.609Z" fill="white"/>
<path d="M274.082 234.711H279.109V239.674H274.082V234.711Z" fill="white"/>
<path d="M281.441 234.797H286.469V239.76H281.441V234.797Z" fill="white"/>
<path d="M288.793 234.891H293.82V239.854H288.793V234.891Z" fill="white"/>
<path d="M296.141 234.984H301.168V239.948H296.141V234.984Z" fill="white"/>
<path d="M266.727 245.148H271.754V250.112H266.727V245.148Z" fill="white"/>
<path d="M274.082 245.242H279.109V250.206H274.082V245.242Z" fill="white"/>
<path d="M281.441 245.336H286.469V250.299H281.441V245.336Z" fill="white"/>
<path d="M288.793 245.43H293.82V250.393H288.793V245.43Z" fill="white"/>
<path d="M296.141 245.523H301.168V250.487H296.141V245.523Z" fill="white"/>
<path d="M266.727 255.68H271.754V260.643H266.727V255.68Z" fill="white"/>
<path d="M274.082 255.781H279.109V260.745H274.082V255.781Z" fill="white"/>
<path d="M281.441 255.875H286.469V260.839H281.441V255.875Z" fill="white"/>
<path d="M288.793 255.961H293.82V260.924H288.793V255.961Z" fill="white"/>
<path d="M296.141 256.055H301.168V261.018H296.141V256.055Z" fill="white"/>
<path d="M266.727 266.219H271.754V271.182H266.727V266.219Z" fill="white"/>
<path d="M274.082 266.312H279.109V271.276H274.082V266.312Z" fill="white"/>
<path d="M281.441 266.406H286.469V271.37H281.441V266.406Z" fill="white"/>
<path d="M288.793 266.5H293.82V271.464H288.793V266.5Z" fill="white"/>
<path d="M296.141 266.586H301.168V271.549H296.141V266.586Z" fill="white"/>
<path d="M266.727 276.758H271.754V281.721H266.727V276.758Z" fill="white"/>
<path d="M274.082 276.844H279.109V281.807H274.082V276.844Z" fill="white"/>
<path d="M281.441 276.938H286.469V281.901H281.441V276.938Z" fill="white"/>
<path d="M288.793 277.031H293.82V281.995H288.793V277.031Z" fill="white"/>
<path d="M296.141 277.125H301.168V282.089H296.141V277.125Z" fill="white"/>
<path d="M266.727 287.297H271.754V292.26H266.727V287.297Z" fill="white"/>
<path d="M274.082 287.383H279.109V292.346H274.082V287.383Z" fill="white"/>
<path d="M281.441 287.477H286.469V292.44H281.441V287.477Z" fill="white"/>
<path d="M288.793 287.57H293.82V292.534H288.793V287.57Z" fill="white"/>
<path d="M296.141 287.656H301.168V292.62H296.141V287.656Z" fill="white"/>
<path d="M266.727 297.828H271.754V302.792H266.727V297.828Z" fill="white"/>
<path d="M274.082 297.922H279.109V302.885H274.082V297.922Z" fill="white"/>
<path d="M281.441 298.016H286.469V302.979H281.441V298.016Z" fill="white"/>
<path d="M288.793 298.102H293.82V303.065H288.793V298.102Z" fill="white"/>
<path d="M296.141 298.195H301.168V303.159H296.141V298.195Z" fill="white"/>
<path d="M209.188 150.68H214.215V155.643H209.188V150.68Z" fill="white"/>
<path d="M216.539 150.773H221.566V155.737H216.539V150.773Z" fill="white"/>
<path d="M223.898 150.867H228.926V155.831H223.898V150.867Z" fill="white"/>
<path d="M231.246 150.953H236.273V155.917H231.246V150.953Z" fill="white"/>
<path d="M238.602 151.055H243.629V156.018H238.602V151.055Z" fill="white"/>
<path d="M209.188 161.219H214.215V166.182H209.188V161.219Z" fill="white"/>
<path d="M216.539 161.305H221.566V166.268H216.539V161.305Z" fill="white"/>
<path d="M223.898 161.398H228.926V166.362H223.898V161.398Z" fill="white"/>
<path d="M231.246 161.492H236.273V166.456H231.246V161.492Z" fill="white"/>
<path d="M238.602 161.586H243.629V166.549H238.602V161.586Z" fill="white"/>
<path d="M209.188 171.75H214.215V176.714H209.188V171.75Z" fill="white"/>
<path d="M216.539 171.844H221.566V176.807H216.539V171.844Z" fill="white"/>
<path d="M223.898 171.938H228.926V176.901H223.898V171.938Z" fill="white"/>
<path d="M231.246 172.023H236.273V176.987H231.246V172.023Z" fill="white"/>
<path d="M238.602 172.125H243.629V177.089H238.602V172.125Z" fill="white"/>
<path d="M209.188 182.289H214.215V187.253H209.188V182.289Z" fill="white"/>
<path d="M216.539 182.383H221.566V187.346H216.539V182.383Z" fill="white"/>
<path d="M223.898 182.477H228.926V187.44H223.898V182.477Z" fill="white"/>
<path d="M231.246 182.562H236.273V187.526H231.246V182.562Z" fill="white"/>
<path d="M238.602 182.656H243.629V187.62H238.602V182.656Z" fill="white"/>
<path d="M209.188 192.828H214.215V197.792H209.188V192.828Z" fill="white"/>
<path d="M216.539 192.914H221.566V197.878H216.539V192.914Z" fill="white"/>
<path d="M223.898 193.008H228.926V197.971H223.898V193.008Z" fill="white"/>
<path d="M231.246 193.102H236.273V198.065H231.246V193.102Z" fill="white"/>
<path d="M238.602 193.188H243.629V198.151H238.602V193.188Z" fill="white"/>
<path d="M209.188 203.359H214.215V208.323H209.188V203.359Z" fill="white"/>
<path d="M216.539 203.453H221.566V208.417H216.539V203.453Z" fill="white"/>
<path d="M223.898 203.539H228.926V208.503H223.898V203.539Z" fill="white"/>
<path d="M231.246 203.641H236.273V208.604H231.246V203.641Z" fill="white"/>
<path d="M238.602 203.727H243.629V208.69H238.602V203.727Z" fill="white"/>
<path d="M209.188 213.898H214.215V218.862H209.188V213.898Z" fill="white"/>
<path d="M216.539 213.984H221.566V218.948H216.539V213.984Z" fill="white"/>
<path d="M223.898 214.078H228.926V219.042H223.898V214.078Z" fill="white"/>
<path d="M231.246 214.172H236.273V219.135H231.246V214.172Z" fill="white"/>
<path d="M238.602 214.258H243.629V219.221H238.602V214.258Z" fill="white"/>
<path d="M209.188 224.43H214.215V229.393H209.188V224.43Z" fill="white"/>
<path d="M216.539 224.523H221.566V229.487H216.539V224.523Z" fill="white"/>
<path d="M223.898 224.609H228.926V229.573H223.898V224.609Z" fill="white"/>
<path d="M231.246 224.703H236.273V229.667H231.246V224.703Z" fill="white"/>
<path d="M238.602 224.797H243.629V229.76H238.602V224.797Z" fill="white"/>
<path d="M209.188 234.969H214.215V239.932H209.188V234.969Z" fill="white"/>
<path d="M216.539 235.055H221.566V240.018H216.539V235.055Z" fill="white"/>
<path d="M223.898 235.148H228.926V240.112H223.898V235.148Z" fill="white"/>
<path d="M231.246 235.242H236.273V240.206H231.246V235.242Z" fill="white"/>
<path d="M238.602 235.336H243.629V240.299H238.602V235.336Z" fill="white"/>
<path d="M209.188 245.5H214.215V250.464H209.188V245.5Z" fill="white"/>
<path d="M216.539 245.594H221.566V250.557H216.539V245.594Z" fill="white"/>
<path d="M223.898 245.688H228.926V250.651H223.898V245.688Z" fill="white"/>
<path d="M231.246 245.773H236.273V250.737H231.246V245.773Z" fill="white"/>
<path d="M238.602 245.875H243.629V250.839H238.602V245.875Z" fill="white"/>
<path d="M124.602 127.141H129.629V132.104H124.602V127.141Z" fill="white"/>
<path d="M131.953 127.234H136.98V132.198H131.953V127.234Z" fill="white"/>
<path d="M139.312 127.32H144.34V132.284H139.312V127.32Z" fill="white"/>
<path d="M146.656 127.422H151.684V132.385H146.656V127.422Z" fill="white"/>
<path d="M154.016 127.508H159.043V132.471H154.016V127.508Z" fill="white"/>
<path d="M161.453 127.508H166.48V132.471H161.453V127.508Z" fill="white"/>
<path d="M168.891 127.508H173.918V132.471H168.891V127.508Z" fill="white"/>
<path d="M124.602 140.234H129.629V145.198H124.602V140.234Z" fill="white"/>
<path d="M131.953 140.328H136.98V145.292H131.953V140.328Z" fill="white"/>
<path d="M139.312 140.414H144.34V145.378H139.312V140.414Z" fill="white"/>
<path d="M146.656 140.508H151.684V145.471H146.656V140.508Z" fill="white"/>
<path d="M154.016 140.602H159.043V145.565H154.016V140.602Z" fill="white"/>
<path d="M161.453 140.602H166.48V145.565H161.453V140.602Z" fill="white"/>
<path d="M168.891 140.602H173.918V145.565H168.891V140.602Z" fill="white"/>
<path d="M124.602 153.328H129.629V158.292H124.602V153.328Z" fill="white"/>
<path d="M131.953 153.414H136.98V158.378H131.953V153.414Z" fill="white"/>
<path d="M139.312 153.508H144.34V158.471H139.312V153.508Z" fill="white"/>
<path d="M146.656 153.602H151.684V158.565H146.656V153.602Z" fill="white"/>
<path d="M154.016 153.688H159.043V158.651H154.016V153.688Z" fill="white"/>
<path d="M161.453 153.688H166.48V158.651H161.453V153.688Z" fill="white"/>
<path d="M168.891 153.688H173.918V158.651H168.891V153.688Z" fill="white"/>
<path d="M124.602 166.406H129.629V171.37H124.602V166.406Z" fill="white"/>
<path d="M131.953 166.508H136.98V171.471H131.953V166.508Z" fill="white"/>
<path d="M139.312 166.594H144.34V171.557H139.312V166.594Z" fill="white"/>
<path d="M146.656 166.688H151.684V171.651H146.656V166.688Z" fill="white"/>
<path d="M154.016 166.781H159.043V171.745H154.016V166.781Z" fill="white"/>
<path d="M161.453 166.781H166.48V171.745H161.453V166.781Z" fill="white"/>
<path d="M168.891 166.781H173.918V171.745H168.891V166.781Z" fill="white"/>
<path d="M124.602 179.5H129.629V184.464H124.602V179.5Z" fill="white"/>
<path d="M131.953 179.594H136.98V184.557H131.953V179.594Z" fill="white"/>
<path d="M139.312 179.688H144.34V184.651H139.312V179.688Z" fill="white"/>
<path d="M146.656 179.773H151.684V184.737H146.656V179.773Z" fill="white"/>
<path d="M154.016 179.875H159.043V184.839H154.016V179.875Z" fill="white"/>
<path d="M161.453 179.875H166.48V184.839H161.453V179.875Z" fill="white"/>
<path d="M168.891 179.875H173.918V184.839H168.891V179.875Z" fill="white"/>
<path d="M124.602 192.594H129.629V197.557H124.602V192.594Z" fill="white"/>
<path d="M131.953 192.688H136.98V197.651H131.953V192.688Z" fill="white"/>
<path d="M139.312 192.773H144.34V197.737H139.312V192.773Z" fill="white"/>
<path d="M146.656 192.867H151.684V197.831H146.656V192.867Z" fill="white"/>
<path d="M154.016 192.961H159.043V197.924H154.016V192.961Z" fill="white"/>
<path d="M161.453 192.961H166.48V197.924H161.453V192.961Z" fill="white"/>
<path d="M168.891 192.961H173.918V197.924H168.891V192.961Z" fill="white"/>
<path d="M124.602 205.68H129.629V210.643H124.602V205.68Z" fill="white"/>
<path d="M131.953 205.773H136.98V210.737H131.953V205.773Z" fill="white"/>
<path d="M139.312 205.859H144.34V210.823H139.312V205.859Z" fill="white"/>
<path d="M146.656 205.953H151.684V210.917H146.656V205.953Z" fill="white"/>
<path d="M154.016 206.047H159.043V211.01H154.016V206.047Z" fill="white"/>
<path d="M161.453 206.047H166.48V211.01H161.453V206.047Z" fill="white"/>
<path d="M168.891 206.047H173.918V211.01H168.891V206.047Z" fill="white"/>
<path d="M124.602 218.773H129.629V223.737H124.602V218.773Z" fill="white"/>
<path d="M131.953 218.859H136.98V223.823H131.953V218.859Z" fill="white"/>
<path d="M139.312 218.953H144.34V223.917H139.312V218.953Z" fill="white"/>
<path d="M146.656 219.047H151.684V224.01H146.656V219.047Z" fill="white"/>
<path d="M154.016 219.141H159.043V224.104H154.016V219.141Z" fill="white"/>
<path d="M161.453 219.141H166.48V224.104H161.453V219.141Z" fill="white"/>
<path d="M168.891 219.141H173.918V224.104H168.891V219.141Z" fill="white"/>
<path d="M124.602 231.859H129.629V236.823H124.602V231.859Z" fill="white"/>
<path d="M131.953 231.953H136.98V236.917H131.953V231.953Z" fill="white"/>
<path d="M139.312 232.047H144.34V237.01H139.312V232.047Z" fill="white"/>
<path d="M146.656 232.141H151.684V237.104H146.656V232.141Z" fill="white"/>
<path d="M154.016 232.227H159.043V237.19H154.016V232.227Z" fill="white"/>
<path d="M161.453 232.227H166.48V237.19H161.453V232.227Z" fill="white"/>
<path d="M168.891 232.227H173.918V237.19H168.891V232.227Z" fill="white"/>
<path d="M328.199 315.977H377.352V319.012H328.199V315.977Z" fill="white"/>
<path d="M486.571 383.969H79.9922" stroke="#171949" stroke-miterlimit="10"/>
<path d="M389.647 295.065C389.647 295.065 386.967 247.836 410.211 227.534C425.858 216.072 426.752 248.28 414.683 271.229C402.614 294.178 394.614 336.133 388.557 330.816C382.5 325.499 389.647 295.065 389.647 295.065Z" fill="#99AD25" stroke="#171949" stroke-miterlimit="10"/>
<path d="M359.625 355.977H487.105" stroke="#171949" stroke-miterlimit="10"/>
<path d="M396.803 324.628C396.803 324.628 395.465 233.266 350.31 240.766C339.135 242.974 333.32 266.809 352.546 289.32C371.772 311.83 387.263 309.662 389.575 342.528C392.855 356.168 397.696 339.638 396.803 324.628Z" fill="#A6C94F" stroke="#171949" stroke-miterlimit="10"/>
<path d="M389.646 336.993C389.646 336.993 389.202 287.119 416.025 256.665C442.847 226.211 475.48 242.541 457.152 264.608C438.981 286.501 408.423 328.167 408.872 340.965C409.322 353.762 382.943 367.452 389.646 336.993Z" fill="#C6E07C" stroke="#171949" stroke-miterlimit="10"/>
<path d="M458.494 243.438C458.494 243.438 399.034 261.518 391.422 342.733" stroke="#171949" stroke-miterlimit="10"/>
<path d="M392.773 355.971C392.773 355.971 392.773 305.638 428.984 285.789C465.195 265.94 501.406 289.776 494.254 322.866C487.102 355.956 444.632 348.91 446.868 320.22C433.457 324.207 420.939 334.343 412.141 355.971H392.773Z" fill="#A6C94F" stroke="#171949" stroke-miterlimit="10"/>
<path d="M404.297 355.975C404.297 355.975 405.306 315.808 436.601 302.567C467.896 289.326 491.69 304.645 494.547 321.504" stroke="#171949" stroke-miterlimit="10"/>
<path d="M401.723 355.98C401.723 355.98 416.027 329.936 448.215 339.206C480.52 348.51 477.718 387.316 455.787 391.731C438.469 395.22 444.612 356.847 406.164 355.98H401.723Z" fill="#C6E07C" stroke="#171949" stroke-miterlimit="10"/>
<path d="M446.871 320.221C446.871 320.221 485.318 310.069 486.212 338.316L446.871 320.221Z" fill="#A6C94F"/>
<path d="M446.871 320.221C446.871 320.221 485.318 310.069 486.212 338.316" stroke="#171949" stroke-miterlimit="10"/>
<path d="M475.478 321.109C475.478 321.109 472.798 333.468 449.418 333.274" stroke="#171949" stroke-miterlimit="10"/>
<path d="M404.398 355.972C404.398 355.972 423.619 333.462 447.302 346.703C470.985 359.944 460.729 389.95 460.729 389.95" stroke="#171949" stroke-miterlimit="10"/>
<path d="M392.774 355.97C392.774 355.97 395.01 288.877 363.715 281.377C332.421 273.877 317.223 295.939 317.223 321.1C317.223 346.262 340.472 351.111 347.624 341.846C354.776 332.582 358.35 318.424 358.35 318.424C358.35 318.424 372.942 323.283 383.976 355.945L392.774 355.97Z" fill="#C6E07C" stroke="#171949" stroke-miterlimit="10"/>
<path d="M388.43 314.429C388.43 314.429 370.869 272.11 358.352 318.451L388.43 314.429Z" fill="#C6E07C"/>
<path d="M388.43 314.429C388.43 314.429 370.869 272.11 358.352 318.451" stroke="#171949" stroke-miterlimit="10"/>
<path d="M366.852 282.368C366.852 282.368 327.229 271.703 328.713 343.849" stroke="#171949" stroke-miterlimit="10"/>
<path d="M362.824 305.656C362.824 305.656 387.709 315.808 389.576 355.989" stroke="#171949" stroke-miterlimit="10"/>
<path d="M383.855 355.974C383.855 355.974 375.779 329.492 355.226 336.13C348.967 338.338 344.944 352.023 358.355 355.994L383.855 355.974Z" fill="#A6C94F" stroke="#171949" stroke-miterlimit="10"/>
<path d="M354.242 336.562C354.242 336.562 363.55 336.562 376.82 355.998" stroke="#171949" stroke-miterlimit="10"/>
<path d="M345.41 243.434C345.41 243.434 373.101 233.706 391.923 312.828" stroke="#171949" stroke-miterlimit="10"/>
<path d="M417.319 225.133C417.319 225.133 396.902 260.59 394.605 300.119" stroke="#171949" stroke-miterlimit="10"/>
<path d="M81.5 356.312H406.056" stroke="#171949" stroke-miterlimit="10"/>
<path d="M102.438 383.977V430.074" stroke="#171949" stroke-miterlimit="10"/>
<path d="M142.984 383.977V430.074" stroke="#171949" stroke-miterlimit="10"/>
<path d="M183.535 383.977V430.074" stroke="#171949" stroke-miterlimit="10"/>
<path d="M224.082 383.977V430.074" stroke="#171949" stroke-miterlimit="10"/>
<path d="M264.629 383.977V430.074" stroke="#171949" stroke-miterlimit="10"/>
<path d="M305.18 383.977V430.074" stroke="#171949" stroke-miterlimit="10"/>
<path d="M345.73 383.977V430.074" stroke="#171949" stroke-miterlimit="10"/>
<path d="M386.273 383.977V430.074" stroke="#171949" stroke-miterlimit="10"/>
<path d="M426.828 383.977V430.074" stroke="#171949" stroke-miterlimit="10"/>
<path d="M467.371 383.977V430.074" stroke="#171949" stroke-miterlimit="10"/>
<path d="M197.343 344.352C218.808 344.352 236.209 323.825 236.209 298.504C236.209 273.183 218.808 252.656 197.343 252.656C175.877 252.656 158.477 273.183 158.477 298.504C158.477 323.825 175.877 344.352 197.343 344.352Z" fill="#99AD25" stroke="#171949" stroke-miterlimit="10"/>
<path d="M243.781 356.317C243.781 330.996 261.18 310.469 282.647 310.469C304.114 310.469 321.513 330.996 321.513 356.317H243.781Z" fill="#99AD25" stroke="#171949" stroke-miterlimit="10"/>
<path d="M231.213 275.336C202.947 275.336 180.031 311.591 180.031 356.317H282.395C282.395 311.591 259.479 275.336 231.213 275.336Z" fill="#C6E07C" stroke="#171949" stroke-miterlimit="10"/>
<path d="M231.016 275.336V356.317" stroke="#171949" stroke-miterlimit="10"/>
<path d="M280.042 332.642L231.016 356.318L261.811 291.398" stroke="#171949" stroke-miterlimit="10"/>
<path d="M181.992 332.642L231.019 356.318L200.224 291.398" stroke="#171949" stroke-miterlimit="10"/>
<path d="M134.503 238.703C98.1256 238.703 68.6328 291.358 68.6328 356.313H200.373C200.373 291.358 170.881 238.703 134.503 238.703Z" fill="#A6C94F" stroke="#171949" stroke-miterlimit="10"/>
<path d="M134.258 238.703V356.313" stroke="#171949" stroke-miterlimit="10"/>
<path d="M197.352 321.928L134.258 356.313L173.891 262.031" stroke="#171949" stroke-miterlimit="10"/>
<path d="M71.1602 321.928L134.254 356.313L94.6211 262.031" stroke="#171949" stroke-miterlimit="10"/>
<path d="M268.008 32.8868C269.27 25.0527 276.78 19.7404 281.939 20.6872C288.703 21.9231 290.308 28.5113 289.046 36.3453" fill="#85DEED"/>
<path d="M268.008 32.8868C269.27 25.0527 276.78 19.7404 281.939 20.6872C288.703 21.9231 290.308 28.5113 289.046 36.3453" stroke="#171949" stroke-miterlimit="10"/>
<path d="M277.635 33.6669L277.605 33.8363L272.305 33.3828L258.172 73.0014L276.343 79.4799L277.045 61.4148L279.432 61.8434C280.708 62.0699 282.022 61.7872 283.087 61.0574C284.152 60.3277 284.88 59.2105 285.111 57.9513L289.184 35.73L277.635 33.6669Z" fill="#F9C0C0" stroke="#171949" stroke-miterlimit="10"/>
<path d="M277.098 61.2964L271.041 58.8047C271.041 58.8047 270.461 65.1287 276.806 67.451C276.886 64.6104 277.098 61.2964 277.098 61.2964Z" fill="#171949" stroke="#171949" stroke-miterlimit="10"/>
<path d="M281.137 36.3747C281.137 36.3747 279.117 50.3285 276.089 48.8334C273.06 47.3384 278.108 41.8566 274.575 41.3582C271.041 40.8599 272.051 54.8136 261.451 50.8268C253.375 46.84 262.965 33.883 269.022 33.3847C275.079 32.8863 281.137 36.3747 281.137 36.3747Z" fill="#171949" stroke="#171949" stroke-miterlimit="10"/>
<path d="M258.351 62.7996C258.351 62.7996 184.218 58.3145 179.171 89.7103C174.628 113.123 189.518 176.164 189.518 176.164L258.351 62.7996Z" fill="#A6C94F"/>
<path d="M258.355 62.8074C258.355 62.8074 184.222 58.3223 179.174 89.7181C174.632 113.14 189.774 175.932 189.774 175.932L258.355 62.8074Z" stroke="#171949" stroke-miterlimit="10"/>
<path d="M289.073 39.3749L255.461 32.1439C255.319 32.1152 255.184 32.0584 255.065 31.977C254.946 31.8956 254.845 31.7913 254.767 31.6703C254.69 31.5492 254.638 31.414 254.615 31.2727C254.592 31.1315 254.598 30.987 254.633 30.8482C254.698 30.5907 254.859 30.3668 255.083 30.2209C255.308 30.0751 255.579 30.0179 255.845 30.0608L289.804 35.5426C290.052 35.5811 290.29 35.6691 290.502 35.8014C290.714 35.9336 290.897 36.1072 291.038 36.3116C291.18 36.516 291.278 36.7468 291.326 36.9899C291.375 37.233 291.372 37.4833 291.319 37.7254L291.268 37.9745C291.218 38.2092 291.121 38.4317 290.983 38.6293C290.846 38.8269 290.67 38.9956 290.465 39.1257C290.261 39.2559 290.033 39.3449 289.794 39.3877C289.555 39.4304 289.31 39.4261 289.073 39.3749Z" fill="#85DEED" stroke="#171949" stroke-miterlimit="10"/>
<path d="M196.334 141.531L135.259 250.171L65.9766 287.198L103.465 347.568L166.024 296.417C170.391 292.849 174.186 288.648 177.28 283.959L240.752 187.877L196.334 141.531Z" fill="#B4CBF9" stroke="#171949" stroke-miterlimit="10"/>
<path d="M204.101 243.368L240.757 187.877L196.338 141.531L193.815 146.041C187.026 159.337 171.141 200.182 204.101 243.368Z" fill="#171949" stroke="#171949" stroke-miterlimit="10"/>
<path d="M161.683 422.097H10.3281C10.3281 422.097 15.7997 403.159 36.9942 404.654C58.1888 406.149 54.7716 417.113 75.9662 410.136C97.1608 403.159 107.422 404.156 119.728 413.126C132.034 422.097 143.467 410.635 161.683 422.097Z" fill="white"/>
<path d="M15.2734 413.334C19.2408 408.609 26.0045 403.865 37.0031 404.658C58.2027 406.153 54.7805 417.116 75.9751 410.139C97.1697 403.162 107.431 404.159 119.737 413.129C132.043 422.1 143.461 410.638 161.692 422.1H83.5262" stroke="#171949" stroke-miterlimit="10"/>
<path d="M312.086 248.87C316.598 241.348 317.942 232.379 315.829 223.889C313.715 215.399 308.314 208.067 300.785 203.466L261.444 179.406L231.664 141.531H196.331C196.331 141.531 163.522 202.828 244.283 235.719C239.558 245.92 214.124 295.485 193.808 334.89H263.211C273.458 314.059 296.207 275.377 312.086 248.87Z" fill="#B4CBF9" stroke="#171949" stroke-miterlimit="10"/>
<path d="M196.336 141.531C196.336 141.531 244.792 55.9897 261.691 63.126C293.249 73.7558 261.449 179.405 261.449 179.405L196.336 141.531Z" fill="#A6C94F"/>
<path d="M25.2266 308.981C25.2266 308.981 77.7209 398.683 88.8255 415.627C101.949 408.65 101.444 392.015 94.8825 378.251C86.8065 361.307 93.3683 355.825 93.3683 355.825L103.463 347.573L65.9803 287.203L25.2266 308.981Z" fill="#F99BCC" stroke="#171949" stroke-miterlimit="10"/>
<path d="M297.792 385.722C297.792 385.722 296.277 367.283 280.63 365.29C264.983 363.296 249.84 368.28 258.926 344.359C259.849 341.927 261.313 338.708 263.196 334.891H193.817C179.402 362.868 167.57 385.722 167.57 385.722H297.792Z" fill="#F99BCC" stroke="#171949" stroke-miterlimit="10"/>
<path d="M274.827 84.8012C279.673 118.828 261.441 179.407 261.441 179.407L196.328 141.533C196.328 141.533 216.952 105.109 235.987 81.7812C237.248 80.2363 238.499 78.7546 239.737 77.3359" stroke="#171949" stroke-miterlimit="10"/>
<path d="M256.902 121.103L284.462 175.044C285.244 176.586 286.537 177.817 288.126 178.532C295.036 181.627 315.171 190.567 330.96 196.737C333.221 185.674 343.417 173.25 350.711 165.526C329.693 156.416 306.873 147.525 306.873 147.525C290.468 66.5439 261.445 63.3047 261.445 63.3047" fill="#A6C94F"/>
<path d="M375.012 190.864C378.04 191.86 389.145 190.365 385.107 183.388C383.31 180.279 367.587 172.824 350.708 165.508C343.414 173.232 333.218 185.656 330.957 196.719C336.509 198.887 341.522 200.706 345.231 201.827C361.888 206.811 371.983 189.867 375.012 190.864Z" fill="#F9C0C0" stroke="#171949" stroke-miterlimit="10"/>
<path d="M368.955 180.398C368.955 180.398 390.659 200.831 368.344 207.593C365.421 200.332 363.402 190.365 363.402 190.365" fill="#F9C0C0"/>
<path d="M368.955 180.398C368.955 180.398 390.659 200.831 368.344 207.593C365.421 200.332 363.402 190.365 363.402 190.365" stroke="#171949" stroke-miterlimit="10"/>
<path d="M363.402 183.391C363.402 183.391 382.875 206.878 361.781 213.077C358.859 205.816 356.84 195.849 356.84 195.849" fill="#F9C0C0"/>
<path d="M363.402 183.391C363.402 183.391 382.875 206.878 361.781 213.077C358.859 205.816 356.84 195.849 356.84 195.849" stroke="#171949" stroke-miterlimit="10"/>
<path d="M357.343 187.875C357.343 187.875 376.816 211.362 355.723 217.562C352.8 210.301 350.781 200.334 350.781 200.334" fill="#F9C0C0"/>
<path d="M357.343 187.875C357.343 187.875 376.816 211.362 355.723 217.562C352.8 210.301 350.781 200.334 350.781 200.334" stroke="#171949" stroke-miterlimit="10"/>
<path d="M336.902 198.994C336.902 198.994 347.734 202.826 347.734 211.797C345.211 212.295 344.201 216.78 347.23 219.77C350.258 222.76 367.42 219.272 351.772 192.859" fill="#F9C0C0"/>
<path d="M336.902 198.994C336.902 198.994 347.734 202.826 347.734 211.797C345.211 212.295 344.201 216.78 347.23 219.77C350.258 222.76 367.42 219.272 351.772 192.859" stroke="#171949" stroke-miterlimit="10"/>
<path d="M167.562 385.716H297.789C297.474 382.978 296.783 380.295 295.734 377.742H171.686C169.082 382.785 167.562 385.716 167.562 385.716Z" fill="#171949" stroke="#171949" stroke-miterlimit="10"/>
<path d="M343.398 422.093H262.203C262.203 422.093 265.136 408.334 276.508 409.42C287.88 410.507 286.043 418.47 297.415 413.407C308.787 408.344 314.289 409.062 320.891 415.58C327.493 422.098 333.626 413.766 343.398 422.093Z" fill="white" stroke="#171949" stroke-miterlimit="10"/>
<path d="M256.902 121.097L284.462 175.038C285.244 176.58 286.537 177.811 288.126 178.527C295.036 181.621 315.171 190.562 330.96 196.731C333.221 185.668 343.417 173.244 350.711 165.52C329.693 156.41 306.873 147.519 306.873 147.519C288.702 58.8138 256.902 62.8006 256.902 62.8006" stroke="#171949" stroke-miterlimit="10"/>
<path d="M270.031 343.855H181.699L189.775 325.914H278.107L270.031 343.855Z" fill="#9BC1F9" stroke="#171949" stroke-miterlimit="10"/>
<path d="M75.7422 273.383L119.625 348.426L103.889 357.396L60.0055 282.353L75.7422 273.383Z" fill="#9BC1F9" stroke="#171949" stroke-miterlimit="10"/>
<path d="M379.832 392.7H145.44C142.843 392.703 140.279 392.135 137.934 391.035C135.588 389.936 133.521 388.334 131.882 386.346L115.583 366.631C114.854 365.707 114.521 364.537 114.654 363.373C114.787 362.209 115.376 361.142 116.295 360.401C117.214 359.66 118.391 359.304 119.573 359.408C120.755 359.513 121.848 360.07 122.62 360.96L138.923 380.675C139.71 381.631 140.703 382.402 141.831 382.931C142.958 383.459 144.191 383.732 145.44 383.73H379.832C381.013 383.729 382.18 383.483 383.258 383.008C384.336 382.533 385.301 381.84 386.091 380.974L404.439 360.801C405.255 359.965 406.367 359.474 407.542 359.432C408.717 359.389 409.863 359.798 410.739 360.573C411.615 361.347 412.153 362.427 412.239 363.585C412.326 364.742 411.954 365.888 411.202 366.781L392.855 386.969C391.212 388.772 389.204 390.214 386.961 391.202C384.717 392.189 382.288 392.7 379.832 392.7Z" fill="#85DEED" stroke="#171949" stroke-miterlimit="10"/>
<path d="M352.929 410.874C354.922 403.791 353.318 397.166 349.348 396.078C345.378 394.989 340.545 399.849 338.553 406.932C336.56 414.016 338.164 420.64 342.134 421.729C346.104 422.817 350.937 417.957 352.929 410.874Z" fill="#171949" stroke="#171949" stroke-miterlimit="10"/>
<path d="M348.589 409.676C349.379 406.865 348.744 404.236 347.17 403.805C345.596 403.373 343.679 405.302 342.889 408.113C342.098 410.924 342.733 413.553 344.307 413.985C345.881 414.416 347.798 412.487 348.589 409.676Z" fill="white" stroke="#171949" stroke-miterlimit="10"/>
<path d="M172.73 410.874C174.722 403.791 173.119 397.166 169.149 396.078C165.179 394.989 160.346 399.849 158.354 406.932C156.361 414.016 157.964 420.64 161.934 421.729C165.904 422.817 170.738 417.957 172.73 410.874Z" fill="#171949" stroke="#171949" stroke-miterlimit="10"/>
<path d="M168.389 409.684C169.18 406.873 168.545 404.244 166.971 403.813C165.397 403.381 163.48 405.31 162.689 408.121C161.899 410.932 162.534 413.561 164.108 413.992C165.682 414.424 167.599 412.495 168.389 409.684Z" fill="white" stroke="#171949" stroke-miterlimit="10"/>
<path d="M206.93 89.6953L213.673 113.088" stroke="#171949" stroke-miterlimit="10"/>
<path d="M208.375 372.604C207.214 372.61 206.069 372.343 205.033 371.826C200.491 369.539 199.284 362.891 202.328 357.001C204.589 352.62 208.768 349.68 212.731 349.68C213.891 349.673 215.037 349.94 216.072 350.457C220.615 352.745 221.821 359.393 218.778 365.283C216.516 369.659 212.337 372.604 208.375 372.604Z" fill="white"/>
<path d="M212.738 349.928C213.858 349.92 214.964 350.178 215.963 350.681C220.375 352.903 221.541 359.402 218.562 365.173C216.342 369.463 212.253 372.354 208.382 372.354C207.261 372.36 206.155 372.102 205.156 371.601C200.745 369.379 199.604 362.88 202.557 357.109C204.778 352.814 208.871 349.928 212.738 349.928ZM212.738 349.43C208.77 349.43 204.5 352.26 202.108 356.905C198.998 362.925 200.26 369.718 204.924 372.065C205.995 372.602 207.18 372.879 208.382 372.872C212.349 372.872 216.619 370.041 219.012 365.397C222.121 359.372 220.859 352.584 216.195 350.237C215.124 349.699 213.939 349.423 212.738 349.43Z" fill="black"/>
<path d="M57.4607 328.195C53.9274 328.195 51.0705 326.77 49.6118 324.278C48.3852 322.18 48.3196 319.583 49.42 316.972C50.671 314.179 52.8121 311.865 55.5174 310.384C57.7292 309.103 60.2419 308.416 62.806 308.391C66.3393 308.391 69.1962 309.816 70.655 312.308C71.8815 314.406 71.9471 317.002 70.8468 319.613C69.5913 322.395 67.4503 324.696 64.7493 326.167C62.542 327.462 60.0284 328.162 57.4607 328.195Z" fill="white"/>
<path d="M62.8251 308.616C66.2625 308.616 69.0437 309.996 70.452 312.408C71.6381 314.436 71.7038 316.953 70.6337 319.494C69.406 322.242 67.3019 324.517 64.6423 325.973C62.4732 327.246 60.0031 327.934 57.4798 327.966C54.0424 327.966 51.2612 326.586 49.853 324.174C48.6668 322.146 48.6012 319.629 49.6713 317.087C50.8989 314.34 53.0031 312.065 55.6627 310.609C57.8318 309.336 60.3019 308.648 62.8251 308.616ZM62.8251 308.117C60.215 308.15 57.659 308.857 55.4103 310.165C49.4795 313.549 46.7942 319.918 49.4138 324.398C50.9634 327.044 54.0172 328.44 57.4899 328.44C60.1 328.406 62.6561 327.7 64.9047 326.392C70.8356 323.008 73.5209 316.639 70.9012 312.159C69.3516 309.508 66.2978 308.117 62.8251 308.117Z" fill="black"/>
<path d="M263.724 359.773C263.724 359.773 257.086 359.773 254.84 367.478" stroke="#171949" stroke-miterlimit="10"/>
<path d="M271.192 360.93C271.192 360.93 264.555 360.93 262.309 368.634" stroke="#171949" stroke-miterlimit="10"/>
<path d="M278.673 362.086C278.673 362.086 272.035 362.086 269.789 369.79" stroke="#171949" stroke-miterlimit="10"/>
<path d="M271.623 359.804C271.616 359.804 271.609 359.802 271.602 359.799C271.596 359.795 271.591 359.79 271.588 359.784C271.584 359.778 271.582 359.771 271.582 359.764C271.582 359.757 271.584 359.75 271.587 359.744C272.264 358.748 280.814 346.608 285.175 352.827C289.536 359.047 272.89 359.759 271.623 359.804Z" stroke="#171949" stroke-miterlimit="10"/>
<path d="M271.664 359.907C271.656 359.91 271.648 359.912 271.64 359.911C271.632 359.911 271.624 359.908 271.617 359.903C271.611 359.899 271.605 359.892 271.602 359.885C271.598 359.878 271.597 359.87 271.598 359.862C271.764 358.446 274.036 340.755 281.885 345.559C289.734 350.363 272.951 359.244 271.664 359.907Z" stroke="#171949" stroke-miterlimit="10"/>
<path d="M96.5634 367.73C96.5634 367.73 93.9538 361.7 85.8828 362.717" stroke="#171949" stroke-miterlimit="10"/>
<path d="M98.4384 375.003C98.4384 375.003 95.8288 368.978 87.7578 369.989" stroke="#171949" stroke-miterlimit="10"/>
<path d="M100.317 382.222C100.317 382.222 97.7128 376.197 89.6367 377.208" stroke="#171949" stroke-miterlimit="10"/>
<path d="M99.6788 374.922C99.6762 374.916 99.6752 374.909 99.6761 374.902C99.6769 374.896 99.6795 374.889 99.6835 374.884C99.6875 374.878 99.6929 374.874 99.6992 374.871C99.7054 374.868 99.7123 374.867 99.7192 374.867C100.895 375.092 115.589 378.047 111.52 384.46C107.452 390.874 100.184 376.053 99.6788 374.922Z" stroke="#171949" stroke-miterlimit="10"/>
<path d="M99.5715 375.002C99.5641 374.998 99.5579 374.993 99.5535 374.985C99.5492 374.978 99.5469 374.97 99.5469 374.962C99.5469 374.954 99.5492 374.946 99.5535 374.939C99.5579 374.932 99.5641 374.926 99.5715 374.922C100.955 374.519 118.313 369.595 116.94 378.605C115.567 387.615 100.682 375.904 99.5715 375.002Z" stroke="#171949" stroke-miterlimit="10"/>
<path d="M32.9644 304.836L25.2266 308.972C25.2266 308.972 77.7209 398.675 88.8255 415.618C91.3367 414.308 93.5225 412.465 95.2257 410.221L32.9644 304.836Z" fill="#171949" stroke="#171949" stroke-miterlimit="10"/>
<path d="M90.6133 422.094H478.864V438.29H90.6133V422.094Z" fill="#171949" stroke="#171949" stroke-miterlimit="10"/>
<path opacity="0.81" d="M381.94 85.7568C380.18 85.7502 378.446 86.1748 376.893 86.9927C375.896 83.7077 373.93 80.7904 371.246 78.6131C368.563 76.4358 365.283 75.0973 361.826 74.7682C360.651 71.4848 358.339 68.717 355.298 66.9539C352.257 65.1908 348.682 64.546 345.206 65.1335C341.729 65.7209 338.575 67.5028 336.301 70.1641C334.027 72.8254 332.779 76.1949 332.777 79.6769C328.816 79.6835 325.02 81.2416 322.222 84.0091C319.423 86.7767 317.852 90.5274 317.852 94.438H392.434C391.995 92.0048 390.704 89.8016 388.785 88.2144C386.866 86.6272 384.443 85.7572 381.94 85.7568Z" fill="white"/>
<path opacity="0.81" d="M345.36 132.434C344.58 132.434 343.812 132.622 343.123 132.982C342.678 131.518 341.801 130.218 340.603 129.248C339.405 128.279 337.942 127.684 336.4 127.54C335.878 126.078 334.849 124.846 333.495 124.061C332.141 123.276 330.55 122.989 329.002 123.251C327.455 123.513 326.051 124.307 325.039 125.492C324.027 126.677 323.473 128.178 323.473 129.728C321.712 129.732 320.023 130.426 318.779 131.657C317.535 132.889 316.836 134.557 316.836 136.296H350.029C349.834 135.214 349.259 134.233 348.406 133.527C347.552 132.82 346.473 132.434 345.36 132.434Z" fill="white"/>
<path opacity="0.81" d="M116.184 68.7195C114.813 68.7166 113.462 69.0487 112.252 69.6863C111.47 67.1128 109.93 64.8275 107.827 63.1217C105.724 61.4159 103.155 60.3668 100.446 60.1081C99.5273 57.5348 97.7162 55.3653 95.3334 53.9834C92.9505 52.6014 90.1494 52.096 87.4255 52.5565C84.7016 53.0171 82.2305 54.4139 80.4492 56.5C78.6679 58.586 77.6912 61.2268 77.6919 63.9553C74.5892 63.9553 71.6131 65.1705 69.4168 67.3343C67.2205 69.498 65.9832 72.4337 65.9766 75.497H124.407C124.058 73.5951 123.043 71.8746 121.541 70.6359C120.038 69.3972 118.142 68.7189 116.184 68.7195Z" fill="white"/>
<path opacity="0.81" d="M429.109 69.5489C430.579 69.5473 432.025 69.9125 433.314 70.6104C434.122 67.8234 435.755 65.3384 438.003 63.4738C440.252 61.6092 443.013 60.4501 445.933 60.1451C446.766 57.699 448.352 55.5708 450.47 54.0574C452.587 52.544 455.13 51.721 457.744 51.7031C464.659 51.7031 470.262 57.3693 470.262 64.3611C477.177 64.3412 482.785 70.0174 482.785 76.9942H420.316C420.66 74.9298 421.73 73.0512 423.338 71.6893C424.947 70.3273 426.99 69.5694 429.109 69.5489Z" fill="white"/>
<path opacity="0.81" d="M169.033 62.3967C169.764 62.3905 170.485 62.5616 171.133 62.895C171.551 61.5206 172.373 60.3 173.496 59.3886C174.619 58.4772 175.991 57.9162 177.437 57.777C177.927 56.4007 178.894 55.24 180.168 54.5005C181.441 53.7611 182.939 53.4907 184.395 53.7373C185.851 53.9839 187.172 54.7315 188.123 55.8477C189.074 56.9638 189.595 58.3765 189.592 59.8352C190.415 59.8345 191.231 59.9944 191.991 60.3056C192.752 60.6169 193.443 61.0734 194.024 61.6489C194.606 62.2244 195.067 62.9077 195.38 63.6594C195.693 64.4112 195.853 65.2167 195.851 66.0296H164.637C164.821 65.0111 165.363 64.0891 166.167 63.4249C166.97 62.7608 167.985 62.3968 169.033 62.3967Z" fill="white"/>
</g>
<defs>
<clipPath id="clip0_2440_25701">
<rect width="508" height="438" fill="white"/>
</clipPath>
</defs>
</svg>
