<svg width="640" height="717" viewBox="0 0 640 717" fill="none" xmlns="http://www.w3.org/2000/svg">
<path opacity="0.6" d="M70.5547 41.9609L143.258 337.852L331.283 233.764L155.076 41.9609H70.5547Z" fill="#FCF4E0"/>
<path opacity="0.6" d="M188.734 47.418L365.456 226.746L392.159 193.999L188.734 47.418Z" fill="white"/>
<path opacity="0.6" d="M54.793 61.4523L77.7141 415.43L130.003 360.072L59.807 47.418L54.793 61.4523Z" fill="white"/>
<path d="M268.789 696.113H33.3103V359.882H268.789V696.113Z" fill="#B7C9F9" stroke="#171949" stroke-miterlimit="10"/>
<path d="M268.789 696.113H181.066V359.882H268.789V696.113Z" fill="#98B7F9" stroke="#171949" stroke-miterlimit="10"/>
<path d="M108.801 659.927C142.078 659.927 169.055 622.125 169.055 575.495C169.055 528.864 142.078 491.062 108.801 491.062C75.5235 491.062 48.5469 528.864 48.5469 575.495C48.5469 622.125 75.5235 659.927 108.801 659.927Z" fill="#D4DEFC" stroke="#171949" stroke-miterlimit="10"/>
<path d="M108.797 607.656C121.476 607.656 131.754 593.257 131.754 575.494C131.754 557.731 121.476 543.332 108.797 543.332C96.118 543.332 85.8398 557.731 85.8398 575.494C85.8398 593.257 96.118 607.656 108.797 607.656Z" fill="#171949" stroke="#171949" stroke-miterlimit="10"/>
<path d="M108.798 472.468C128.012 472.468 143.588 450.641 143.588 423.715C143.588 396.789 128.012 374.961 108.798 374.961C89.5838 374.961 74.0078 396.789 74.0078 423.715C74.0078 450.641 89.5838 472.468 108.798 472.468Z" fill="#D4DEFC" stroke="#171949" stroke-miterlimit="10"/>
<path d="M108.802 442.285C116.121 442.285 122.053 433.97 122.053 423.713C122.053 413.456 116.121 405.141 108.802 405.141C101.484 405.141 95.5508 413.456 95.5508 423.713C95.5508 433.97 101.484 442.285 108.802 442.285Z" fill="#171949" stroke="#171949" stroke-miterlimit="10"/>
<path d="M45.3136 379.491C48.3755 379.491 50.8576 376.79 50.8576 373.457C50.8576 370.124 48.3755 367.422 45.3136 367.422C42.2517 367.422 39.7695 370.124 39.7695 373.457C39.7695 376.79 42.2517 379.491 45.3136 379.491Z" fill="#171949" stroke="#171949" stroke-miterlimit="10"/>
<path d="M387.316 84.0586H606.693V397.305H387.316V84.0586Z" fill="#B7C9F9" stroke="#171949" stroke-miterlimit="10"/>
<path d="M338.801 84.0586H455.555V397.305H338.801V84.0586Z" fill="#98B7F9" stroke="#171949" stroke-miterlimit="10"/>
<path d="M409.676 380.918H606.69V694.165H409.676V380.918Z" fill="#B7C9F9" stroke="#171949" stroke-miterlimit="10"/>
<path d="M296.984 380.918H409.685V694.165H296.984V380.918Z" fill="#98B7F9" stroke="#171949" stroke-miterlimit="10"/>
<path d="M390.49 407.223H316.169C310.796 407.223 306.441 411.963 306.441 417.811V657.276C306.441 663.123 310.796 667.864 316.169 667.864H390.49C395.862 667.864 400.217 663.123 400.217 657.276V417.811C400.217 411.963 395.862 407.223 390.49 407.223Z" stroke="#171949" stroke-miterlimit="10"/>
<path d="M536.37 363.595C567.372 363.595 592.505 328.376 592.505 284.932C592.505 241.488 567.372 206.27 536.37 206.27C505.367 206.27 480.234 241.488 480.234 284.932C480.234 328.376 505.367 363.595 536.37 363.595Z" fill="#D4DEFC" stroke="#171949" stroke-miterlimit="10"/>
<path d="M536.357 314.891C548.169 314.891 557.745 301.476 557.745 284.928C557.745 268.38 548.169 254.965 536.357 254.965C524.545 254.965 514.969 268.38 514.969 284.928C514.969 301.476 524.545 314.891 536.357 314.891Z" fill="#171949" stroke="#171949" stroke-miterlimit="10"/>
<path d="M536.365 188.943C554.266 188.943 568.777 168.609 568.777 143.526C568.777 118.443 554.266 98.1094 536.365 98.1094C518.464 98.1094 503.953 118.443 503.953 143.526C503.953 168.609 518.464 188.943 536.365 188.943Z" fill="#D4DEFC" stroke="#171949" stroke-miterlimit="10"/>
<path d="M536.36 160.825C543.181 160.825 548.709 153.079 548.709 143.524C548.709 133.969 543.181 126.223 536.36 126.223C529.54 126.223 524.012 133.969 524.012 143.524C524.012 153.079 529.54 160.825 536.36 160.825Z" fill="#171949" stroke="#171949" stroke-miterlimit="10"/>
<path d="M595.516 102.321C598.368 102.321 600.68 99.8044 600.68 96.6997C600.68 93.595 598.368 91.0781 595.516 91.0781C592.664 91.0781 590.352 93.595 590.352 96.6997C590.352 99.8044 592.664 102.321 595.516 102.321Z" fill="#171949" stroke="#171949" stroke-miterlimit="10"/>
<path d="M508.404 645.457C554.85 645.457 592.503 597.036 592.503 537.306C592.503 477.577 554.85 429.156 508.404 429.156C461.957 429.156 424.305 477.577 424.305 537.306C424.305 597.036 461.957 645.457 508.404 645.457Z" fill="#ABCEF4" stroke="#171949" stroke-miterlimit="10"/>
<path d="M508.404 645.457C554.85 645.457 592.503 597.036 592.503 537.306C592.503 477.577 554.85 429.156 508.404 429.156C461.957 429.156 424.305 477.577 424.305 537.306C424.305 597.036 461.957 645.457 508.404 645.457Z" fill="#D4DEFC" stroke="#171949" stroke-miterlimit="10"/>
<path d="M508.412 583.203C528.12 583.203 544.097 562.656 544.097 537.31C544.097 511.965 528.12 491.418 508.412 491.418C488.703 491.418 472.727 511.965 472.727 537.31C472.727 562.656 488.703 583.203 508.412 583.203Z" fill="#171949" stroke="#171949" stroke-miterlimit="10"/>
<path d="M432.478 415.101C436.991 415.101 440.65 411.118 440.65 406.205C440.65 401.292 436.991 397.309 432.478 397.309C427.964 397.309 424.305 401.292 424.305 406.205C424.305 411.118 427.964 415.101 432.478 415.101Z" fill="#171949" stroke="#171949" stroke-miterlimit="10"/>
<path d="M430.498 138.449C430.494 138.436 430.486 138.424 430.475 138.415C430.464 138.407 430.451 138.402 430.438 138.402C430.424 138.402 430.411 138.407 430.4 138.415C430.389 138.424 430.381 138.436 430.377 138.449C428.572 140.789 418.314 143.744 418.314 143.744L418.185 143.837C412.72 145.576 405.822 147.431 398.266 149.123C383.811 152.359 371.333 154.035 366.599 153.529C366.749 155.743 366.892 157.996 367.035 160.265V160.351C368.139 177.816 369.098 196.17 369.449 203.148V203.428C369.492 204.208 369.521 204.847 369.543 205.292V205.432V205.939V206.087C369.543 206.087 323.7 176.459 297.914 157.747C272.128 139.034 251.355 149.17 251.355 149.17L286.453 267.682C286.453 267.682 368.826 295.751 405.357 282.496C434.144 279.44 430.663 144.391 430.498 138.449Z" fill="#EA7F98" stroke="#171949" stroke-miterlimit="10"/>
<path d="M430.511 137.858C430.282 136.642 425.117 136.665 417.281 137.695C417.582 139.659 417.883 141.694 418.184 143.784C425.898 141.344 430.747 139.114 430.511 137.858Z" fill="#171949" stroke="#171949" stroke-miterlimit="10"/>
<path d="M381.782 281.709C381.782 281.709 576.611 241.165 565.867 337.846C555.123 434.528 509.997 606.058 509.997 606.058L382.498 676.23L459.857 368.254L280.069 365.135L251.418 298.083L381.782 281.709Z" fill="#6C9ED8" stroke="#171949" stroke-miterlimit="10"/>
<path d="M313.727 298.088C313.727 298.088 454.835 578.774 371.03 609.182C295.376 636.635 108.87 607.623 108.87 607.623L95.9766 484.432L292.955 513.281L241.977 365.211C241.977 365.211 289.803 286.19 313.727 298.088Z" fill="#6C9ED8"/>
<path d="M325.804 323.342C358.087 393.007 439.435 584.373 371.03 609.182C295.376 636.635 108.87 607.623 108.87 607.623L95.9766 484.432L292.955 513.281L241.977 365.211C241.977 365.211 289.803 286.19 313.727 298.088" stroke="#171949" stroke-miterlimit="10"/>
<path d="M191.254 194.386L244.975 375.273C273.627 299.643 381.786 281.711 381.786 281.711L251.422 149.164C251.422 149.164 210.594 162.419 191.254 194.386Z" fill="#EA7F98"/>
<path d="M251.41 149.164C251.41 149.164 210.582 162.419 191.242 194.386L244.964 375.273C273.615 299.643 381.774 281.711 381.774 281.711L280.907 179.182" stroke="#171949" stroke-miterlimit="10"/>
<path d="M322.242 300.428C320.344 293.544 300.26 280.936 270.419 285.614C240.579 290.292 245.836 240.673 252.799 226.826C259.761 212.979 268.958 210.71 254.632 211.856C254.632 211.856 226.776 214.086 218.875 248.938C213.267 273.701 208.661 282.768 170.361 291.696C151.051 295.311 133.759 306.876 122.07 323.993C110.381 341.11 105.191 362.466 107.575 383.635C109.959 404.805 119.736 424.164 134.877 437.7C150.019 451.236 169.365 457.912 188.906 456.342C216.311 454.151 241.388 438.815 253.2 414.145C260.234 400.634 268.17 379.769 272.439 349.759C279.036 309.387 324.148 307.313 322.242 300.428Z" fill="#171949" stroke="#171949" stroke-miterlimit="10"/>
<path d="M404.734 63.3086L423.445 80.8083L193.591 372L174.88 354.501L404.734 63.3086Z" fill="#FCF8DE" stroke="#171949" stroke-miterlimit="10"/>
<path d="M371.492 111.914L384.308 123.901L210.653 343.897L197.836 331.911L371.492 111.914Z" fill="#FCF8DE" stroke="#171949" stroke-miterlimit="10"/>
<path d="M369.031 121.508L376.36 128.362L217.782 329.258L210.453 322.403L369.031 121.508Z" fill="#FCF8DE" stroke="#171949" stroke-miterlimit="10"/>
<path d="M409.573 98.369L390.863 80.8728L431.799 2.90426C432.13 2.27854 432.617 1.76834 433.205 1.43344C433.792 1.09855 434.455 0.952835 435.116 1.01339C435.776 1.07394 436.408 1.33824 436.935 1.77532C437.463 2.2124 437.865 2.80416 438.095 3.48123L455.236 54.4337C455.729 55.8917 455.777 57.4838 455.373 58.9738C454.969 60.4639 454.135 61.7727 452.994 62.7062L409.573 98.369Z" fill="#171949" stroke="#171949" stroke-miterlimit="10"/>
<path d="M141.949 357.785L153.673 346.653L194.365 397.428L182.642 408.561L141.949 357.785Z" fill="#FCF8DE" stroke="#171949" stroke-miterlimit="10"/>
<path d="M198.402 425.17C203.544 425.17 207.713 420.632 207.713 415.034C207.713 409.436 203.544 404.898 198.402 404.898C193.259 404.898 189.09 409.436 189.09 415.034C189.09 420.632 193.259 425.17 198.402 425.17Z" fill="#FCF8DE" stroke="#171949" stroke-miterlimit="10"/>
<path d="M398.261 149.093C405.818 147.401 412.715 145.545 418.181 143.807C415.272 123.535 412.192 108.573 411.147 106.288C407.565 98.4912 363.005 119.348 363.872 123.441C364.667 127.199 365.663 139.51 366.594 153.529C371.328 154.005 383.806 152.329 398.261 149.093Z" fill="#F9C0C0" stroke="#171949" stroke-miterlimit="10"/>
<path d="M239.148 156.042C238.876 155.574 238.596 155.106 238.31 154.646C236.304 155.613 234.141 156.72 231.863 157.952L217.745 128.121L199.172 141.189L211.184 171.822C207.892 174.531 204.758 177.461 201.801 180.594L202.223 181.374C212.638 199.377 227.608 204.523 237.801 197.537C247.994 190.551 249.563 174.045 239.148 156.042Z" fill="#F9C0C0" stroke="#171949" stroke-miterlimit="10"/>
<path d="M190.875 119.805L221.075 105.777L231.291 131.837C232.054 133.782 232.457 135.872 232.478 137.988C232.499 140.103 232.136 142.202 231.412 144.165C230.687 146.128 229.615 147.916 228.255 149.427C226.896 150.939 225.276 152.144 223.489 152.975L206.9 160.68L190.875 119.805Z" fill="#F9C0C0"/>
<path d="M206.885 160.675L190.891 119.796L221.089 105.762L231.311 131.827C232.073 133.771 232.476 135.861 232.497 137.975C232.518 140.09 232.156 142.188 231.431 144.15C230.707 146.112 229.634 147.9 228.275 149.411C226.916 150.922 225.297 152.126 223.51 152.956L218.912 155.092" stroke="#171949" stroke-miterlimit="10"/>
<path d="M227.976 149.719C226.676 151.092 225.153 152.192 223.485 152.962L218.887 155.099C218.887 155.099 222.769 157.742 229.932 154.623C229.176 153.04 228.523 151.401 227.976 149.719Z" fill="#171949" stroke="#171949" stroke-miterlimit="10"/>
<path d="M200.568 100.83C200.568 100.83 181.228 110.186 184.094 131.238C185.526 145.272 172.633 135.136 166.903 142.153C161.172 149.17 163.321 154.628 165.47 158.527C167.619 162.425 164.754 168.663 157.591 167.883C150.428 167.103 146.847 176.459 151.861 186.595C157.591 183.477 207.015 160.866 207.015 160.866C207.015 160.866 199.136 141.374 200.568 135.916C202.001 130.458 204.866 146.052 208.447 145.272C212.029 144.492 197.302 122.427 209.679 114.747C222.057 107.067 208.447 96.1518 200.568 100.83Z" fill="#85DEED" stroke="#171949" stroke-miterlimit="10"/>
<path d="M397.545 107.845C397.545 107.845 395.396 82.1155 383.219 74.3186C380.354 70.4202 399.694 53.2671 411.871 108.625" fill="#F9C0C0"/>
<path d="M397.545 107.845C397.545 107.845 395.396 82.1155 383.219 74.3186C380.354 70.4202 399.694 53.2671 411.871 108.625" stroke="#171949" stroke-miterlimit="10"/>
<path d="M202.707 110.964C202.707 110.964 214.884 115.642 224.912 133.575C234.94 151.508 250.698 142.931 252.131 131.236C257.861 132.796 267.173 121.1 261.443 110.964C255.712 100.828 245.684 102.388 242.103 110.185C234.224 103.168 217.749 88.3535 198.016 102.325" fill="#85DEED"/>
<path d="M202.707 110.964C202.707 110.964 214.884 115.642 224.912 133.575C234.94 151.508 250.698 142.931 252.131 131.236C257.861 132.796 267.173 121.1 261.443 110.964C255.712 100.828 245.684 102.388 242.103 110.185C234.224 103.168 217.749 88.3535 198.016 102.325" stroke="#171949" stroke-miterlimit="10"/>
<path d="M196.63 186.594C196.63 186.594 176.187 210.764 158.28 283.275C140.373 355.786 122.466 383.075 309.416 396.329C309.416 396.329 328.04 400.228 324.458 355.786C322.309 340.972 330.189 336.293 319.444 332.395C308.7 328.497 204.122 315.242 204.122 315.242L220.597 243.511" fill="#F9C0C0"/>
<path d="M196.63 186.594C196.63 186.594 176.187 210.764 158.28 283.275C140.373 355.786 122.466 383.075 309.416 396.329C309.416 396.329 328.04 400.228 324.458 355.786C322.309 340.972 330.189 336.293 319.444 332.395C308.7 328.497 204.122 315.242 204.122 315.242L220.597 243.511" stroke="#171949" stroke-miterlimit="10"/>
<path d="M381.072 112.521C381.072 112.521 383.937 92.2494 376.058 79.7745C373.909 83.6729 365.313 85.2323 363.881 78.2151C362.448 71.1979 368.336 62.021 378.923 64.1807C390.383 66.5198 399.695 89.1307 399.695 109.403" fill="#F9C0C0"/>
<path d="M381.072 112.521C381.072 112.521 383.937 92.2494 376.058 79.7745C373.909 83.6729 365.313 85.2323 363.881 78.2151C362.448 71.1979 368.336 62.021 378.923 64.1807C390.383 66.5198 399.695 89.1307 399.695 109.403" stroke="#171949" stroke-miterlimit="10"/>
<path d="M374.623 117.983C374.623 117.983 361.729 99.27 355.283 100.829C348.836 102.389 353.134 87.5748 363.878 86.7951C374.623 86.0154 385.367 95.3716 388.232 113.304" fill="#F9C0C0"/>
<path d="M374.623 117.983C374.623 117.983 361.729 99.27 355.283 100.829C348.836 102.389 353.134 87.5748 363.878 86.7951C374.623 86.0154 385.367 95.3716 388.232 113.304" stroke="#171949" stroke-miterlimit="10"/>
<path d="M378.923 119.537C378.923 119.537 372.477 93.8074 356.718 96.1464C340.96 98.4855 343.825 119.537 349.556 122.656C355.286 125.774 361.016 118.757 359.584 114.859C358.867 111.74 363.351 116.629 364.691 129.384" fill="#F9C0C0"/>
<path d="M378.923 119.537C378.923 119.537 372.477 93.8074 356.718 96.1464C340.96 98.4855 343.825 119.537 349.556 122.656C355.286 125.774 361.016 118.757 359.584 114.859C358.867 111.74 363.351 116.629 364.691 129.384" stroke="#171949" stroke-miterlimit="10"/>
<path d="M300.133 395.548C345.975 401.786 343.826 386.972 343.826 386.972L320.189 384.633" fill="#F9C0C0"/>
<path d="M300.133 395.548C345.975 401.786 343.826 386.972 343.826 386.972L320.189 384.633" stroke="#171949" stroke-miterlimit="10"/>
<path d="M317.32 387.75C375.339 401.005 362.446 368.258 362.446 368.258C362.446 368.258 330.213 377.614 319.469 372.156" fill="#F9C0C0"/>
<path d="M317.32 387.75C375.339 401.005 362.446 368.258 362.446 368.258C362.446 368.258 330.213 377.614 319.469 372.156" stroke="#171949" stroke-miterlimit="10"/>
<path d="M320.19 363.579C320.19 363.579 356.72 359.681 359.585 351.104C368.181 349.545 371.046 363.579 365.316 369.817C355.187 380.842 330.934 380.732 315.176 377.614" fill="#F9C0C0"/>
<path d="M320.19 363.579C320.19 363.579 356.72 359.681 359.585 351.104C368.181 349.545 371.046 363.579 365.316 369.817C355.187 380.842 330.934 380.732 315.176 377.614" stroke="#171949" stroke-miterlimit="10"/>
<path d="M317.406 350.027C317.406 350.027 343.622 354.346 347.591 350.027C343.622 347.43 345.979 337.856 353.944 337.918C360.348 337.973 368.9 346.432 361.107 357.808C354.51 367.437 325.364 369.917 313.445 367.32" fill="#F9C0C0"/>
<path d="M317.406 350.027C317.406 350.027 343.622 354.346 347.591 350.027C343.622 347.43 345.979 337.856 353.944 337.918C360.348 337.973 368.9 346.432 361.107 357.808C354.51 367.437 325.364 369.917 313.445 367.32" stroke="#171949" stroke-miterlimit="10"/>
<path d="M308.438 329.989C308.438 329.989 329.496 333.95 330.929 330.052C332.361 326.153 339.524 326.153 340.957 330.831C342.389 335.51 333.078 355.002 315.887 353.442" fill="#F9C0C0"/>
<path d="M308.438 329.989C308.438 329.989 329.496 333.95 330.929 330.052C332.361 326.153 339.524 326.153 340.957 330.831C342.389 335.51 333.078 355.002 315.887 353.442" stroke="#171949" stroke-miterlimit="10"/>
<path d="M401.122 602.166C401.122 602.166 433.448 637.252 464.871 606.064C474.369 597.488 456.992 558.504 498.537 562.402C524.323 563.961 523.607 581.114 515.011 618.539C513.579 631.794 606.696 598.268 611.71 695.728H377.484L401.122 602.166Z" fill="#FFDA66" stroke="#171949" stroke-miterlimit="10"/>
<path d="M467.873 598.938C466.985 610.243 467.587 648.058 515.721 647.387C572.307 646.608 575.173 647.387 575.173 647.387L585.838 636.604C556.807 614.929 514.03 627.552 515.005 618.539C523.6 581.114 524.316 563.961 498.53 562.402C464.435 559.205 470.022 584.88 467.873 598.938Z" fill="#FFDA66" stroke="#171949" stroke-miterlimit="10"/>
<path d="M581.589 633.746C572.277 638.713 557.335 649.605 551.505 670.282C550.997 672.021 549.994 673.538 548.64 674.614C547.286 675.689 545.652 676.267 543.976 676.262H382.139L377.469 695.755H611.694C609.918 661.394 597.239 643.321 581.589 633.746Z" fill="#FCF8DE" stroke="#171949" stroke-miterlimit="10"/>
<path d="M569.279 627.945C569.279 627.945 551.544 630.23 545.098 654.4" stroke="#171949" stroke-miterlimit="10"/>
<path d="M552.808 624.043C552.808 624.043 535.789 623.988 527.91 654.396" stroke="#171949" stroke-miterlimit="10"/>
<path d="M535.613 622.484C535.613 622.484 518.594 622.43 510.715 652.838" stroke="#171949" stroke-miterlimit="10"/>
<path d="M516.996 620.926C516.996 620.926 499.977 620.871 492.098 651.279" stroke="#171949" stroke-miterlimit="10"/>
<path d="M545.815 654.408C546.607 654.408 547.248 653.71 547.248 652.848C547.248 651.987 546.607 651.289 545.815 651.289C545.024 651.289 544.383 651.987 544.383 652.848C544.383 653.71 545.024 654.408 545.815 654.408Z" fill="#171949" stroke="#171949" stroke-miterlimit="10"/>
<path d="M527.901 654.408C528.693 654.408 529.334 653.71 529.334 652.848C529.334 651.987 528.693 651.289 527.901 651.289C527.11 651.289 526.469 651.987 526.469 652.848C526.469 653.71 527.11 654.408 527.901 654.408Z" fill="#171949" stroke="#171949" stroke-miterlimit="10"/>
<path d="M510.706 654.408C511.497 654.408 512.139 653.71 512.139 652.848C512.139 651.987 511.497 651.289 510.706 651.289C509.915 651.289 509.273 651.987 509.273 652.848C509.273 653.71 509.915 654.408 510.706 654.408Z" fill="#171949" stroke="#171949" stroke-miterlimit="10"/>
<path d="M492.089 652.849C492.88 652.849 493.521 652.151 493.521 651.29C493.521 650.429 492.88 649.73 492.089 649.73C491.298 649.73 490.656 650.429 490.656 651.29C490.656 652.151 491.298 652.849 492.089 652.849Z" fill="#171949" stroke="#171949" stroke-miterlimit="10"/>
<path d="M121.771 488.333C121.771 488.333 85.7423 523.216 113.699 558.115C121.37 568.64 157.557 550.583 153.059 595.711C151.06 623.741 135.324 622.579 101.142 612.404C88.9656 610.556 117.746 712.625 28.1172 715.939L32.9521 475.094L121.771 488.333Z" fill="#FFDA66" stroke="#171949" stroke-miterlimit="10"/>
<path d="M120.18 561.524C109.815 560.308 75.0537 560.128 74.6239 612.531C74.1011 674.126 73.3203 677.245 73.3203 677.245L82.9902 689.096C103.54 657.979 92.8749 611.128 101.141 612.406C135.322 622.542 151.059 623.743 153.057 595.713C156.746 558.655 133.044 564.167 120.18 561.524Z" fill="#FFDA66" stroke="#171949" stroke-miterlimit="10"/>
<path d="M31.4408 715.752L33.4893 715.596L34.0122 715.549C34.8359 715.479 35.6453 715.393 36.4476 715.299L37.0063 715.229L38.9044 714.98L39.5348 714.894C40.3155 714.777 41.082 714.652 41.8412 714.52H42.0203C42.7366 714.395 43.4099 714.262 44.0904 714.122L44.6992 713.997L46.5257 713.584L46.891 713.498C47.6073 713.327 48.3236 713.147 48.9826 712.968L49.484 712.828L51.1099 712.352L51.6185 712.196C52.2775 711.993 52.9365 711.783 53.5811 711.557L53.8175 711.471C54.3905 711.276 54.9492 711.066 55.5079 710.855L56.0022 710.668C56.5609 710.45 57.1124 710.231 57.6496 710.005L57.8502 709.92C58.459 709.662 59.0535 709.397 59.6337 709.14L60.0563 708.937C60.5291 708.719 60.9947 708.485 61.4889 708.259L61.8614 708.072C62.4272 707.783 62.9788 707.487 63.5232 707.183L63.7667 707.05C64.2323 706.785 64.6979 706.52 65.1491 706.271L65.5431 706.037C66.0517 705.725 66.5602 705.413 67.0545 705.093C67.563 704.766 68.0644 704.423 68.5587 704.072L68.8953 703.838C69.3036 703.549 69.7047 703.253 70.1058 702.949L70.3565 702.762C70.8293 702.403 71.2949 702.037 71.7461 701.663L71.9538 701.491C72.3406 701.171 72.7274 700.852 73.1071 700.517L73.3936 700.267C74.2579 699.493 75.0959 698.713 75.9077 697.928L76.1656 697.671C76.5166 697.312 76.8819 696.946 77.2042 696.579L77.3475 696.423C77.7343 696.002 78.1211 695.573 78.4935 695.144L78.6583 694.95C78.9734 694.575 79.2886 694.17 79.5966 693.819L79.8043 693.569C80.5063 692.686 81.1844 691.789 81.8386 690.88C81.8959 690.794 81.9604 690.708 82.0177 690.614C82.3257 690.186 82.6193 689.757 82.913 689.312L82.9632 689.242C83.2712 688.767 83.5792 688.291 83.88 687.808L84.0089 687.605C84.2668 687.184 84.5175 686.755 84.7682 686.334L84.8828 685.983C85.1693 685.492 85.4487 685.001 85.7208 684.502C81.3658 674.257 71.6888 657.759 52.829 650.936C51.2423 650.346 49.87 649.22 48.9115 647.723C47.9531 646.225 47.4586 644.434 47.4999 642.609L50.8234 477.737L32.9664 475.078L28.1172 715.923C28.9982 715.923 29.8649 715.845 30.7245 715.798L31.4408 715.752Z" fill="#FCF8DE" stroke="#171949" stroke-miterlimit="10"/>
<path d="M91.3243 671.235C91.3243 671.235 89.6124 651.883 67.5508 644.336" stroke="#171949" stroke-miterlimit="10"/>
<path d="M95.2397 653.39C95.2397 653.39 95.6623 634.872 67.9062 625.633" stroke="#171949" stroke-miterlimit="10"/>
<path d="M97.06 634.718C97.06 634.718 97.4826 616.2 69.7266 606.961" stroke="#171949" stroke-miterlimit="10"/>
<path d="M98.8959 614.483C98.8959 614.483 99.3186 595.966 71.5625 586.727" stroke="#171949" stroke-miterlimit="10"/>
<path d="M68.9521 646.709C69.7433 646.709 70.3847 646.01 70.3847 645.149C70.3847 644.288 69.7433 643.59 68.9521 643.59C68.1609 643.59 67.5195 644.288 67.5195 645.149C67.5195 646.01 68.1609 646.709 68.9521 646.709Z" fill="#171949" stroke="#171949" stroke-miterlimit="10"/>
<path d="M69.3466 627.224C70.1378 627.224 70.7792 626.526 70.7792 625.665C70.7792 624.804 70.1378 624.105 69.3466 624.105C68.5554 624.105 67.9141 624.804 67.9141 625.665C67.9141 626.526 68.5554 627.224 69.3466 627.224Z" fill="#171949" stroke="#171949" stroke-miterlimit="10"/>
<path d="M69.7255 608.521C70.5167 608.521 71.1581 607.823 71.1581 606.962C71.1581 606.1 70.5167 605.402 69.7255 605.402C68.9344 605.402 68.293 606.1 68.293 606.962C68.293 607.823 68.9344 608.521 69.7255 608.521Z" fill="#171949" stroke="#171949" stroke-miterlimit="10"/>
<path d="M71.5615 588.287C72.3527 588.287 72.994 587.589 72.994 586.727C72.994 585.866 72.3527 585.168 71.5615 585.168C70.7703 585.168 70.1289 585.866 70.1289 586.727C70.1289 587.589 70.7703 588.287 71.5615 588.287Z" fill="#171949" stroke="#171949" stroke-miterlimit="10"/>
<path d="M285.37 394.446C285.747 385.413 286.565 376.408 287.82 367.469C290.162 350.269 293.55 335.502 296.552 328.009C262.557 322.645 204.151 315.238 204.151 315.238L220.625 243.507L208.076 213.816L196.615 186.59C196.615 186.59 176.173 210.76 158.266 283.271C151.174 311.987 144.083 333.615 149.72 350.082C163.122 391.92 283.3 413.447 287.784 414.235C287.79 414.232 287.795 414.227 287.799 414.22C287.803 414.214 287.804 414.207 287.804 414.2C287.804 414.192 287.803 414.185 287.799 414.179C287.795 414.173 287.79 414.168 287.784 414.165C285.034 411.506 285.736 394.766 285.736 394.766" fill="#EA7F98"/>
<path d="M196.623 186.594C196.623 186.594 176.18 210.764 158.273 283.275C151.182 311.991 144.091 333.619 149.728 350.086C163.13 391.924 283.308 413.451 287.792 414.239C287.798 414.235 287.803 414.23 287.807 414.224C287.81 414.218 287.812 414.211 287.812 414.204C287.812 414.196 287.81 414.189 287.807 414.183C287.803 414.177 287.798 414.172 287.792 414.168C285.042 411.51 285.743 394.77 285.743 394.77" stroke="#171949" stroke-miterlimit="10"/>
<path d="M285.372 394.447C285.749 385.414 286.567 376.409 287.822 367.47C290.164 350.27 293.552 335.503 296.553 328.01C262.558 322.646 204.152 315.239 204.152 315.239L220.627 243.508" stroke="#171949" stroke-miterlimit="10"/>
<path d="M287.954 414.261C290.103 414.612 293.118 407.088 295.905 395.315C292.309 395.034 288.797 394.745 285.368 394.449C284.96 406.129 285.819 413.918 287.954 414.261Z" fill="#171949" stroke="#171949" stroke-miterlimit="10"/>
<path d="M0 716H203.425H0Z" fill="#F9C0C0"/>
<path d="M0 716H203.425" stroke="#171949" stroke-miterlimit="10"/>
<path d="M77.7148 695.727H639.999H77.7148Z" fill="#F9C0C0"/>
<path d="M77.7148 695.727H639.999" stroke="#171949" stroke-miterlimit="10"/>
<path d="M532.618 615.07C532.618 615.07 547.531 572.788 564.944 583.883C583.811 595.906 529.975 626.048 532.618 615.07Z" stroke="#171949" stroke-miterlimit="10"/>
<path d="M534.807 617.174C534.807 617.174 568.801 591.054 554.648 575.414C539.305 558.448 525.674 622.663 534.807 617.174Z" stroke="#171949" stroke-miterlimit="10"/>
<path d="M105.453 635.801C105.453 635.801 146.997 638.545 142.513 659.971C137.671 683.159 95.0381 636.362 105.453 635.801Z" stroke="#171949" stroke-miterlimit="10"/>
<path d="M104.262 638.707C104.262 638.707 137.39 666.121 146.831 646.714C157.067 625.686 96.7054 630.879 104.262 638.707Z" stroke="#171949" stroke-miterlimit="10"/>
<path d="M92.6544 515.051C93.572 506.497 86.8304 498.611 77.5967 497.437C68.363 496.263 60.1337 502.247 59.2161 510.801C58.2985 519.355 65.0401 527.24 74.2738 528.414C83.5075 529.588 91.7368 523.605 92.6544 515.051Z" fill="white" stroke="#171949" stroke-miterlimit="10"/>
<path d="M158.306 438.43C158.306 438.43 136.101 498.465 198.418 512.5C248.099 523.688 296.656 596.706 241.094 695.726" stroke="#171949" stroke-miterlimit="10"/>
<path d="M365.302 135.133L219.18 317.579L365.302 135.133Z" fill="#FCF8DE"/>
<path d="M365.302 135.133L219.18 317.579" stroke="#171949" stroke-miterlimit="10"/>
</svg>
