<svg width="400" height="430" viewBox="0 0 400 430" fill="none" xmlns="http://www.w3.org/2000/svg">
<path opacity="0.6" d="M44.3789 25.5547L89.8655 202.739L207.503 140.409L97.2599 25.5547H44.3789Z" fill="#FCF4E0"/>
<path opacity="0.6" d="M118.129 28.5469L228.349 135.696L245.003 116.129L118.129 28.5469Z" fill="white"/>
<path opacity="0.6" d="M34.3789 36.9475L48.6646 248.83L81.2537 215.694L37.5039 28.5469L34.3789 36.9475Z" fill="white"/>
<path d="M168.129 417.031H21.2545V215.903H168.129V417.031Z" fill="#B7C9F9" stroke="#171949" stroke-miterlimit="10"/>
<path d="M168.129 417.031H113.129V215.903H168.129V417.031Z" fill="#98B7F9" stroke="#171949" stroke-miterlimit="10"/>
<path d="M68.4413 395.483C89.3245 395.483 106.254 372.837 106.254 344.902C106.254 316.966 89.3245 294.32 68.4413 294.32C47.5581 294.32 30.6289 316.966 30.6289 344.902C30.6289 372.837 47.5581 395.483 68.4413 395.483Z" fill="#D4DEFC" stroke="#171949" stroke-miterlimit="10"/>
<path d="M68.1289 363.755C76.0679 363.755 82.5038 355.179 82.5038 344.6C82.5038 334.021 76.0679 325.445 68.1289 325.445C60.1898 325.445 53.7539 334.021 53.7539 344.6C53.7539 355.179 60.1898 363.755 68.1289 363.755Z" fill="#171949" stroke="#171949" stroke-miterlimit="10"/>
<path d="M68.1327 283.537C80.2139 283.537 90.0076 270.405 90.0076 254.206C90.0076 238.007 80.2139 224.875 68.1327 224.875C56.0515 224.875 46.2578 238.007 46.2578 254.206C46.2578 270.405 56.0515 283.537 68.1327 283.537Z" fill="#D4DEFC" stroke="#171949" stroke-miterlimit="10"/>
<path d="M68.4414 264.992C73.1013 264.992 76.8788 260.034 76.8788 253.918C76.8788 247.802 73.1013 242.844 68.4414 242.844C63.7815 242.844 60.0039 247.802 60.0039 253.918C60.0039 260.034 63.7815 264.992 68.4414 264.992Z" fill="#171949" stroke="#171949" stroke-miterlimit="10"/>
<path d="M28.4414 227.269C30.3399 227.269 31.8789 225.661 31.8789 223.678C31.8789 221.694 30.3399 220.086 28.4414 220.086C26.5429 220.086 25.0039 221.694 25.0039 223.678C25.0039 225.661 26.5429 227.269 28.4414 227.269Z" fill="#171949" stroke="#171949" stroke-miterlimit="10"/>
<path d="M241.879 50.6875H378.753V238.048H241.879V50.6875Z" fill="#B7C9F9" stroke="#171949" stroke-miterlimit="10"/>
<path d="M211.879 50.6875H285.004V238.048H211.879V50.6875Z" fill="#98B7F9" stroke="#171949" stroke-miterlimit="10"/>
<path d="M256.25 228.477H379.375V415.837H256.25V228.477Z" fill="#B7C9F9" stroke="#171949" stroke-miterlimit="10"/>
<path d="M185.629 228.477H256.254V415.837H185.629V228.477Z" fill="#98B7F9" stroke="#171949" stroke-miterlimit="10"/>
<path d="M243.914 244.031H197.352C193.986 244.031 191.258 246.873 191.258 250.378V393.918C191.258 397.423 193.986 400.265 197.352 400.265H243.914C247.279 400.265 250.008 397.423 250.008 393.918V250.378C250.008 246.873 247.279 244.031 243.914 244.031Z" stroke="#171949" stroke-miterlimit="10"/>
<path d="M335.004 217.69C354.334 217.69 370.004 196.652 370.004 170.701C370.004 144.749 354.334 123.711 335.004 123.711C315.674 123.711 300.004 144.749 300.004 170.701C300.004 196.652 315.674 217.69 335.004 217.69Z" fill="#D4DEFC" stroke="#171949" stroke-miterlimit="10"/>
<path d="M335.312 188.963C342.734 188.963 348.75 180.923 348.75 171.005C348.75 161.087 342.734 153.047 335.312 153.047C327.891 153.047 321.875 161.087 321.875 171.005C321.875 180.923 327.891 188.963 335.312 188.963Z" fill="#171949" stroke="#171949" stroke-miterlimit="10"/>
<path d="M335.312 113.543C346.531 113.543 355.625 101.349 355.625 86.3064C355.625 71.2643 346.531 59.0703 335.312 59.0703C324.094 59.0703 315 71.2643 315 86.3064C315 101.349 324.094 113.543 335.312 113.543Z" fill="#D4DEFC" stroke="#171949" stroke-miterlimit="10"/>
<path d="M335.312 96.779C339.627 96.779 343.125 92.089 343.125 86.3035C343.125 80.5181 339.627 75.8281 335.312 75.8281C330.998 75.8281 327.5 80.5181 327.5 86.3035C327.5 92.089 330.998 96.779 335.312 96.779Z" fill="#171949" stroke="#171949" stroke-miterlimit="10"/>
<path d="M371.875 61.4674C373.601 61.4674 375 59.9934 375 58.1751C375 56.3568 373.601 54.8828 371.875 54.8828C370.149 54.8828 368.75 56.3568 368.75 58.1751C368.75 59.9934 370.149 61.4674 371.875 61.4674Z" fill="#171949" stroke="#171949" stroke-miterlimit="10"/>
<path d="M317.504 386.5C346.499 386.5 370.003 357.556 370.003 321.851C370.003 286.147 346.499 257.203 317.504 257.203C288.509 257.203 265.004 286.147 265.004 321.851C265.004 357.556 288.509 386.5 317.504 386.5Z" fill="#ABCEF4" stroke="#171949" stroke-miterlimit="10"/>
<path d="M317.504 386.5C346.499 386.5 370.003 357.556 370.003 321.851C370.003 286.147 346.499 257.203 317.504 257.203C288.509 257.203 265.004 286.147 265.004 321.851C265.004 357.556 288.509 386.5 317.504 386.5Z" fill="#D4DEFC" stroke="#171949" stroke-miterlimit="10"/>
<path d="M317.812 349.391C330.066 349.391 340 337.063 340 321.856C340 306.648 330.066 294.32 317.812 294.32C305.559 294.32 295.625 306.648 295.625 321.856C295.625 337.063 305.559 349.391 317.812 349.391Z" fill="#171949" stroke="#171949" stroke-miterlimit="10"/>
<path d="M270.004 248.814C272.765 248.814 275.004 246.402 275.004 243.426C275.004 240.451 272.765 238.039 270.004 238.039C267.242 238.039 265.004 240.451 265.004 243.426C265.004 246.402 267.242 248.814 270.004 248.814Z" fill="#171949" stroke="#171949" stroke-miterlimit="10"/>
<path d="M268.624 83.0517C268.622 83.0434 268.617 83.0363 268.61 83.0312C268.603 83.0262 268.595 83.0234 268.587 83.0234C268.578 83.0234 268.57 83.0262 268.563 83.0312C268.556 83.0363 268.551 83.0434 268.549 83.0517C267.423 84.4552 261.025 86.2282 261.025 86.2282L260.944 86.2844C257.535 87.3276 253.233 88.441 248.519 89.4562C239.503 91.3977 231.72 92.4035 228.767 92.0994C228.86 93.428 228.95 94.78 229.039 96.1414V96.1929C229.727 106.672 230.326 117.685 230.545 121.872V122.04C230.572 122.508 230.589 122.892 230.603 123.158V123.242V123.546V123.635C230.603 123.635 202.008 105.858 185.924 94.6303C169.84 83.4026 156.883 89.4843 156.883 89.4843L178.775 160.593C178.775 160.593 230.156 177.435 252.942 169.482C270.899 167.648 268.727 86.6165 268.624 83.0517Z" fill="#EA7F98" stroke="#171949" stroke-miterlimit="10"/>
<path d="M268.749 82.9719C268.608 82.2279 265.438 82.2422 260.629 82.8717C260.814 84.0736 260.998 85.3183 261.183 86.5964C265.918 85.1037 268.894 83.7397 268.749 82.9719Z" fill="#171949" stroke="#171949" stroke-miterlimit="10"/>
<path d="M238.392 168.87C238.392 168.87 360.207 144.599 353.489 202.478C346.771 260.357 318.557 363.045 318.557 363.045L238.839 405.054L287.207 220.682L174.797 218.814L156.883 178.673L238.392 168.87Z" fill="#6C9ED8" stroke="#171949" stroke-miterlimit="10"/>
<path d="M196.26 178.918C196.26 178.918 284.558 346.871 232.117 365.066C184.777 381.493 68.0717 364.133 68.0717 364.133L60.0039 290.42L183.262 307.682L151.363 219.082C151.363 219.082 181.29 171.798 196.26 178.918Z" fill="#6C9ED8"/>
<path d="M203.809 194.029C224.009 235.714 274.909 350.221 232.107 365.066C184.77 381.493 68.0713 364.133 68.0713 364.133L60.0039 290.42L183.255 307.682L151.358 219.082C151.358 219.082 181.283 171.798 196.253 178.918" stroke="#171949" stroke-miterlimit="10"/>
<path d="M119.379 116.642L153.037 224.869C170.988 179.619 238.753 168.89 238.753 168.89L157.076 89.5859C157.076 89.5859 131.496 97.5163 119.379 116.642Z" fill="#EA7F98"/>
<path d="M157.076 89.5859C157.076 89.5859 131.496 97.5163 119.379 116.642L153.037 224.869C170.988 179.619 238.753 168.89 238.753 168.89L175.557 107.546" stroke="#171949" stroke-miterlimit="10"/>
<path d="M201.217 180.485C200.032 176.363 187.496 168.816 168.871 171.616C150.247 174.417 153.528 144.711 157.874 136.421C162.219 128.131 167.959 126.773 159.018 127.459C159.018 127.459 141.632 128.794 136.701 149.659C133.2 164.484 130.325 169.912 106.421 175.257C94.3684 177.421 83.5758 184.345 76.28 194.592C68.9842 204.84 65.7447 217.625 67.2329 230.299C68.7211 242.972 74.8229 254.562 84.2736 262.666C93.7243 270.769 105.799 274.765 117.995 273.826C135.1 272.514 150.752 263.333 158.124 248.564C162.514 240.475 167.468 227.984 170.132 210.018C174.25 185.848 202.406 184.607 201.217 180.485Z" fill="#171949" stroke="#171949" stroke-miterlimit="10"/>
<path d="M253.129 38.1094L264.997 48.7404L121.331 223.056L109.463 212.425L253.129 38.1094Z" fill="#FCF8DE" stroke="#171949" stroke-miterlimit="10"/>
<path d="M231.879 67.4453L240.095 74.8053L131.668 206.364L123.451 199.005L231.879 67.4453Z" fill="#FCF8DE" stroke="#171949" stroke-miterlimit="10"/>
<path d="M230.629 73.4297L235.194 77.5186L136.06 197.801L131.495 193.712L230.629 73.4297Z" fill="#FCF8DE" stroke="#171949" stroke-miterlimit="10"/>
<path d="M256.108 59.0638L244.375 48.6304L270.046 2.13556C270.254 1.76243 270.559 1.45818 270.928 1.25847C271.296 1.05877 271.712 0.971874 272.126 1.00798C272.541 1.04409 272.936 1.2017 273.267 1.46235C273.598 1.72299 273.851 2.07587 273.995 2.47962L284.744 32.864C285.053 33.7334 285.083 34.6828 284.83 35.5714C284.576 36.4599 284.053 37.2404 283.338 37.7971L256.108 59.0638Z" fill="#171949" stroke="#171949" stroke-miterlimit="10"/>
<path d="M88.7539 214.695L96.0054 208.1L121.411 238.462L114.159 245.057L88.7539 214.695Z" fill="#FCF8DE" stroke="#171949" stroke-miterlimit="10"/>
<path d="M124.07 254.8C127.349 254.8 130.008 252.12 130.008 248.814C130.008 245.508 127.349 242.828 124.07 242.828C120.791 242.828 118.133 245.508 118.133 248.814C118.133 252.12 120.791 254.8 124.07 254.8Z" fill="#FCF8DE" stroke="#171949" stroke-miterlimit="10"/>
<path d="M248.878 89.8807C253.573 88.8689 257.858 87.7593 261.254 86.7196C259.447 74.5974 257.533 65.6503 256.884 64.2842C254.658 59.6218 226.973 72.0937 227.512 74.5414C228.006 76.7887 228.624 84.1506 229.203 92.5336C232.144 92.818 239.897 91.8156 248.878 89.8807Z" fill="#F9C0C0" stroke="#171949" stroke-miterlimit="10"/>
<path d="M149.331 93.6329C149.161 93.3544 148.987 93.076 148.808 92.8022C147.556 93.3776 146.206 94.0366 144.785 94.7698L135.974 77.0156L124.383 84.7929L131.879 103.025C129.825 104.637 127.869 106.381 126.023 108.245L126.287 108.71C132.787 119.424 142.13 122.487 148.491 118.329C154.852 114.171 155.831 104.348 149.331 93.6329Z" fill="#F9C0C0" stroke="#171949" stroke-miterlimit="10"/>
<path d="M119.379 72.2422L138.084 63.9203L144.483 79.5536C144.961 80.7208 145.216 81.9735 145.234 83.2403C145.252 84.5072 145.032 85.7632 144.587 86.9368C144.142 88.1104 143.48 89.1785 142.64 90.0803C141.8 90.982 140.798 91.6996 139.691 92.1921L129.416 96.7633L119.379 72.2422Z" fill="#F9C0C0"/>
<path d="M129.47 96.7743L119.379 72.2657L138.431 63.8516L144.88 79.4785C145.361 80.6446 145.615 81.8972 145.628 83.1649C145.641 84.4326 145.413 85.6906 144.956 86.867C144.499 88.0433 143.822 89.1151 142.965 90.0209C142.107 90.9268 141.086 91.6491 139.959 92.1465L137.057 93.4274" stroke="#171949" stroke-miterlimit="10"/>
<path d="M142.541 90.1953C141.731 90.9631 140.783 91.5778 139.745 92.0083L136.883 93.2025C136.883 93.2025 139.299 94.6799 143.758 92.9366C143.288 92.0515 142.881 91.1355 142.541 90.1953Z" fill="#171949" stroke="#171949" stroke-miterlimit="10"/>
<path d="M125.591 60.9409C125.591 60.9409 113.53 66.5485 115.317 79.1655C116.211 87.5768 108.17 81.5019 104.596 85.7076C101.023 89.9133 102.363 93.1843 103.703 95.5208C105.043 97.8573 103.256 101.596 98.7891 101.128C94.322 100.661 92.0885 106.269 95.2154 112.343C98.7891 110.474 129.612 96.9227 129.612 96.9227C129.612 96.9227 124.698 85.2403 125.591 81.9692C126.485 78.6982 128.272 88.0441 130.505 87.5768C132.739 87.1095 123.554 73.885 131.274 69.2822C138.993 64.6793 130.505 58.1372 125.591 60.9409Z" fill="#85DEED" stroke="#171949" stroke-miterlimit="10"/>
<path d="M248.539 65.1788C248.539 65.1788 247.193 49.7303 239.566 45.049C237.771 42.7083 249.885 32.4093 257.512 65.647" fill="#F9C0C0"/>
<path d="M248.539 65.1788C248.539 65.1788 247.193 49.7303 239.566 45.049C237.771 42.7083 249.885 32.4093 257.512 65.647" stroke="#171949" stroke-miterlimit="10"/>
<path d="M126.68 67.0359C126.68 67.0359 134.265 69.816 140.511 80.473C146.757 91.13 156.572 86.0332 157.464 79.083C161.033 80.0097 166.833 73.0594 163.264 67.0359C159.695 61.0123 153.449 61.939 151.218 66.5725C146.31 62.4024 136.049 53.5988 123.758 61.902" fill="#85DEED"/>
<path d="M126.68 67.0359C126.68 67.0359 134.265 69.816 140.511 80.473C146.757 91.13 156.572 86.0332 157.464 79.083C161.033 80.0097 166.833 73.0594 163.264 67.0359C159.695 61.0123 153.449 61.939 151.218 66.5725C146.31 62.4024 136.049 53.5988 123.758 61.902" stroke="#171949" stroke-miterlimit="10"/>
<path d="M123.174 112.336C123.174 112.336 110.366 126.816 99.146 170.258C87.9264 213.699 76.7068 230.048 193.839 237.989C193.839 237.989 205.508 240.325 203.264 213.699C201.918 204.824 206.854 202.021 200.122 199.686C193.391 197.35 127.868 189.409 127.868 189.409L138.19 146.435" fill="#F9C0C0"/>
<path d="M123.174 112.336C123.174 112.336 110.366 126.816 99.146 170.258C87.9264 213.699 76.7068 230.048 193.839 237.989C193.839 237.989 205.508 240.325 203.264 213.699C201.918 204.824 206.854 202.021 200.122 199.686C193.391 197.35 127.868 189.409 127.868 189.409L138.19 146.435" stroke="#171949" stroke-miterlimit="10"/>
<path d="M238.381 68.0421C238.381 68.0421 240.17 55.8232 235.249 48.3038C233.907 50.6536 228.539 51.5936 227.645 47.3639C226.75 43.1343 230.427 37.6029 237.039 38.9046C244.196 40.3145 250.012 53.9433 250.012 66.1623" fill="#F9C0C0"/>
<path d="M238.381 68.0421C238.381 68.0421 240.17 55.8232 235.249 48.3038C233.907 50.6536 228.539 51.5936 227.645 47.3639C226.75 43.1343 230.427 37.6029 237.039 38.9046C244.196 40.3145 250.012 53.9433 250.012 66.1623" stroke="#171949" stroke-miterlimit="10"/>
<path d="M234.001 71.033C234.001 71.033 225.937 59.9152 221.906 60.8417C217.874 61.7682 220.562 52.9666 227.281 52.5033C234.001 52.0401 240.72 57.599 242.512 68.2536" fill="#F9C0C0"/>
<path d="M234.001 71.033C234.001 71.033 225.937 59.9152 221.906 60.8417C217.874 61.7682 220.562 52.9666 227.281 52.5033C234.001 52.0401 240.72 57.599 242.512 68.2536" stroke="#171949" stroke-miterlimit="10"/>
<path d="M236.887 71.7948C236.887 71.7948 232.849 56.5723 222.979 57.9561C213.109 59.34 214.903 71.7948 218.492 73.6399C222.082 75.4851 225.671 71.3335 224.773 69.027C224.325 67.1819 227.133 70.0742 227.972 77.6208" fill="#F9C0C0"/>
<path d="M236.887 71.7948C236.887 71.7948 232.849 56.5723 222.979 57.9561C213.109 59.34 214.903 71.7948 218.492 73.6399C222.082 75.4851 225.671 71.3335 224.773 69.027C224.325 67.1819 227.133 70.0742 227.972 77.6208" stroke="#171949" stroke-miterlimit="10"/>
<path d="M187.516 237.166C216.358 240.765 215.006 232.217 215.006 232.217L200.134 230.867" fill="#F9C0C0"/>
<path d="M187.516 237.166C216.358 240.765 215.006 232.217 215.006 232.217L200.134 230.867" stroke="#171949" stroke-miterlimit="10"/>
<path d="M198.133 232.535C234.123 240.592 226.126 220.688 226.126 220.688C226.126 220.688 206.131 226.374 199.466 223.057" fill="#F9C0C0"/>
<path d="M198.133 232.535C234.123 240.592 226.126 220.688 226.126 220.688C226.126 220.688 206.131 226.374 199.466 223.057" stroke="#171949" stroke-miterlimit="10"/>
<path d="M200.013 217.928C200.013 217.928 222.793 215.631 224.579 210.579C229.939 209.66 231.726 217.928 228.153 221.603C221.837 228.098 206.713 228.033 196.887 226.196" fill="#F9C0C0"/>
<path d="M200.013 217.928C200.013 217.928 222.793 215.631 224.579 210.579C229.939 209.66 231.726 217.928 228.153 221.603C221.837 228.098 206.713 228.033 196.887 226.196" stroke="#171949" stroke-miterlimit="10"/>
<path d="M198.12 209.887C198.12 209.887 214.579 212.442 217.07 209.887C214.579 208.352 216.058 202.69 221.059 202.727C225.08 202.759 230.449 207.762 225.556 214.489C221.414 220.184 203.116 221.65 195.633 220.114" fill="#F9C0C0"/>
<path d="M198.12 209.887C198.12 209.887 214.579 212.442 217.07 209.887C214.579 208.352 216.058 202.69 221.059 202.727C225.08 202.759 230.449 207.762 225.556 214.489C221.414 220.184 203.116 221.65 195.633 220.114" stroke="#171949" stroke-miterlimit="10"/>
<path d="M192.508 197.772C192.508 197.772 205.805 200.114 206.71 197.809C207.614 195.503 212.137 195.503 213.042 198.27C213.946 201.037 208.067 212.566 197.212 211.644" fill="#F9C0C0"/>
<path d="M192.508 197.772C192.508 197.772 205.805 200.114 206.71 197.809C207.614 195.503 212.137 195.503 213.042 198.27C213.946 201.037 208.067 212.566 197.212 211.644" stroke="#171949" stroke-miterlimit="10"/>
<path d="M250.388 360.85C250.388 360.85 270.572 381.916 290.193 363.191C296.123 358.042 285.273 334.636 311.213 336.976C327.314 337.913 326.867 348.211 321.5 370.681C320.606 378.639 378.748 358.51 381.878 417.024H235.629L250.388 360.85Z" fill="#FFDA66" stroke="#171949" stroke-miterlimit="10"/>
<path d="M292.623 358.777C292.068 365.523 292.444 388.088 322.491 387.688C357.815 387.223 359.604 387.688 359.604 387.688L366.261 381.253C348.139 368.319 321.436 375.852 322.044 370.474C327.41 348.141 327.857 337.906 311.76 336.975C290.476 335.068 293.964 350.389 292.623 358.777Z" fill="#FFDA66" stroke="#171949" stroke-miterlimit="10"/>
<path d="M363.081 379.914C357.266 382.887 347.937 389.406 344.296 401.781C343.979 402.822 343.353 403.73 342.508 404.374C341.662 405.018 340.642 405.363 339.596 405.361H238.545L235.629 417.027H381.878C380.769 396.462 372.853 385.645 363.081 379.914Z" fill="#FCF8DE" stroke="#171949" stroke-miterlimit="10"/>
<path d="M355.621 376.336C355.621 376.336 344.62 377.68 340.621 391.899" stroke="#171949" stroke-miterlimit="10"/>
<path d="M345.625 373.93C345.625 373.93 334.945 373.897 330 391.888" stroke="#171949" stroke-miterlimit="10"/>
<path d="M335.004 372.734C335.004 372.734 324.324 372.702 319.379 390.692" stroke="#171949" stroke-miterlimit="10"/>
<path d="M323.125 372.141C323.125 372.141 312.445 372.108 307.5 390.098" stroke="#171949" stroke-miterlimit="10"/>
<path d="M340.937 391.866C341.455 391.866 341.875 391.464 341.875 390.968C341.875 390.472 341.455 390.07 340.937 390.07C340.42 390.07 340 390.472 340 390.968C340 391.464 340.42 391.866 340.937 391.866Z" fill="#171949" stroke="#171949" stroke-miterlimit="10"/>
<path d="M329.691 391.866C330.209 391.866 330.629 391.464 330.629 390.968C330.629 390.472 330.209 390.07 329.691 390.07C329.174 390.07 328.754 390.472 328.754 390.968C328.754 391.464 329.174 391.866 329.691 391.866Z" fill="#171949" stroke="#171949" stroke-miterlimit="10"/>
<path d="M319.066 391.866C319.584 391.866 320.004 391.464 320.004 390.968C320.004 390.472 319.584 390.07 319.066 390.07C318.549 390.07 318.129 390.472 318.129 390.968C318.129 391.464 318.549 391.866 319.066 391.866Z" fill="#171949" stroke="#171949" stroke-miterlimit="10"/>
<path d="M307.816 391.272C308.334 391.272 308.754 390.87 308.754 390.374C308.754 389.879 308.334 389.477 307.816 389.477C307.299 389.477 306.879 389.879 306.879 390.374C306.879 390.87 307.299 391.272 307.816 391.272Z" fill="#171949" stroke="#171949" stroke-miterlimit="10"/>
<path d="M75.8887 292.672C75.8887 292.672 53.4294 313.566 70.8566 334.47C75.6386 340.775 98.1962 329.959 95.3921 356.99C94.1464 373.779 84.3366 373.083 63.0293 366.989C55.4386 365.882 73.3793 427.019 17.5078 429.004L20.5217 284.742L75.8887 292.672Z" fill="#FFDA66" stroke="#171949" stroke-miterlimit="10"/>
<path d="M74.8752 336.404C68.4072 335.675 46.7145 335.568 46.4463 366.965C46.12 403.87 45.6328 405.738 45.6328 405.738L51.6672 412.839C64.4915 394.195 57.8358 366.124 62.9941 366.89C84.3247 372.963 94.1451 373.682 95.3922 356.888C97.6943 334.685 82.9032 337.988 74.8752 336.404Z" fill="#FFDA66" stroke="#171949" stroke-miterlimit="10"/>
<path d="M19.5993 428.901L20.8885 428.808L21.2175 428.78C21.7359 428.738 22.2453 428.686 22.7501 428.63L23.1017 428.588L24.2962 428.439L24.6929 428.387C25.1842 428.317 25.6665 428.243 26.1443 428.163H26.257C26.7078 428.088 27.1315 428.009 27.5597 427.925L27.9428 427.85L29.0923 427.603L29.3222 427.551C29.7729 427.449 30.2237 427.341 30.6384 427.234L30.9539 427.15L31.9771 426.865L32.2971 426.771C32.7118 426.65 33.1265 426.524 33.5322 426.388L33.681 426.337C34.0416 426.22 34.3932 426.094 34.7448 425.968L35.0558 425.856C35.4074 425.725 35.7544 425.595 36.0925 425.459L36.2187 425.408C36.6019 425.254 36.976 425.095 37.3411 424.941L37.6071 424.819C37.9046 424.689 38.1975 424.548 38.5086 424.413L38.743 424.301C39.0991 424.128 39.4461 423.951 39.7887 423.769L39.942 423.689C40.235 423.53 40.528 423.372 40.8119 423.222L41.0599 423.082C41.3799 422.895 41.6999 422.708 42.011 422.517C42.331 422.321 42.6465 422.115 42.9575 421.905L43.1694 421.765C43.4263 421.592 43.6787 421.415 43.9312 421.233L44.0889 421.121C44.3864 420.906 44.6794 420.686 44.9634 420.462L45.0941 420.359C45.3375 420.168 45.5809 419.976 45.8198 419.776L46.0002 419.626C46.5441 419.162 47.0714 418.695 47.5823 418.225L47.7446 418.071C47.9654 417.856 48.1953 417.637 48.3982 417.417L48.4883 417.324C48.7317 417.071 48.9751 416.815 49.2095 416.558L49.3132 416.441C49.5115 416.217 49.7099 415.974 49.9037 415.764L50.0344 415.614C50.4762 415.085 50.9029 414.548 51.3146 414.003C51.3506 413.952 51.3912 413.9 51.4273 413.844C51.6211 413.588 51.8059 413.331 51.9907 413.064L52.0223 413.022C52.2161 412.738 52.4099 412.453 52.5992 412.163L52.6804 412.042C52.8426 411.79 53.0004 411.533 53.1582 411.28L53.2303 411.07C53.4106 410.776 53.5864 410.482 53.7577 410.183C51.0171 404.046 44.9273 394.164 33.0589 390.078C32.0604 389.724 31.1968 389.05 30.5937 388.153C29.9905 387.256 29.6793 386.183 29.7053 385.09L31.7968 286.335L20.5594 284.742L17.5078 429.004C18.0622 429.004 18.6077 428.957 19.1486 428.929L19.5993 428.901Z" fill="#FCF8DE" stroke="#171949" stroke-miterlimit="10"/>
<path d="M57.5117 402.053C57.5117 402.053 56.4315 390.425 42.5117 385.891" stroke="#171949" stroke-miterlimit="10"/>
<path d="M59.3864 391.886C59.3864 391.886 59.6473 380.704 42.5117 375.125" stroke="#171949" stroke-miterlimit="10"/>
<path d="M60.6364 380.503C60.6364 380.503 60.8973 369.321 43.7617 363.742" stroke="#171949" stroke-miterlimit="10"/>
<path d="M61.8864 368.534C61.8864 368.534 62.1473 357.352 45.0117 351.773" stroke="#171949" stroke-miterlimit="10"/>
<path d="M43.4492 387.694C43.967 387.694 44.3867 387.292 44.3867 386.796C44.3867 386.3 43.967 385.898 43.4492 385.898C42.9315 385.898 42.5117 386.3 42.5117 386.796C42.5117 387.292 42.9315 387.694 43.4492 387.694Z" fill="#171949" stroke="#171949" stroke-miterlimit="10"/>
<path d="M43.4492 375.725C43.967 375.725 44.3867 375.323 44.3867 374.828C44.3867 374.332 43.967 373.93 43.4492 373.93C42.9315 373.93 42.5117 374.332 42.5117 374.828C42.5117 375.323 42.9315 375.725 43.4492 375.725Z" fill="#171949" stroke="#171949" stroke-miterlimit="10"/>
<path d="M43.4492 364.343C43.967 364.343 44.3867 363.941 44.3867 363.445C44.3867 362.949 43.967 362.547 43.4492 362.547C42.9315 362.547 42.5117 362.949 42.5117 363.445C42.5117 363.941 42.9315 364.343 43.4492 364.343Z" fill="#171949" stroke="#171949" stroke-miterlimit="10"/>
<path d="M44.6992 352.374C45.217 352.374 45.6367 351.972 45.6367 351.476C45.6367 350.98 45.217 350.578 44.6992 350.578C44.1815 350.578 43.7617 350.98 43.7617 351.476C43.7617 351.972 44.1815 352.374 44.6992 352.374Z" fill="#171949" stroke="#171949" stroke-miterlimit="10"/>
<path d="M178.63 236.96C178.866 231.544 179.378 226.145 180.163 220.786C181.628 210.474 183.747 201.621 185.625 197.129C164.36 193.913 127.825 189.472 127.825 189.472L138.13 146.467L130.28 128.667L123.111 112.344C123.111 112.344 110.323 126.835 99.1218 170.307C94.686 187.523 90.2502 200.49 93.7764 210.362C102.16 235.445 177.335 248.351 180.14 248.824C180.144 248.822 180.147 248.819 180.15 248.815C180.152 248.811 180.153 248.807 180.153 248.803C180.153 248.798 180.152 248.794 180.15 248.79C180.147 248.786 180.144 248.783 180.14 248.782C178.42 247.188 178.859 237.152 178.859 237.152" fill="#EA7F98"/>
<path d="M123.057 112.328C123.057 112.328 110.292 126.819 99.1102 170.291C94.6822 187.507 90.2541 200.474 93.7742 210.347C102.143 235.43 177.187 248.336 179.987 248.808C179.991 248.806 179.994 248.803 179.996 248.799C179.998 248.796 180 248.791 180 248.787C180 248.783 179.998 248.778 179.996 248.775C179.994 248.771 179.991 248.768 179.987 248.766C178.269 247.172 178.708 237.136 178.708 237.136" stroke="#171949" stroke-miterlimit="10"/>
<path d="M178.042 236.833C178.276 231.424 178.785 226.031 179.566 220.678C181.024 210.378 183.132 201.535 185 197.048C163.845 193.836 127.5 189.4 127.5 189.4L137.752 146.445" stroke="#171949" stroke-miterlimit="10"/>
<path d="M179.86 248.207C181.249 248.419 183.199 243.875 185 236.765C182.676 236.595 180.405 236.421 178.189 236.242C177.925 243.296 178.48 248 179.86 248.207Z" fill="#171949" stroke="#171949" stroke-miterlimit="10"/>
<path d="M0 428.977H126.874H0Z" fill="#F9C0C0"/>
<path d="M0 428.977H126.874" stroke="#171949" stroke-miterlimit="10"/>
<path d="M48.75 417H399.999H48.75Z" fill="#F9C0C0"/>
<path d="M48.75 417H399.999" stroke="#171949" stroke-miterlimit="10"/>
<path d="M333.179 368.325C333.179 368.325 342.388 343.306 353.14 349.871C364.789 356.985 331.547 374.821 333.179 368.325Z" stroke="#171949" stroke-miterlimit="10"/>
<path d="M334.318 370.119C334.318 370.119 355.373 354.469 346.607 345.098C337.104 334.933 328.661 373.408 334.318 370.119Z" stroke="#171949" stroke-miterlimit="10"/>
<path d="M66.0156 381.094C66.0156 381.094 91.9598 382.757 89.1596 395.744C86.1358 409.799 59.5117 381.434 66.0156 381.094Z" stroke="#171949" stroke-miterlimit="10"/>
<path d="M65.4029 382.838C65.4029 382.838 85.9223 399.4 91.7698 387.675C98.1098 374.971 60.7222 378.108 65.4029 382.838Z" stroke="#171949" stroke-miterlimit="10"/>
<path d="M58.3675 308.583C58.9381 303.488 54.6817 298.783 48.8606 298.075C43.0394 297.366 37.8578 300.922 37.2872 306.017C36.7165 311.112 40.9729 315.817 46.7941 316.525C52.6152 317.234 57.7968 313.678 58.3675 308.583Z" fill="white" stroke="#171949" stroke-miterlimit="10"/>
<path d="M98.645 262.57C98.645 262.57 84.8126 298.466 123.633 306.857C154.582 313.547 184.83 357.205 150.218 416.409" stroke="#171949" stroke-miterlimit="10"/>
<path d="M228.121 81.1953L136.871 190.14L228.121 81.1953Z" fill="#FCF8DE"/>
<path d="M228.121 81.1953L136.871 190.14" stroke="#171949" stroke-miterlimit="10"/>
</svg>
