<svg width="722" height="625" viewBox="0 0 722 625" fill="none" xmlns="http://www.w3.org/2000/svg">
<g clip-path="url(#clip0_2042_53754)">
<path d="M630.204 152.533H634.695V426.539H584.578V197.76C584.575 191.82 585.753 185.937 588.045 180.449C590.337 174.961 593.698 169.974 597.935 165.774C602.173 161.573 607.203 158.242 612.74 155.97C618.277 153.698 624.211 152.53 630.204 152.533Z" fill="#DBFBFC" stroke="#171949" stroke-miterlimit="10"/>
<path d="M624.098 228.117H628.545C640.532 228.117 652.028 232.837 660.503 241.239C668.979 249.64 673.741 261.035 673.741 272.917V507.378H624.098V228.117Z" fill="#DBFBFC"/>
<path d="M644.547 276.182H673.96V278.912H644.547V276.182Z" fill="white"/>
<path d="M644.547 288.021H673.96V290.752H644.547V288.021Z" fill="white"/>
<path d="M644.547 299.869H673.96V302.6H644.547V299.869Z" fill="white"/>
<path d="M644.547 311.717H673.96V314.447H644.547V311.717Z" fill="white"/>
<path d="M644.547 323.557H673.96V326.287H644.547V323.557Z" fill="white"/>
<path d="M644.547 335.402H673.96V338.133H644.547V335.402Z" fill="white"/>
<path d="M644.547 347.25H673.96V349.981H644.547V347.25Z" fill="white"/>
<path d="M624.094 228.117H628.542C640.528 228.117 652.024 232.837 660.499 241.239C668.975 249.64 673.737 261.035 673.737 272.917V507.378H624.094V228.117Z" stroke="#171949" stroke-miterlimit="10"/>
<path d="M628.365 174.357H634.663V475.947H564.359V237.817C564.359 220.986 571.104 204.845 583.11 192.944C595.116 181.043 611.4 174.357 628.379 174.357H628.365Z" stroke="#171949" stroke-miterlimit="10"/>
<path d="M627.088 205.795H634.664V507.377H550.105V282.104C550.107 261.866 558.219 242.458 572.655 228.148C587.092 213.837 606.672 205.797 627.088 205.795Z" stroke="#171949" stroke-miterlimit="10"/>
<path d="M233.162 199.196H186.281V100.793C186.283 99.6993 186.552 98.6225 187.068 97.6555C187.583 96.6885 188.328 95.8605 189.238 95.2429C190.149 94.6254 191.197 94.2369 192.293 94.1111C193.389 93.9853 194.5 94.126 195.528 94.5209L228.829 107.321C230.1 107.816 231.191 108.679 231.958 109.798C232.726 110.917 233.136 112.24 233.134 113.593L233.162 199.196Z" stroke="#171949" stroke-miterlimit="10"/>
<path d="M181.252 127.197H238.198C241.008 127.197 243.703 128.304 245.69 130.274C247.678 132.243 248.794 134.915 248.794 137.7V307.556H170.656V137.7C170.656 134.915 171.773 132.243 173.76 130.274C175.747 128.304 178.442 127.197 181.252 127.197Z" stroke="#171949" stroke-miterlimit="10"/>
<path d="M165.17 159.559H254.291C257.101 159.559 259.796 160.665 261.783 162.635C263.77 164.605 264.887 167.276 264.887 170.062V414.222H154.574V170.062C154.574 167.276 155.691 164.605 157.678 162.635C159.665 160.665 162.36 159.559 165.17 159.559Z" stroke="#171949" stroke-miterlimit="10"/>
<path d="M282.104 281.6H371.224C374.035 281.6 376.73 282.706 378.717 284.676C380.704 286.646 381.82 289.317 381.82 292.103V518.044H271.508V292.103C271.508 289.317 272.624 286.646 274.611 284.676C276.598 282.706 279.293 281.6 282.104 281.6Z" stroke="#86D4FC" stroke-miterlimit="10"/>
<path d="M381.818 233.244H411.231C414.041 233.244 416.737 234.351 418.724 236.32C420.711 238.29 421.827 240.962 421.827 243.747V354.41H371.223V243.747C371.223 240.962 372.339 238.29 374.326 236.32C376.313 234.351 379.008 233.244 381.818 233.244Z" stroke="#171949" stroke-miterlimit="10"/>
<path d="M379.666 257.422H426.296C429.106 257.422 431.801 258.528 433.789 260.498C435.776 262.468 436.892 265.139 436.892 267.925V419.833H369.07V267.925C369.07 265.139 370.187 262.468 372.174 260.498C374.161 258.528 376.856 257.422 379.666 257.422Z" stroke="#171949" stroke-miterlimit="10"/>
<path d="M366.752 283.021H446.382C449.192 283.021 451.887 284.128 453.874 286.098C455.861 288.067 456.978 290.739 456.978 293.525V508.444H356.156V293.525C356.156 290.739 357.273 288.067 359.26 286.098C361.247 284.128 363.942 283.021 366.752 283.021Z" stroke="#171949" stroke-miterlimit="10"/>
<path d="M515.599 470.045H456.773V228.822L515.599 266.369V470.045Z" fill="#DBFBFC"/>
<path d="M479.219 279.232H516.135V281.963H479.219V279.232Z" fill="white"/>
<path d="M479.219 291.08H516.135V293.811H479.219V291.08Z" fill="white"/>
<path d="M479.219 302.926H516.135V305.656H479.219V302.926Z" fill="white"/>
<path d="M479.219 314.768H516.135V317.498H479.219V314.768Z" fill="white"/>
<path d="M479.219 326.613H516.135V329.344H479.219V326.613Z" fill="white"/>
<path d="M479.219 338.461H516.135V341.192H479.219V338.461Z" fill="white"/>
<path d="M479.219 350.301H516.135V353.031H479.219V350.301Z" fill="white"/>
<path d="M515.595 470.043H456.77V228.82L515.595 266.367V470.043Z" stroke="#171949" stroke-miterlimit="10"/>
<path d="M449.463 433.834H548.06V508.088H400.121V482.737C400.121 469.767 405.319 457.328 414.571 448.157C423.823 438.986 436.371 433.834 449.456 433.834H449.463Z" fill="#DBFBFC" stroke="#171949" stroke-miterlimit="10"/>
<path d="M634.668 159.887V116.047V159.887Z" fill="#F9C0C0"/>
<path d="M634.668 159.887V116.047" stroke="#171949" stroke-miterlimit="10"/>
<path d="M204.668 97.7135V41.7988V97.7135Z" fill="#DBFBFC"/>
<path d="M204.668 97.7135V41.7988" stroke="#171949" stroke-miterlimit="10"/>
<path d="M568.484 270.484H575.63V277.567H568.484V270.484Z" fill="white"/>
<path d="M578.938 270.613H586.083V277.696H578.938V270.613Z" fill="white"/>
<path d="M589.391 270.748H596.536V277.831H589.391V270.748Z" fill="white"/>
<path d="M599.844 270.877H606.989V277.96H599.844V270.877Z" fill="white"/>
<path d="M610.289 271.012H617.434V278.094H610.289V271.012Z" fill="white"/>
<path d="M568.484 285.518H575.63V292.6H568.484V285.518Z" fill="white"/>
<path d="M578.938 285.646H586.083V292.729H578.938V285.646Z" fill="white"/>
<path d="M589.391 285.781H596.536V292.864H589.391V285.781Z" fill="white"/>
<path d="M599.844 285.91H606.989V292.993H599.844V285.91Z" fill="white"/>
<path d="M610.289 286.045H617.434V293.128H610.289V286.045Z" fill="white"/>
<path d="M568.484 300.551H575.63V307.633H568.484V300.551Z" fill="white"/>
<path d="M578.938 300.686H586.083V307.768H578.938V300.686Z" fill="white"/>
<path d="M589.391 300.814H596.536V307.897H589.391V300.814Z" fill="white"/>
<path d="M599.844 300.941H606.989V308.024H599.844V300.941Z" fill="white"/>
<path d="M610.289 301.078H617.434V308.161H610.289V301.078Z" fill="white"/>
<path d="M568.484 315.584H575.63V322.667H568.484V315.584Z" fill="white"/>
<path d="M578.938 315.719H586.083V322.801H578.938V315.719Z" fill="white"/>
<path d="M589.391 315.848H596.536V322.93H589.391V315.848Z" fill="white"/>
<path d="M599.844 315.982H606.989V323.065H599.844V315.982Z" fill="white"/>
<path d="M610.289 316.109H617.434V323.192H610.289V316.109Z" fill="white"/>
<path d="M568.484 330.617H575.63V337.7H568.484V330.617Z" fill="white"/>
<path d="M578.938 330.752H586.083V337.835H578.938V330.752Z" fill="white"/>
<path d="M589.391 330.881H596.536V337.964H589.391V330.881Z" fill="white"/>
<path d="M599.844 331.016H606.989V338.098H599.844V331.016Z" fill="white"/>
<path d="M610.289 331.143H617.434V338.225H610.289V331.143Z" fill="white"/>
<path d="M568.484 345.65H575.63V352.733H568.484V345.65Z" fill="white"/>
<path d="M578.938 345.785H586.083V352.868H578.938V345.785Z" fill="white"/>
<path d="M589.391 345.912H596.536V352.995H589.391V345.912Z" fill="white"/>
<path d="M599.844 346.049H606.989V353.132H599.844V346.049Z" fill="white"/>
<path d="M610.289 346.176H617.434V353.258H610.289V346.176Z" fill="white"/>
<path d="M568.484 360.689H575.63V367.772H568.484V360.689Z" fill="white"/>
<path d="M578.938 360.818H586.083V367.901H578.938V360.818Z" fill="white"/>
<path d="M589.391 360.945H596.536V368.028H589.391V360.945Z" fill="white"/>
<path d="M599.844 361.08H606.989V368.163H599.844V361.08Z" fill="white"/>
<path d="M610.289 361.209H617.434V368.292H610.289V361.209Z" fill="white"/>
<path d="M568.484 375.723H575.63V382.805H568.484V375.723Z" fill="white"/>
<path d="M578.938 375.852H586.083V382.934H578.938V375.852Z" fill="white"/>
<path d="M589.391 375.979H596.536V383.061H589.391V375.979Z" fill="white"/>
<path d="M599.844 376.113H606.989V383.196H599.844V376.113Z" fill="white"/>
<path d="M610.289 376.242H617.434V383.325H610.289V376.242Z" fill="white"/>
<path d="M568.484 390.756H575.63V397.839H568.484V390.756Z" fill="white"/>
<path d="M578.938 390.883H586.083V397.965H578.938V390.883Z" fill="white"/>
<path d="M589.391 391.02H596.536V398.102H589.391V391.02Z" fill="white"/>
<path d="M599.844 391.146H606.989V398.229H599.844V391.146Z" fill="white"/>
<path d="M610.289 391.275H617.434V398.358H610.289V391.275Z" fill="white"/>
<path d="M568.484 405.789H575.63V412.872H568.484V405.789Z" fill="white"/>
<path d="M578.938 405.916H586.083V412.999H578.938V405.916Z" fill="white"/>
<path d="M589.391 406.051H596.536V413.133H589.391V406.051Z" fill="white"/>
<path d="M599.844 406.18H606.989V413.262H599.844V406.18Z" fill="white"/>
<path d="M610.289 406.314H617.434V413.397H610.289V406.314Z" fill="white"/>
<path d="M379.094 289.686H386.239V296.768H379.094V289.686Z" fill="white"/>
<path d="M389.547 289.812H396.692V296.895H389.547V289.812Z" fill="white"/>
<path d="M400 289.949H407.145V297.032H400V289.949Z" fill="white"/>
<path d="M410.453 290.076H417.598V297.159H410.453V290.076Z" fill="white"/>
<path d="M420.898 290.211H428.044V297.294H420.898V290.211Z" fill="white"/>
<path d="M379.094 304.719H386.239V311.801H379.094V304.719Z" fill="white"/>
<path d="M389.547 304.846H396.692V311.928H389.547V304.846Z" fill="white"/>
<path d="M400 304.98H407.145V312.063H400V304.98Z" fill="white"/>
<path d="M410.453 305.109H417.598V312.192H410.453V305.109Z" fill="white"/>
<path d="M420.898 305.244H428.044V312.327H420.898V305.244Z" fill="white"/>
<path d="M379.094 319.752H386.239V326.835H379.094V319.752Z" fill="white"/>
<path d="M389.547 319.887H396.692V326.969H389.547V319.887Z" fill="white"/>
<path d="M400 320.014H407.145V327.096H400V320.014Z" fill="white"/>
<path d="M410.453 320.143H417.598V327.225H410.453V320.143Z" fill="white"/>
<path d="M420.898 320.277H428.044V327.36H420.898V320.277Z" fill="white"/>
<path d="M379.094 334.783H386.239V341.866H379.094V334.783Z" fill="white"/>
<path d="M389.547 334.92H396.692V342.003H389.547V334.92Z" fill="white"/>
<path d="M400 335.047H407.145V342.13H400V335.047Z" fill="white"/>
<path d="M410.453 335.182H417.598V342.264H410.453V335.182Z" fill="white"/>
<path d="M420.898 335.311H428.044V342.393H420.898V335.311Z" fill="white"/>
<path d="M379.094 349.816H386.239V356.899H379.094V349.816Z" fill="white"/>
<path d="M389.547 349.951H396.692V357.034H389.547V349.951Z" fill="white"/>
<path d="M400 350.08H407.145V357.163H400V350.08Z" fill="white"/>
<path d="M410.453 350.215H417.598V357.298H410.453V350.215Z" fill="white"/>
<path d="M420.898 350.344H428.044V357.426H420.898V350.344Z" fill="white"/>
<path d="M379.094 364.85H386.239V371.932H379.094V364.85Z" fill="white"/>
<path d="M389.547 364.984H396.692V372.067H389.547V364.984Z" fill="white"/>
<path d="M400 365.113H407.145V372.196H400V365.113Z" fill="white"/>
<path d="M410.453 365.248H417.598V372.331H410.453V365.248Z" fill="white"/>
<path d="M420.898 365.377H428.044V372.46H420.898V365.377Z" fill="white"/>
<path d="M379.094 379.891H386.239V386.973H379.094V379.891Z" fill="white"/>
<path d="M389.547 380.018H396.692V387.1H389.547V380.018Z" fill="white"/>
<path d="M400 380.146H407.145V387.229H400V380.146Z" fill="white"/>
<path d="M410.453 380.281H417.598V387.364H410.453V380.281Z" fill="white"/>
<path d="M420.898 380.408H428.044V387.491H420.898V380.408Z" fill="white"/>
<path d="M379.094 394.922H386.239V402.005H379.094V394.922Z" fill="white"/>
<path d="M389.547 395.051H396.692V402.133H389.547V395.051Z" fill="white"/>
<path d="M400 395.178H407.145V402.26H400V395.178Z" fill="white"/>
<path d="M410.453 395.314H417.598V402.397H410.453V395.314Z" fill="white"/>
<path d="M420.898 395.441H428.044V402.524H420.898V395.441Z" fill="white"/>
<path d="M379.094 409.955H386.239V417.038H379.094V409.955Z" fill="white"/>
<path d="M389.547 410.084H396.692V417.167H389.547V410.084Z" fill="white"/>
<path d="M400 410.219H407.145V417.301H400V410.219Z" fill="white"/>
<path d="M410.453 410.346H417.598V417.428H410.453V410.346Z" fill="white"/>
<path d="M420.898 410.475H428.044V417.557H420.898V410.475Z" fill="white"/>
<path d="M379.094 424.988H386.239V432.071H379.094V424.988Z" fill="white"/>
<path d="M389.547 425.117H396.692V432.2H389.547V425.117Z" fill="white"/>
<path d="M400 425.252H407.145V432.335H400V425.252Z" fill="white"/>
<path d="M410.453 425.379H417.598V432.462H410.453V425.379Z" fill="white"/>
<path d="M420.898 425.516H428.044V432.598H420.898V425.516Z" fill="white"/>
<path d="M297.312 215.02H304.458V222.102H297.312V215.02Z" fill="white"/>
<path d="M307.766 215.146H314.911V222.229H307.766V215.146Z" fill="white"/>
<path d="M318.219 215.281H325.364V222.364H318.219V215.281Z" fill="white"/>
<path d="M328.668 215.41H335.813V222.493H328.668V215.41Z" fill="white"/>
<path d="M339.117 215.545H346.262V222.628H339.117V215.545Z" fill="white"/>
<path d="M297.312 230.051H304.458V237.133H297.312V230.051Z" fill="white"/>
<path d="M307.766 230.18H314.911V237.262H307.766V230.18Z" fill="white"/>
<path d="M318.219 230.314H325.364V237.397H318.219V230.314Z" fill="white"/>
<path d="M328.668 230.443H335.813V237.526H328.668V230.443Z" fill="white"/>
<path d="M339.117 230.578H346.262V237.661H339.117V230.578Z" fill="white"/>
<path d="M297.312 245.084H304.458V252.167H297.312V245.084Z" fill="white"/>
<path d="M307.766 245.219H314.911V252.301H307.766V245.219Z" fill="white"/>
<path d="M318.219 245.348H325.364V252.43H318.219V245.348Z" fill="white"/>
<path d="M328.668 245.475H335.813V252.557H328.668V245.475Z" fill="white"/>
<path d="M339.117 245.611H346.262V252.694H339.117V245.611Z" fill="white"/>
<path d="M297.312 260.117H304.458V267.2H297.312V260.117Z" fill="white"/>
<path d="M307.766 260.252H314.911V267.335H307.766V260.252Z" fill="white"/>
<path d="M318.219 260.381H325.364V267.464H318.219V260.381Z" fill="white"/>
<path d="M328.668 260.516H335.813V267.598H328.668V260.516Z" fill="white"/>
<path d="M339.117 260.645H346.262V267.727H339.117V260.645Z" fill="white"/>
<path d="M297.312 275.15H304.458V282.233H297.312V275.15Z" fill="white"/>
<path d="M307.766 275.285H314.911V282.368H307.766V275.285Z" fill="white"/>
<path d="M318.219 275.414H325.364V282.497H318.219V275.414Z" fill="white"/>
<path d="M328.668 275.549H335.813V282.632H328.668V275.549Z" fill="white"/>
<path d="M339.117 275.676H346.262V282.758H339.117V275.676Z" fill="white"/>
<path d="M297.312 290.184H304.458V297.266H297.312V290.184Z" fill="white"/>
<path d="M307.766 290.318H314.911V297.401H307.766V290.318Z" fill="white"/>
<path d="M318.219 290.445H325.364V297.528H318.219V290.445Z" fill="white"/>
<path d="M328.668 290.582H335.813V297.665H328.668V290.582Z" fill="white"/>
<path d="M339.117 290.709H346.262V297.792H339.117V290.709Z" fill="white"/>
<path d="M297.312 305.223H304.458V312.305H297.312V305.223Z" fill="white"/>
<path d="M307.766 305.352H314.911V312.434H307.766V305.352Z" fill="white"/>
<path d="M318.219 305.479H325.364V312.561H318.219V305.479Z" fill="white"/>
<path d="M328.668 305.613H335.813V312.696H328.668V305.613Z" fill="white"/>
<path d="M339.117 305.742H346.262V312.825H339.117V305.742Z" fill="white"/>
<path d="M297.312 320.256H304.458V327.339H297.312V320.256Z" fill="white"/>
<path d="M307.766 320.385H314.911V327.467H307.766V320.385Z" fill="white"/>
<path d="M318.219 320.512H325.364V327.594H318.219V320.512Z" fill="white"/>
<path d="M328.668 320.646H335.813V327.729H328.668V320.646Z" fill="white"/>
<path d="M339.117 320.775H346.262V327.858H339.117V320.775Z" fill="white"/>
<path d="M297.312 335.289H304.458V342.372H297.312V335.289Z" fill="white"/>
<path d="M307.766 335.416H314.911V342.499H307.766V335.416Z" fill="white"/>
<path d="M318.219 335.553H325.364V342.635H318.219V335.553Z" fill="white"/>
<path d="M328.668 335.68H335.813V342.762H328.668V335.68Z" fill="white"/>
<path d="M339.117 335.809H346.262V342.891H339.117V335.809Z" fill="white"/>
<path d="M297.312 350.322H304.458V357.405H297.312V350.322Z" fill="white"/>
<path d="M307.766 350.449H314.911V357.532H307.766V350.449Z" fill="white"/>
<path d="M318.219 350.584H325.364V357.667H318.219V350.584Z" fill="white"/>
<path d="M328.668 350.713H335.813V357.796H328.668V350.713Z" fill="white"/>
<path d="M339.117 350.848H346.262V357.93H339.117V350.848Z" fill="white"/>
<path d="M177.094 181.426H184.239V188.508H177.094V181.426Z" fill="white"/>
<path d="M187.543 181.561H194.688V188.643H187.543V181.561Z" fill="white"/>
<path d="M198 181.689H205.145V188.772H198V181.689Z" fill="white"/>
<path d="M208.441 181.824H215.587V188.907H208.441V181.824Z" fill="white"/>
<path d="M218.898 181.951H226.044V189.034H218.898V181.951Z" fill="white"/>
<path d="M229.469 181.951H236.614V189.034H229.469V181.951Z" fill="white"/>
<path d="M240.039 181.951H247.184V189.034H240.039V181.951Z" fill="white"/>
<path d="M177.094 200.107H184.239V207.19H177.094V200.107Z" fill="white"/>
<path d="M187.543 200.242H194.688V207.325H187.543V200.242Z" fill="white"/>
<path d="M198 200.369H205.145V207.452H198V200.369Z" fill="white"/>
<path d="M208.441 200.498H215.587V207.581H208.441V200.498Z" fill="white"/>
<path d="M218.898 200.633H226.044V207.715H218.898V200.633Z" fill="white"/>
<path d="M229.469 200.633H236.614V207.715H229.469V200.633Z" fill="white"/>
<path d="M240.039 200.633H247.184V207.715H240.039V200.633Z" fill="white"/>
<path d="M177.094 218.787H184.239V225.87H177.094V218.787Z" fill="white"/>
<path d="M187.543 218.916H194.688V225.999H187.543V218.916Z" fill="white"/>
<path d="M198 219.051H205.145V226.133H198V219.051Z" fill="white"/>
<path d="M208.441 219.178H215.587V226.26H208.441V219.178Z" fill="white"/>
<path d="M218.898 219.307H226.044V226.389H218.898V219.307Z" fill="white"/>
<path d="M229.469 219.307H236.614V226.389H229.469V219.307Z" fill="white"/>
<path d="M240.039 219.307H247.184V226.389H240.039V219.307Z" fill="white"/>
<path d="M177.094 237.461H184.239V244.544H177.094V237.461Z" fill="white"/>
<path d="M187.543 237.596H194.688V244.678H187.543V237.596Z" fill="white"/>
<path d="M198 237.725H205.145V244.807H198V237.725Z" fill="white"/>
<path d="M208.441 237.859H215.587V244.942H208.441V237.859Z" fill="white"/>
<path d="M218.898 237.988H226.044V245.071H218.898V237.988Z" fill="white"/>
<path d="M229.469 237.988H236.614V245.071H229.469V237.988Z" fill="white"/>
<path d="M240.039 237.988H247.184V245.071H240.039V237.988Z" fill="white"/>
<path d="M177.094 256.143H184.239V263.225H177.094V256.143Z" fill="white"/>
<path d="M187.543 256.27H194.688V263.352H187.543V256.27Z" fill="white"/>
<path d="M198 256.406H205.145V263.489H198V256.406Z" fill="white"/>
<path d="M208.441 256.533H215.587V263.616H208.441V256.533Z" fill="white"/>
<path d="M218.898 256.668H226.044V263.751H218.898V256.668Z" fill="white"/>
<path d="M229.469 256.668H236.614V263.751H229.469V256.668Z" fill="white"/>
<path d="M240.039 256.668H247.184V263.751H240.039V256.668Z" fill="white"/>
<path d="M177.094 274.822H184.239V281.905H177.094V274.822Z" fill="white"/>
<path d="M187.543 274.951H194.688V282.034H187.543V274.951Z" fill="white"/>
<path d="M198 275.078H205.145V282.161H198V275.078Z" fill="white"/>
<path d="M208.441 275.215H215.587V282.298H208.441V275.215Z" fill="white"/>
<path d="M218.898 275.342H226.044V282.424H218.898V275.342Z" fill="white"/>
<path d="M229.469 275.342H236.614V282.424H229.469V275.342Z" fill="white"/>
<path d="M240.039 275.342H247.184V282.424H240.039V275.342Z" fill="white"/>
<path d="M177.094 293.496H184.239V300.579H177.094V293.496Z" fill="white"/>
<path d="M187.543 293.633H194.688V300.715H187.543V293.633Z" fill="white"/>
<path d="M198 293.76H205.145V300.842H198V293.76Z" fill="white"/>
<path d="M208.441 293.889H215.587V300.971H208.441V293.889Z" fill="white"/>
<path d="M218.898 294.023H226.044V301.106H218.898V294.023Z" fill="white"/>
<path d="M229.469 294.023H236.614V301.106H229.469V294.023Z" fill="white"/>
<path d="M240.039 294.023H247.184V301.106H240.039V294.023Z" fill="white"/>
<path d="M177.094 312.178H184.239V319.26H177.094V312.178Z" fill="white"/>
<path d="M187.543 312.307H194.688V319.389H187.543V312.307Z" fill="white"/>
<path d="M198 312.441H205.145V319.524H198V312.441Z" fill="white"/>
<path d="M208.441 312.568H215.587V319.651H208.441V312.568Z" fill="white"/>
<path d="M218.898 312.703H226.044V319.786H218.898V312.703Z" fill="white"/>
<path d="M229.469 312.703H236.614V319.786H229.469V312.703Z" fill="white"/>
<path d="M240.039 312.703H247.184V319.786H240.039V312.703Z" fill="white"/>
<path d="M177.094 330.852H184.239V337.934H177.094V330.852Z" fill="white"/>
<path d="M187.543 330.986H194.688V338.069H187.543V330.986Z" fill="white"/>
<path d="M198 331.115H205.145V338.198H198V331.115Z" fill="white"/>
<path d="M208.441 331.25H215.587V338.333H208.441V331.25Z" fill="white"/>
<path d="M218.898 331.377H226.044V338.46H218.898V331.377Z" fill="white"/>
<path d="M229.469 331.377H236.614V338.46H229.469V331.377Z" fill="white"/>
<path d="M240.039 331.377H247.184V338.46H240.039V331.377Z" fill="white"/>
<path d="M466.457 450.887H536.316V455.217H466.457V450.887Z" fill="white"/>
<path d="M691.534 547.91H113.68" stroke="#171949" stroke-miterlimit="10"/>
<path d="M553.781 421.041C553.781 421.041 549.972 353.649 583.007 324.678C605.246 308.323 606.516 354.282 589.363 387.029C572.211 419.775 560.84 479.644 552.231 472.056C543.623 464.469 553.781 421.041 553.781 421.041Z" fill="#99AD25" stroke="#171949" stroke-miterlimit="10"/>
<path d="M511.113 507.961H692.296" stroke="#171949" stroke-miterlimit="10"/>
<path d="M563.951 463.238C563.951 463.238 562.05 332.87 497.873 343.572C481.99 346.722 473.725 380.735 501.051 412.855C528.376 444.976 550.392 441.883 553.678 488.781C558.341 508.244 565.221 484.656 563.951 463.238Z" fill="#A6C94F" stroke="#171949" stroke-miterlimit="10"/>
<path d="M553.782 480.874C553.782 480.874 553.151 409.706 591.272 366.25C629.394 322.794 675.773 346.097 649.725 377.585C623.899 408.824 580.469 468.28 581.107 486.542C581.746 504.803 544.255 524.337 553.782 480.874Z" fill="#C6E07C" stroke="#171949" stroke-miterlimit="10"/>
<path d="M651.631 347.377C651.631 347.377 567.123 373.176 556.305 489.066" stroke="#171949" stroke-miterlimit="10"/>
<path d="M558.23 507.961C558.23 507.961 558.23 436.139 609.696 407.815C661.161 379.492 712.626 413.504 702.461 460.722C692.295 507.94 631.935 497.885 635.113 456.946C616.052 462.635 598.261 477.099 585.757 507.961H558.23Z" fill="#A6C94F" stroke="#171949" stroke-miterlimit="10"/>
<path d="M574.605 507.96C574.605 507.96 576.04 450.645 620.518 431.75C664.996 412.856 698.814 434.716 702.874 458.773" stroke="#171949" stroke-miterlimit="10"/>
<path d="M570.941 507.96C570.941 507.96 591.272 470.797 637.02 484.024C682.932 497.301 678.951 552.675 647.781 558.975C623.167 563.953 631.898 509.197 577.254 507.96H570.941Z" fill="#C6E07C" stroke="#171949" stroke-miterlimit="10"/>
<path d="M635.113 456.945C635.113 456.945 689.757 442.46 691.026 482.766L635.113 456.945Z" fill="#A6C94F"/>
<path d="M635.113 456.945C635.113 456.945 689.757 442.46 691.026 482.766" stroke="#171949" stroke-miterlimit="10"/>
<path d="M675.773 458.203C675.773 458.203 671.964 475.839 638.734 475.561" stroke="#171949" stroke-miterlimit="10"/>
<path d="M574.754 507.961C574.754 507.961 602.072 475.84 635.732 494.734C669.391 513.629 654.814 556.445 654.814 556.445" stroke="#171949" stroke-miterlimit="10"/>
<path d="M558.23 507.96C558.23 507.96 561.408 412.224 516.93 401.521C472.452 390.819 450.852 422.3 450.852 458.204C450.852 494.108 483.894 501.027 494.06 487.808C504.225 474.588 509.304 454.385 509.304 454.385C509.304 454.385 530.044 461.319 545.726 507.925L558.23 507.96Z" fill="#C6E07C" stroke="#171949" stroke-miterlimit="10"/>
<path d="M552.054 448.683C552.054 448.683 527.096 388.295 509.305 454.422L552.054 448.683Z" fill="#C6E07C"/>
<path d="M552.054 448.683C552.054 448.683 527.096 388.295 509.305 454.422" stroke="#171949" stroke-miterlimit="10"/>
<path d="M521.381 402.929C521.381 402.929 465.066 387.711 467.175 490.659" stroke="#171949" stroke-miterlimit="10"/>
<path d="M515.66 436.16C515.66 436.16 551.027 450.645 553.682 507.982" stroke="#171949" stroke-miterlimit="10"/>
<path d="M545.549 507.961C545.549 507.961 534.071 470.173 504.859 479.645C495.963 482.795 490.246 502.322 509.307 507.99L545.549 507.961Z" fill="#A6C94F" stroke="#171949" stroke-miterlimit="10"/>
<path d="M503.473 480.256C503.473 480.256 516.701 480.256 535.561 507.989" stroke="#171949" stroke-miterlimit="10"/>
<path d="M490.918 347.377C490.918 347.377 530.274 333.496 557.025 446.399" stroke="#171949" stroke-miterlimit="10"/>
<path d="M593.122 321.258C593.122 321.258 564.104 371.853 560.84 428.259" stroke="#171949" stroke-miterlimit="10"/>
<path d="M115.832 508.443H577.111" stroke="#171949" stroke-miterlimit="10"/>
<path d="M145.59 547.91V613.688" stroke="#171949" stroke-miterlimit="10"/>
<path d="M203.219 547.91V613.688" stroke="#171949" stroke-miterlimit="10"/>
<path d="M260.852 547.91V613.688" stroke="#171949" stroke-miterlimit="10"/>
<path d="M318.48 547.91V613.688" stroke="#171949" stroke-miterlimit="10"/>
<path d="M376.109 547.91V613.688" stroke="#171949" stroke-miterlimit="10"/>
<path d="M433.742 547.91V613.688" stroke="#171949" stroke-miterlimit="10"/>
<path d="M491.371 547.91V613.688" stroke="#171949" stroke-miterlimit="10"/>
<path d="M548.996 547.91V613.688" stroke="#171949" stroke-miterlimit="10"/>
<path d="M606.633 547.91V613.688" stroke="#171949" stroke-miterlimit="10"/>
<path d="M664.258 547.91V613.688" stroke="#171949" stroke-miterlimit="10"/>
<path d="M280.473 491.378C310.981 491.378 335.712 462.087 335.712 425.955C335.712 389.824 310.981 360.533 280.473 360.533C249.966 360.533 225.234 389.824 225.234 425.955C225.234 462.087 249.966 491.378 280.473 491.378Z" fill="#99AD25" stroke="#171949" stroke-miterlimit="10"/>
<path d="M346.469 508.444C346.469 472.312 371.197 443.021 401.707 443.021C432.218 443.021 456.946 472.312 456.946 508.444H346.469Z" fill="#99AD25" stroke="#171949" stroke-miterlimit="10"/>
<path d="M328.61 392.889C288.436 392.889 255.867 444.622 255.867 508.444H401.353C401.353 444.622 368.784 392.889 328.61 392.889Z" fill="#C6E07C" stroke="#171949" stroke-miterlimit="10"/>
<path d="M328.332 392.889V508.444" stroke="#171949" stroke-miterlimit="10"/>
<path d="M398.012 474.66L328.332 508.445L372.1 415.809" stroke="#171949" stroke-miterlimit="10"/>
<path d="M258.652 474.66L328.332 508.445L284.564 415.809" stroke="#171949" stroke-miterlimit="10"/>
<path d="M191.158 340.621C139.456 340.621 97.5391 415.757 97.5391 508.443H284.777C284.777 415.757 242.86 340.621 191.158 340.621Z" fill="#A6C94F" stroke="#171949" stroke-miterlimit="10"/>
<path d="M190.801 340.621V508.443" stroke="#171949" stroke-miterlimit="10"/>
<path d="M280.474 459.377L190.801 508.443L247.13 373.908" stroke="#171949" stroke-miterlimit="10"/>
<path d="M101.125 459.377L190.798 508.443L134.469 373.908" stroke="#171949" stroke-miterlimit="10"/>
<path d="M380.906 46.9328C382.7 35.7542 393.374 28.1737 400.706 29.5248C410.319 31.2884 412.6 40.6893 410.807 51.8679" fill="#85DEED"/>
<path d="M380.906 46.9328C382.7 35.7542 393.374 28.1737 400.706 29.5248C410.319 31.2884 412.6 40.6893 410.807 51.8679" stroke="#171949" stroke-miterlimit="10"/>
<path d="M394.58 48.0499L394.537 48.2916L387.005 47.6445L366.918 104.178L392.744 113.422L393.741 87.6445L397.134 88.2561C398.947 88.5793 400.816 88.1759 402.329 87.1346C403.842 86.0933 404.877 84.4991 405.205 82.7023L410.994 50.9939L394.58 48.0499Z" fill="#F9C0C0" stroke="#171949" stroke-miterlimit="10"/>
<path d="M393.816 87.4657L385.207 83.9102C385.207 83.9102 384.382 92.9342 393.4 96.2479C393.515 92.1946 393.816 87.4657 393.816 87.4657Z" fill="#171949" stroke="#171949" stroke-miterlimit="10"/>
<path d="M399.557 51.9104C399.557 51.9104 396.688 71.8215 392.384 69.6882C388.079 67.5549 395.253 59.7326 390.231 59.0215C385.21 58.3104 386.645 78.2215 371.579 72.5326C360.101 66.8438 373.732 48.3549 382.34 47.6437C390.949 46.9326 399.557 51.9104 399.557 51.9104Z" fill="#171949" stroke="#171949" stroke-miterlimit="10"/>
<path d="M367.183 89.6149C367.183 89.6149 261.821 83.2149 254.647 128.015C248.191 161.423 269.354 251.378 269.354 251.378L367.183 89.6149Z" fill="#A6C94F"/>
<path d="M367.19 89.6149C367.19 89.6149 261.827 83.2149 254.654 128.015C248.197 161.437 269.719 251.037 269.719 251.037L367.19 89.6149Z" stroke="#171949" stroke-miterlimit="10"/>
<path d="M410.848 56.1855L363.077 45.8673C362.875 45.8263 362.684 45.7453 362.514 45.6292C362.345 45.5131 362.201 45.3642 362.091 45.1915C361.981 45.0188 361.908 44.8258 361.875 44.6242C361.842 44.4226 361.851 44.2166 361.901 44.0184C361.993 43.651 362.221 43.3315 362.54 43.1234C362.859 42.9152 363.245 42.8336 363.622 42.8948L411.888 50.7171C412.24 50.772 412.577 50.8976 412.879 51.0863C413.181 51.275 413.44 51.5228 413.642 51.8144C413.843 52.106 413.982 52.4354 414.051 52.7823C414.119 53.1292 414.116 53.4863 414.04 53.8317L413.968 54.1873C413.897 54.5221 413.759 54.8397 413.563 55.1216C413.368 55.4035 413.117 55.6443 412.827 55.83C412.537 56.0157 412.213 56.1427 411.873 56.2038C411.534 56.2648 411.185 56.2586 410.848 56.1855Z" fill="#85DEED" stroke="#171949" stroke-miterlimit="10"/>
<path d="M279.042 201.957L192.238 356.979L93.7695 409.815L147.05 495.959L235.963 422.97C242.169 417.878 247.563 411.885 251.96 405.193L342.171 268.09L279.042 201.957Z" fill="#B4CBF9" stroke="#171949" stroke-miterlimit="10"/>
<path d="M290.078 347.273L342.174 268.09L279.044 201.957L275.457 208.393C265.808 227.365 243.232 285.648 290.078 347.273Z" fill="#171949" stroke="#171949" stroke-miterlimit="10"/>
<path d="M229.799 602.312H14.6836C14.6836 602.312 22.4601 575.289 52.5831 577.423C82.7061 579.556 77.8494 595.2 107.972 585.245C138.095 575.289 152.68 576.712 170.17 589.512C187.66 602.312 203.908 585.956 229.799 602.312Z" fill="white"/>
<path d="M21.7031 589.802C27.3418 583.06 36.9547 576.291 52.5866 577.421C82.7168 579.555 77.8529 595.199 107.976 585.244C138.099 575.288 152.683 576.71 170.173 589.51C187.663 602.31 203.89 585.955 229.802 602.31H118.708" stroke="#171949" stroke-miterlimit="10"/>
<path d="M443.56 355.121C449.973 344.387 451.882 331.589 448.879 319.475C445.876 307.36 438.199 296.897 427.498 290.332L371.585 256L329.259 201.955H279.042C279.042 201.955 232.412 289.422 347.194 336.355C340.479 350.912 304.33 421.639 275.455 477.866H374.096C388.659 448.142 420.991 392.945 443.56 355.121Z" fill="#B4CBF9" stroke="#171949" stroke-miterlimit="10"/>
<path d="M279.043 201.955C279.043 201.955 347.912 79.893 371.93 90.0761C416.781 105.244 371.586 256 371.586 256L279.043 201.955Z" fill="#A6C94F"/>
<path d="M35.8477 440.888C35.8477 440.888 110.456 568.888 126.238 593.066C144.89 583.11 144.173 559.373 134.847 539.733C123.369 515.555 132.695 507.733 132.695 507.733L147.042 495.957L93.7694 409.812L35.8477 440.888Z" fill="#F99BCC" stroke="#171949" stroke-miterlimit="10"/>
<path d="M423.235 550.399C423.235 550.399 421.082 524.087 398.843 521.243C376.604 518.399 355.083 525.51 367.996 491.376C369.309 487.906 371.389 483.312 374.065 477.865H275.46C254.972 517.787 238.156 550.399 238.156 550.399H423.235Z" fill="#F99BCC" stroke="#171949" stroke-miterlimit="10"/>
<path d="M390.591 121.002C397.478 169.557 371.566 255.999 371.566 255.999L279.023 201.955C279.023 201.955 308.336 149.98 335.388 116.693C337.182 114.488 338.959 112.374 340.719 110.35" stroke="#171949" stroke-miterlimit="10"/>
<path d="M365.129 172.801L404.298 249.771C405.409 251.972 407.247 253.729 409.506 254.749C419.327 259.165 447.944 271.923 470.384 280.726C473.598 264.939 488.089 247.212 498.455 236.189C468.583 223.19 436.15 210.504 436.15 210.504C412.835 94.9484 371.585 90.3262 371.585 90.3262" fill="#A6C94F"/>
<path d="M532.992 272.357C537.297 273.779 553.079 271.646 547.34 261.69C544.786 257.253 522.44 246.615 498.45 236.176C488.084 247.198 473.593 264.926 470.379 280.713C478.27 283.806 485.394 286.402 490.667 288.002C514.34 295.113 528.688 270.935 532.992 272.357Z" fill="#F9C0C0" stroke="#171949" stroke-miterlimit="10"/>
<path d="M524.383 257.424C524.383 257.424 555.231 286.579 523.515 296.229C519.362 285.868 516.492 271.646 516.492 271.646" fill="#F9C0C0"/>
<path d="M524.383 257.424C524.383 257.424 555.231 286.579 523.515 296.229C519.362 285.868 516.492 271.646 516.492 271.646" stroke="#171949" stroke-miterlimit="10"/>
<path d="M516.49 261.691C516.49 261.691 544.167 295.206 514.187 304.052C510.034 293.691 507.164 279.469 507.164 279.469" fill="#F9C0C0"/>
<path d="M516.49 261.691C516.49 261.691 544.167 295.206 514.187 304.052C510.034 293.691 507.164 279.469 507.164 279.469" stroke="#171949" stroke-miterlimit="10"/>
<path d="M507.885 268.09C507.885 268.09 535.561 301.605 505.582 310.451C501.428 300.09 498.559 285.868 498.559 285.868" fill="#F9C0C0"/>
<path d="M507.885 268.09C507.885 268.09 535.561 301.605 505.582 310.451C501.428 300.09 498.559 285.868 498.559 285.868" stroke="#171949" stroke-miterlimit="10"/>
<path d="M478.828 283.955C478.828 283.955 494.223 289.423 494.223 302.223C490.636 302.935 489.202 309.335 493.506 313.601C497.81 317.868 522.201 312.89 499.962 275.201" fill="#F9C0C0"/>
<path d="M478.828 283.955C478.828 283.955 494.223 289.423 494.223 302.223C490.636 302.935 489.202 309.335 493.506 313.601C497.81 317.868 522.201 312.89 499.962 275.201" stroke="#171949" stroke-miterlimit="10"/>
<path d="M238.148 550.401H423.234C422.787 546.495 421.805 542.667 420.314 539.023H244.009C240.308 546.22 238.148 550.401 238.148 550.401Z" fill="#171949" stroke="#171949" stroke-miterlimit="10"/>
<path d="M488.055 602.311H372.656C372.656 602.311 376.824 582.678 392.987 584.228C409.15 585.778 406.538 597.142 422.701 589.917C438.864 582.692 446.683 583.716 456.067 593.017C465.45 602.318 474.166 590.429 488.055 602.311Z" fill="white" stroke="#171949" stroke-miterlimit="10"/>
<path d="M365.125 172.801L404.294 249.771C405.405 251.972 407.244 253.729 409.502 254.749C419.323 259.165 447.94 271.922 470.38 280.726C473.594 264.939 488.085 247.211 498.451 236.189C468.579 223.19 436.146 210.504 436.146 210.504C410.32 83.926 365.125 89.6149 365.125 89.6149" stroke="#171949" stroke-miterlimit="10"/>
<path d="M383.777 490.666H258.234L269.713 465.066H395.255L383.777 490.666Z" fill="#9BC1F9" stroke="#171949" stroke-miterlimit="10"/>
<path d="M107.648 390.104L170.018 497.186L147.652 509.986L85.2826 402.904L107.648 390.104Z" fill="#9BC1F9" stroke="#171949" stroke-miterlimit="10"/>
<path d="M539.842 560.356H206.71C203.02 560.361 199.375 559.55 196.042 557.981C192.708 556.413 189.77 554.127 187.441 551.29L164.276 523.158C163.24 521.839 162.766 520.17 162.955 518.509C163.144 516.848 163.981 515.326 165.288 514.268C166.594 513.211 168.266 512.703 169.946 512.852C171.626 513.001 173.18 513.795 174.277 515.066L197.448 543.197C198.566 544.562 199.978 545.663 201.581 546.417C203.183 547.171 204.936 547.56 206.71 547.556H539.842C541.52 547.555 543.179 547.204 544.711 546.527C546.244 545.849 547.615 544.86 548.738 543.624L574.815 514.838C575.975 513.646 577.556 512.945 579.226 512.885C580.896 512.824 582.525 513.408 583.77 514.513C585.014 515.618 585.779 517.159 585.901 518.811C586.024 520.463 585.496 522.098 584.428 523.371L558.351 552.179C556.016 554.752 553.162 556.81 549.974 558.219C546.785 559.628 543.333 560.356 539.842 560.356Z" fill="#85DEED" stroke="#171949" stroke-miterlimit="10"/>
<path d="M501.603 586.286C504.434 576.179 502.156 566.726 496.514 565.173C490.871 563.62 484.002 570.554 481.17 580.662C478.338 590.769 480.617 600.222 486.259 601.775C491.902 603.328 498.771 596.394 501.603 586.286Z" fill="#171949" stroke="#171949" stroke-miterlimit="10"/>
<path d="M495.437 584.588C496.56 580.577 495.658 576.826 493.421 576.21C491.184 575.594 488.459 578.347 487.335 582.358C486.212 586.369 487.114 590.12 489.351 590.736C491.588 591.352 494.313 588.599 495.437 584.588Z" fill="white" stroke="#171949" stroke-miterlimit="10"/>
<path d="M245.493 586.288C248.325 576.181 246.046 566.728 240.404 565.175C234.762 563.622 227.892 570.556 225.061 580.664C222.229 590.771 224.508 600.224 230.15 601.777C235.792 603.33 242.662 596.396 245.493 586.288Z" fill="#171949" stroke="#171949" stroke-miterlimit="10"/>
<path d="M239.327 584.59C240.451 580.579 239.549 576.828 237.311 576.212C235.074 575.596 232.35 578.349 231.226 582.36C230.102 586.371 231.005 590.122 233.242 590.738C235.479 591.354 238.204 588.601 239.327 584.59Z" fill="white" stroke="#171949" stroke-miterlimit="10"/>
<path d="M294.102 128L303.686 161.38" stroke="#171949" stroke-miterlimit="10"/>
<path d="M296.153 531.684C294.504 531.693 292.876 531.312 291.404 530.575C284.947 527.311 283.233 517.824 287.559 509.419C290.773 503.168 296.713 498.973 302.344 498.973C303.993 498.963 305.621 499.344 307.093 500.082C313.55 503.346 315.264 512.832 310.938 521.238C307.724 527.481 301.784 531.684 296.153 531.684Z" fill="white"/>
<path d="M302.356 499.328C303.949 499.317 305.521 499.686 306.94 500.402C313.21 503.574 314.867 512.847 310.634 521.081C307.478 527.204 301.667 531.328 296.165 531.328C294.572 531.338 293.001 530.97 291.581 530.255C285.311 527.083 283.689 517.81 287.886 509.576C291.043 503.446 296.861 499.328 302.356 499.328ZM302.356 498.617C296.717 498.617 290.648 502.656 287.248 509.284C282.829 517.874 284.622 527.567 291.251 530.916C292.773 531.683 294.457 532.078 296.165 532.068C301.803 532.068 307.873 528.029 311.273 521.401C315.692 512.804 313.899 503.119 307.27 499.769C305.748 499.002 304.063 498.607 302.356 498.617Z" fill="black"/>
<path d="M81.6684 468.316C76.6467 468.316 72.5863 466.282 70.5131 462.727C68.7698 459.733 68.6766 456.028 70.2405 452.302C72.0185 448.316 75.0615 445.015 78.9065 442.901C82.05 441.073 85.6213 440.093 89.2655 440.057C94.2872 440.057 98.3477 442.09 100.421 445.646C102.164 448.64 102.257 452.345 100.694 456.071C98.9091 460.04 95.8663 463.323 92.0275 465.422C88.8903 467.271 85.3178 468.269 81.6684 468.316Z" fill="white"/>
<path d="M89.2921 440.385C94.1775 440.385 98.1303 442.355 100.132 445.797C101.818 448.691 101.911 452.282 100.39 455.909C98.6452 459.828 95.6547 463.075 91.8747 465.153C88.7919 466.97 85.2812 467.951 81.695 467.997C76.8096 467.997 72.8568 466.028 70.8553 462.586C69.1695 459.692 69.0762 456.1 70.5971 452.474C72.3419 448.554 75.3324 445.307 79.1124 443.229C82.1952 441.413 85.7059 440.432 89.2921 440.385ZM89.2921 439.674C85.5825 439.721 81.9497 440.729 78.7537 442.597C70.3245 447.425 66.508 456.513 70.2312 462.906C72.4336 466.682 76.7738 468.673 81.7094 468.673C85.419 468.625 89.0518 467.618 92.2478 465.75C100.677 460.922 104.494 451.834 100.77 445.441C98.5679 441.658 94.2277 439.674 89.2921 439.674Z" fill="black"/>
<path d="M374.813 513.387C374.813 513.387 365.38 513.387 362.188 524.38" stroke="#171949" stroke-miterlimit="10"/>
<path d="M385.427 515.037C385.427 515.037 375.993 515.037 372.801 526.031" stroke="#171949" stroke-miterlimit="10"/>
<path d="M396.06 516.686C396.06 516.686 386.626 516.686 383.434 527.679" stroke="#171949" stroke-miterlimit="10"/>
<path d="M386.038 513.423C386.028 513.423 386.018 513.42 386.009 513.416C386.001 513.411 385.993 513.403 385.988 513.395C385.983 513.386 385.98 513.376 385.98 513.366C385.98 513.356 385.983 513.346 385.988 513.338C386.949 511.915 399.102 494.593 405.3 503.467C411.498 512.342 387.839 513.359 386.038 513.423Z" stroke="#171949" stroke-miterlimit="10"/>
<path d="M386.098 513.572C386.087 513.577 386.076 513.579 386.064 513.578C386.052 513.577 386.041 513.574 386.032 513.567C386.022 513.561 386.015 513.552 386.01 513.541C386.005 513.531 386.003 513.519 386.004 513.508C386.241 511.488 389.469 486.244 400.625 493.099C411.78 499.954 387.927 512.626 386.098 513.572Z" stroke="#171949" stroke-miterlimit="10"/>
<path d="M137.235 524.742C137.235 524.742 133.526 516.138 122.055 517.589" stroke="#171949" stroke-miterlimit="10"/>
<path d="M139.903 535.112C139.903 535.112 136.194 526.515 124.723 527.958" stroke="#171949" stroke-miterlimit="10"/>
<path d="M142.571 545.409C142.571 545.409 138.869 536.812 127.391 538.255" stroke="#171949" stroke-miterlimit="10"/>
<path d="M141.66 534.998C141.657 534.989 141.655 534.98 141.657 534.97C141.658 534.96 141.661 534.951 141.667 534.943C141.673 534.936 141.681 534.929 141.69 534.925C141.698 534.921 141.708 534.919 141.718 534.92C143.389 535.24 164.273 539.457 158.49 548.609C152.708 557.761 142.378 536.613 141.66 534.998Z" stroke="#171949" stroke-miterlimit="10"/>
<path d="M141.515 535.111C141.505 535.106 141.496 535.097 141.49 535.087C141.484 535.077 141.48 535.066 141.48 535.054C141.48 535.042 141.484 535.031 141.49 535.021C141.496 535.011 141.505 535.003 141.515 534.997C143.481 534.421 168.152 527.395 166.201 540.252C164.249 553.109 143.094 536.398 141.515 535.111Z" stroke="#171949" stroke-miterlimit="10"/>
<path d="M46.8452 434.986L35.8477 440.889C35.8477 440.889 110.456 568.889 126.238 593.066C129.807 591.197 132.914 588.567 135.335 585.365L46.8452 434.986Z" fill="#171949" stroke="#171949" stroke-miterlimit="10"/>
<path d="M128.777 602.311H680.583V625.422H128.777V602.311Z" fill="#171949" stroke="#171949" stroke-miterlimit="10"/>
<path opacity="0.81" d="M542.833 122.367C540.331 122.358 537.866 122.963 535.659 124.13C534.242 119.443 531.448 115.28 527.634 112.173C523.82 109.066 519.159 107.156 514.245 106.687C512.576 102.002 509.29 98.0521 504.967 95.5363C500.645 93.0205 495.564 92.1004 490.623 92.9387C485.683 93.7769 481.2 96.3195 477.968 100.117C474.735 103.915 472.961 108.723 472.959 113.691C467.33 113.701 461.934 115.924 457.957 119.873C453.98 123.822 451.746 129.174 451.746 134.754H557.747C557.124 131.282 555.288 128.139 552.561 125.874C549.834 123.609 546.39 122.367 542.833 122.367Z" fill="white"/>
<path opacity="0.81" d="M490.848 188.977C489.74 188.976 488.649 189.245 487.67 189.76C487.037 187.67 485.79 185.814 484.088 184.431C482.386 183.048 480.306 182.199 478.114 181.994C477.372 179.908 475.91 178.149 473.986 177.029C472.061 175.909 469.799 175.499 467.6 175.873C465.4 176.247 463.405 177.38 461.967 179.071C460.529 180.763 459.741 182.904 459.742 185.116C457.238 185.122 454.839 186.112 453.07 187.869C451.302 189.626 450.309 192.006 450.309 194.488H497.484C497.207 192.943 496.391 191.544 495.177 190.536C493.964 189.529 492.431 188.977 490.848 188.977Z" fill="white"/>
<path opacity="0.81" d="M165.128 98.062C163.179 98.0579 161.259 98.5319 159.539 99.4416C158.428 95.7694 156.238 92.5084 153.25 90.0743C150.261 87.6402 146.61 86.1432 142.76 85.774C141.454 82.1022 138.88 79.0065 135.493 77.0345C132.107 75.0625 128.125 74.3413 124.254 74.9985C120.383 75.6557 116.871 77.6488 114.339 80.6255C111.807 83.6021 110.419 87.3704 110.42 91.2638C106.01 91.2638 101.781 92.9978 98.659 96.0854C95.5375 99.173 93.779 103.362 93.7695 107.733H176.814C176.318 105.019 174.876 102.564 172.74 100.797C170.605 99.029 167.91 98.0612 165.128 98.062Z" fill="white"/>
<path opacity="0.81" d="M609.872 99.2422C611.961 99.24 614.016 99.761 615.848 100.757C616.996 96.7801 619.317 93.234 622.513 90.5734C625.708 87.9127 629.632 86.2587 633.782 85.8236C634.967 82.3331 637.221 79.2963 640.23 77.1368C643.24 74.9772 646.854 73.8028 650.569 73.7773C660.397 73.7773 668.36 81.8627 668.36 91.8396C678.188 91.8111 686.159 99.9107 686.159 109.866H597.375C597.863 106.92 599.384 104.24 601.67 102.296C603.956 100.353 606.86 99.2714 609.872 99.2422Z" fill="white"/>
<path opacity="0.81" d="M240.237 89.0379C241.275 89.0291 242.3 89.2733 243.221 89.749C243.815 87.7878 244.984 86.0461 246.58 84.7455C248.175 83.445 250.125 82.6445 252.181 82.4459C252.877 80.482 254.252 78.8257 256.062 77.7706C257.872 76.7155 260 76.3296 262.07 76.6815C264.14 77.0334 266.017 78.1002 267.369 79.6929C268.721 81.2856 269.46 83.3013 269.456 85.3828C270.626 85.3818 271.785 85.61 272.866 86.0541C273.947 86.4982 274.929 87.1496 275.756 87.9709C276.582 88.7921 277.237 89.7671 277.682 90.8398C278.128 91.9125 278.355 93.0619 278.351 94.2219H233.988C234.251 92.7685 235.021 91.4529 236.163 90.5052C237.305 89.5575 238.747 89.0381 240.237 89.0379Z" fill="white"/>
</g>
<defs>
<clipPath id="clip0_2042_53754">
<rect width="722" height="625" fill="white"/>
</clipPath>
</defs>
</svg>
