<svg width="36" height="35" viewBox="0 0 36 35" fill="none" xmlns="http://www.w3.org/2000/svg">
<g id="Icons">
<path id="&#208;&#155;&#208;&#154;" d="M25.8302 28.1929C23.9611 26.1053 21.2453 24.7917 18.2227 24.7917C15.2 24.7917 12.484 26.1053 10.6148 28.1929M18.2227 30.625C10.9739 30.625 5.09766 24.7487 5.09766 17.5C5.09766 10.2513 10.9739 4.375 18.2227 4.375C25.4714 4.375 31.3477 10.2513 31.3477 17.5C31.3477 24.7487 25.4714 30.625 18.2227 30.625ZM18.2227 20.4167C15.8064 20.4167 13.8477 18.4579 13.8477 16.0417C13.8477 13.6254 15.8064 11.6667 18.2227 11.6667C20.6389 11.6667 22.5977 13.6254 22.5977 16.0417C22.5977 18.4579 20.6389 20.4167 18.2227 20.4167Z" stroke="#A6C94F" stroke-width="2" stroke-linecap="round" stroke-linejoin="round"/>
</g>
</svg>
