<svg width="280" height="287" viewBox="0 0 280 287" fill="none" xmlns="http://www.w3.org/2000/svg">
<path opacity="0.6" d="M29.7773 32.5039L67.5129 140.637L140.936 96.1337L64.0837 29.9461L29.7773 32.5039Z" fill="white" fill-opacity="0.7"/>
<path opacity="0.6" d="M77.8984 30.9619L154.613 92.4822L164.542 79.4634L77.8984 30.9619Z" fill="white" fill-opacity="0.7"/>
<path opacity="0.6" d="M23.9253 40.2488L43.07 171.547L62.7544 149.323L25.5703 34.8639L23.9253 40.2488Z" fill="white" fill-opacity="0.7"/>
<path d="M61.0047 242.285C66.1509 241.901 69.9224 236.221 69.4285 229.597C68.9347 222.974 64.3626 217.916 59.2164 218.299C54.0702 218.683 50.2988 224.363 50.7926 230.987C51.2864 237.61 55.8586 242.668 61.0047 242.285Z" fill="#171949" fill-opacity="0.8" stroke="#171949" stroke-opacity="0.8" stroke-miterlimit="10"/>
<path d="M28.8905 159.127C30.1333 159.034 31.0657 157.951 30.973 156.709C30.8803 155.466 29.7977 154.534 28.555 154.626C27.3122 154.719 26.3798 155.801 26.4725 157.044C26.5651 158.287 27.6477 159.219 28.8905 159.127Z" fill="#171949" fill-opacity="0.8" stroke="#171949" stroke-opacity="0.8" stroke-miterlimit="10"/>
<path d="M178.534 57.5904C178.532 57.5854 178.528 57.5812 178.523 57.5784C178.519 57.5755 178.513 57.5742 178.508 57.5747C178.502 57.5751 178.497 57.5771 178.493 57.5806C178.489 57.5841 178.486 57.5888 178.484 57.5941C177.817 58.5209 173.736 59.9332 173.736 59.9332L173.686 59.972C171.516 60.7857 168.768 61.6864 165.748 62.5459C159.971 64.1899 154.953 65.1926 153.017 65.1469C153.139 65.968 153.26 66.8039 153.381 67.6456L153.384 67.6776C154.317 74.1566 155.217 80.9714 155.553 83.5628L155.561 83.6675C155.6 83.9569 155.63 84.1944 155.651 84.3595L155.655 84.4119L155.669 84.6008L155.673 84.6561C155.673 84.6561 136.242 74.9956 125.256 68.7983C114.269 62.6011 106.12 67.0093 106.12 67.0093L123.66 110.138C123.66 110.138 157.875 118.112 172.334 112.064C183.933 110.053 178.766 59.8008 178.534 57.5904Z" fill="#EA7F98" fill-opacity="0.7" stroke="#171949" stroke-opacity="0.8" stroke-miterlimit="10"/>
<path d="M178.524 57.3683C178.398 56.9217 176.302 57.0867 173.15 57.7076C173.327 58.4311 173.505 59.1808 173.686 59.9509C176.749 58.8075 178.655 57.8292 178.524 57.3683Z" fill="#171949" fill-opacity="0.8" stroke="#171949" stroke-opacity="0.8" stroke-miterlimit="10"/>
<path d="M162.742 112.484C162.742 112.484 240.693 91.4695 239.02 127.845C237.347 164.221 223.8 229.548 223.8 229.548L174.001 259.572L196.837 142.392L123.777 146.67L110.283 122.534L162.742 112.484Z" fill="#6C9ED8" fill-opacity="0.7" stroke="#171949" stroke-opacity="0.8" stroke-miterlimit="10"/>
<path d="M135.604 120.65C135.604 120.65 200.682 221.043 167.512 234.917C137.568 247.444 61.0602 242.27 61.0602 242.27L52.4021 196.724L133.156 201.52L108.347 147.85C108.347 147.85 125.563 116.937 135.604 120.65Z" fill="#6C9ED8" fill-opacity="0.7"/>
<path d="M141.208 129.701C156.248 154.701 194.587 223.596 167.512 234.917C137.568 247.444 61.0602 242.27 61.0602 242.27L52.4021 196.724L133.155 201.52L108.347 147.85C108.347 147.85 125.563 116.937 135.604 120.65" stroke="#171949" stroke-opacity="0.8" stroke-miterlimit="10"/>
<path d="M83.0072 85.6877L109.841 151.512C119.368 122.444 162.77 112.484 162.77 112.484L106.171 67.0044C106.171 67.0044 89.9683 73.1824 83.0072 85.6877Z" fill="#EA7F98" fill-opacity="0.7"/>
<path d="M106.171 67.0073C106.171 67.0073 89.9683 73.1853 83.0072 85.6906L109.841 151.515C119.368 122.447 162.77 112.487 162.77 112.487L118.978 77.3078" stroke="#171949" stroke-opacity="0.8" stroke-miterlimit="10"/>
<path d="M139.128 121.269C138.166 118.759 129.663 114.666 117.681 117.314C105.7 119.961 106.454 101.3 108.895 95.9255C111.336 90.5514 115.006 89.4271 109.223 90.288C109.223 90.288 97.9786 91.9625 95.7407 105.197C94.1527 114.601 92.5354 118.121 77.2382 122.609C69.5009 124.542 62.8039 129.377 58.5353 136.114C54.2666 142.85 52.7537 150.97 54.31 158.792C55.8664 166.614 60.3727 173.537 66.8949 178.126C73.4171 182.715 81.455 184.618 89.3427 183.442C100.405 181.796 110.157 175.318 114.266 165.762C116.745 160.511 119.386 152.49 120.285 141.171C121.84 125.917 140.093 123.779 139.128 121.269Z" fill="#171949" fill-opacity="0.8" stroke="#171949" stroke-opacity="0.8" stroke-miterlimit="10"/>
<path d="M166.02 30.3545L174.101 36.3136L88.9009 151.85L80.8199 145.891L166.02 30.3545Z" fill="#FCF8DE" fill-opacity="0.9" stroke="#171949" stroke-opacity="0.8" stroke-miterlimit="10"/>
<path d="M153.875 49.4834L159.41 53.5652L95.0415 140.854L89.5064 136.772L153.875 49.4834Z" fill="#FCF8DE" fill-opacity="0.9" stroke="#171949" stroke-opacity="0.8" stroke-miterlimit="10"/>
<path d="M153.148 53.1367L156.314 55.4709L97.534 135.18L94.3687 132.846L153.148 53.1367Z" fill="#FCF8DE" fill-opacity="0.9" stroke="#171949" stroke-opacity="0.8" stroke-miterlimit="10"/>
<path d="M168.953 43.2802L160.873 37.3223L175.321 7.01031C175.437 6.76698 175.621 6.56198 175.85 6.41933C176.079 6.27668 176.344 6.20228 176.614 6.20486C176.884 6.20744 177.148 6.2869 177.374 6.43391C177.6 6.58092 177.78 6.7894 177.892 7.03491L186.266 25.5155C186.507 26.0443 186.57 26.6365 186.448 27.2043C186.325 27.7722 186.023 28.2854 185.586 28.668L168.953 43.2802Z" fill="#171949" fill-opacity="0.8" stroke="#171949" stroke-opacity="0.8" stroke-miterlimit="10"/>
<path d="M67.543 148.112L71.992 143.606L89.9202 161.308L85.4712 165.814L67.543 148.112Z" fill="#FCF8DE" fill-opacity="0.9" stroke="#171949" stroke-opacity="0.8" stroke-miterlimit="10"/>
<path d="M92.3314 171.53C94.4188 171.375 95.9847 169.556 95.8291 167.469C95.6735 165.381 93.8552 163.816 91.7678 163.971C89.6804 164.127 88.1144 165.945 88.2701 168.032C88.4257 170.12 90.244 171.686 92.3314 171.53Z" fill="#FCF8DE" fill-opacity="0.9" stroke="#171949" stroke-opacity="0.8" stroke-miterlimit="10"/>
<path d="M165.768 62.5347C168.788 61.6752 171.536 60.7745 173.706 59.9607C171.962 52.4897 170.296 47.0038 169.808 46.1836C168.137 43.3846 150.631 52.5102 151.096 54.0103C151.524 55.3876 152.27 59.9481 153.038 65.1473C154.973 65.1814 159.991 64.1787 165.768 62.5347Z" fill="#F9C0C0" fill-opacity="0.9" stroke="#171949" stroke-opacity="0.8" stroke-miterlimit="10"/>
<path d="M101.381 69.9406C101.257 69.7744 101.131 69.6084 101.002 69.4455C100.215 69.8667 99.3675 70.3451 98.4773 70.8733L91.9176 60.1772L84.7422 65.6119L90.4695 76.6713C89.2086 77.781 88.018 78.9682 86.9047 80.226L87.0979 80.5039C91.8257 86.9017 98.0451 88.3675 101.988 85.4541C105.931 82.5407 106.109 76.3384 101.381 69.9406Z" fill="#F9C0C0" fill-opacity="0.9" stroke="#171949" stroke-opacity="0.8" stroke-miterlimit="10"/>
<path d="M80.7773 57.8877L92.645 51.7429L97.5164 61.1511C97.8801 61.8535 98.1018 62.6207 98.169 63.4088C98.2362 64.1969 98.1476 64.9905 97.908 65.7444C97.6685 66.4982 97.2829 67.1975 96.7731 67.8023C96.2634 68.4071 95.6395 68.9056 94.9371 69.2693L88.4181 72.6446L80.7773 57.8877Z" fill="#F9C0C0" fill-opacity="0.7"/>
<path d="M88.4094 72.6475L80.7808 57.8885L92.6479 51.7414L97.5213 61.1512C97.8849 61.8534 98.1066 62.6202 98.1738 63.4081C98.241 64.1959 98.1523 64.9892 97.9128 65.7428C97.6734 66.4964 97.2878 67.1954 96.7782 67.7999C96.2686 68.4044 95.6449 68.9027 94.9427 69.2661L93.1355 70.2019" stroke="#171949" stroke-opacity="0.8" stroke-miterlimit="10"/>
<path d="M96.666 67.9232C96.1764 68.4747 95.5889 68.9309 94.9332 69.2685L93.1261 70.2043C93.1261 70.2043 94.7754 71.0724 97.596 69.6927C97.2454 69.1251 96.9346 68.5338 96.666 67.9232Z" fill="#171949" fill-opacity="0.8" stroke="#171949" stroke-opacity="0.8" stroke-miterlimit="10"/>
<path d="M84.1795 50.5209C84.1795 50.5209 76.5898 54.595 78.338 62.358C79.3097 67.5478 73.7947 64.1585 71.6639 66.9485C69.5332 69.7385 70.5571 71.7086 71.5377 73.0972C72.5183 74.4859 71.5287 76.8984 68.5997 76.8245C65.6707 76.7505 64.4772 80.3477 66.7941 83.9754C69.0333 82.6391 88.4652 72.7122 88.4652 72.7122C88.4652 72.7122 84.7252 65.6823 85.1549 63.6039C85.5847 61.5254 87.1811 67.2533 88.6131 66.8542C90.0451 66.4551 83.4542 58.673 88.2645 55.4348C93.0749 52.1965 87.2475 48.5381 84.1795 50.5209Z" fill="#85DEED" fill-opacity="0.7" stroke="#171949" stroke-opacity="0.8" stroke-miterlimit="10"/>
<path d="M164.326 47.1772C164.326 47.1772 162.739 37.6481 157.579 35.1093C156.308 33.7423 163.681 26.761 170.163 47.0344" fill="#F9C0C0" fill-opacity="0.7"/>
<path d="M164.326 47.1772C164.326 47.1772 162.739 37.6481 157.579 35.1093C156.308 33.7423 163.681 26.761 170.163 47.0344" stroke="#171949" stroke-opacity="0.8" stroke-miterlimit="10"/>
<path d="M85.3328 54.2355C85.3328 54.2355 90.4053 55.6114 94.9741 61.9948C99.5429 68.3781 105.701 64.7032 105.957 60.2988C108.326 60.7069 111.78 56.0641 109.173 52.458C106.565 48.8519 102.538 49.7369 101.301 52.7526C97.9082 50.3744 90.8095 45.3491 83.1883 51.1562" fill="#85DEED" fill-opacity="0.7"/>
<path d="M85.3328 54.2355C85.3328 54.2355 90.4053 55.6114 94.9741 61.9948C99.5429 68.3781 105.701 64.7032 105.957 60.2988C108.326 60.7069 111.78 56.0641 109.173 52.458C106.565 48.8519 102.538 49.7369 101.301 52.7526C97.9082 50.3744 90.8095 45.3491 83.1883 51.1562" stroke="#171949" stroke-opacity="0.8" stroke-miterlimit="10"/>
<path d="M84.9691 82.6215C84.9691 82.6215 77.3436 92.2529 72.0912 119.833C66.8388 147.413 60.3292 158.13 136.579 157.415C136.579 157.415 144.246 158.305 141.557 141.842C140.273 136.383 143.341 134.4 138.872 133.272C134.402 132.143 91.5868 130.366 91.5868 130.366L96.2794 103.12" fill="#F9C0C0" fill-opacity="0.7"/>
<path d="M84.9691 82.6215C84.9691 82.6215 77.3436 92.2529 72.0912 119.833C66.8388 147.413 60.3292 158.13 136.579 157.415C136.579 157.415 144.246 158.305 141.557 141.842C140.273 136.383 143.341 134.4 138.872 133.272C134.402 132.143 91.5868 130.366 91.5868 130.366L96.2794 103.12" stroke="#171949" stroke-opacity="0.8" stroke-miterlimit="10"/>
<path d="M157.772 49.4203C157.772 49.4203 158.372 41.7746 154.827 37.3613C154.063 38.88 150.618 39.7216 149.841 37.1483C149.064 34.5751 151.199 30.975 155.556 31.4599C160.273 31.9853 164.681 40.1347 165.245 47.6938" fill="#F9C0C0" fill-opacity="0.7"/>
<path d="M157.772 49.4203C157.772 49.4203 158.372 41.7746 154.827 37.3613C154.063 38.88 150.618 39.7216 149.841 37.1483C149.064 34.5751 151.199 30.975 155.556 31.4599C160.273 31.9853 164.681 40.1347 165.245 47.6938" stroke="#171949" stroke-opacity="0.8" stroke-miterlimit="10"/>
<path d="M155.307 51.6508C155.307 51.6508 149.553 45.0634 146.98 45.84C144.407 46.6165 145.74 40.9625 150.079 40.3467C154.418 39.7308 159.039 42.8944 160.701 49.4945" fill="#F9C0C0" fill-opacity="0.7"/>
<path d="M155.307 51.6508C155.307 51.6508 149.553 45.0634 146.98 45.84C144.407 46.6165 145.74 40.9625 150.079 40.3467C154.418 39.7308 159.039 42.8944 160.701 49.4945" stroke="#171949" stroke-opacity="0.8" stroke-miterlimit="10"/>
<path d="M157.093 52.1029C157.093 52.1029 153.761 42.7038 147.43 44.0529C141.099 45.402 142.847 53.165 145.26 54.1545C147.672 55.144 149.803 52.354 149.113 50.9437C148.736 49.8025 150.692 51.4897 151.59 56.2055" fill="#F9C0C0" fill-opacity="0.7"/>
<path d="M157.093 52.1029C157.093 52.1029 153.761 42.7038 147.43 44.0529C141.099 45.402 142.847 53.165 145.26 54.1545C147.672 55.144 149.803 52.354 149.113 50.9437C148.736 49.8025 150.692 51.4897 151.59 56.2055" stroke="#171949" stroke-opacity="0.8" stroke-miterlimit="10"/>
<path d="M132.788 157.405C151.568 158.344 150.284 152.885 150.284 152.885L140.625 152.728" fill="#F9C0C0" fill-opacity="0.7"/>
<path d="M132.788 157.405C151.568 158.344 150.284 152.885 150.284 152.885L140.625 152.728" stroke="#171949" stroke-opacity="0.8" stroke-miterlimit="10"/>
<path d="M139.546 153.977C163.464 157.164 157.32 145.343 157.32 145.343C157.32 145.343 144.497 149.808 139.984 148.098" fill="#F9C0C0" fill-opacity="0.7"/>
<path d="M139.546 153.977C163.464 157.164 157.32 145.343 157.32 145.343C157.32 145.343 144.497 149.808 139.984 148.098" stroke="#171949" stroke-opacity="0.8" stroke-miterlimit="10"/>
<path d="M140.042 144.878C140.042 144.878 154.76 142.319 155.685 139.034C159.13 138.192 160.684 143.339 158.531 145.838C154.727 150.255 144.879 150.949 138.397 150.263" fill="#F9C0C0" fill-opacity="0.7"/>
<path d="M140.042 144.878C140.042 144.878 154.76 142.319 155.685 139.034C159.13 138.192 160.684 143.339 158.531 145.838C154.727 150.255 144.879 150.949 138.397 150.263" stroke="#171949" stroke-opacity="0.8" stroke-miterlimit="10"/>
<path d="M138.53 139.907C138.53 139.907 149.291 140.724 150.782 138.994C149.099 138.146 149.789 134.504 153.024 134.286C155.625 134.113 159.331 137.008 156.484 141.486C154.074 145.276 142.313 147.083 137.403 146.475" fill="#F9C0C0" fill-opacity="0.7"/>
<path d="M138.53 139.907C138.53 139.907 149.291 140.724 150.782 138.994C149.099 138.146 149.789 134.504 153.024 134.286C155.625 134.113 159.331 137.008 156.484 141.486C154.074 145.276 142.313 147.083 137.403 146.475" stroke="#171949" stroke-opacity="0.8" stroke-miterlimit="10"/>
<path d="M134.335 132.709C134.335 132.709 142.992 133.549 143.466 132.052C143.939 130.555 146.846 130.338 147.557 132.039C148.269 133.74 145.031 141.29 138.01 141.229" fill="#F9C0C0" fill-opacity="0.7"/>
<path d="M134.335 132.709C134.335 132.709 142.992 133.549 143.466 132.052C143.939 130.555 146.846 130.338 147.557 132.039C148.269 133.74 145.031 141.29 138.01 141.229" stroke="#171949" stroke-opacity="0.8" stroke-miterlimit="10"/>
<path d="M179.524 231.393C179.524 231.393 193.62 243.497 205.507 230.917C209.124 227.432 200.987 213.421 217.958 213.617C228.467 213.418 228.654 219.836 226.205 234.051C225.992 239.037 262.855 223.718 267.6 259.907L172.531 266.996L179.524 231.393Z" fill="#FFDA66" fill-opacity="0.7" stroke="#171949" stroke-opacity="0.8" stroke-miterlimit="10"/>
<path d="M206.533 228.169C206.487 232.412 207.782 246.494 227.301 244.787C250.247 242.784 251.432 242.988 251.432 242.988L255.461 238.645C243.075 231.441 226.063 237.442 226.208 234.052C228.656 219.837 228.47 213.419 217.961 213.618C204.033 213.458 207.014 222.862 206.533 228.169Z" fill="#FFDA66" fill-opacity="0.7" stroke="#171949" stroke-opacity="0.8" stroke-miterlimit="10"/>
<path d="M253.651 237.706C250.009 239.839 244.247 244.353 242.456 252.24C242.298 252.903 241.933 253.5 241.413 253.942C240.894 254.384 240.247 254.648 239.566 254.697L173.878 259.595L172.525 267.005L267.594 259.916C265.918 247.158 260.269 240.802 253.651 237.706Z" fill="#FCF8DE" fill-opacity="0.7" stroke="#171949" stroke-opacity="0.8" stroke-miterlimit="10"/>
<path d="M248.495 235.919C248.495 235.919 241.36 237.307 239.415 246.515" stroke="#171949" stroke-opacity="0.8" stroke-miterlimit="10"/>
<path d="M241.696 234.963C241.696 234.963 234.786 235.458 232.434 247.035" stroke="#171949" stroke-opacity="0.8" stroke-miterlimit="10"/>
<path d="M234.676 234.903C234.676 234.903 227.767 235.397 225.414 246.974" stroke="#171949" stroke-opacity="0.8" stroke-miterlimit="10"/>
<path d="M227.075 234.884C227.075 234.884 220.165 235.379 217.813 246.956" stroke="#171949" stroke-opacity="0.8" stroke-miterlimit="10"/>
<path d="M239.703 246.494C240.024 246.47 240.265 246.19 240.241 245.869C240.217 245.548 239.938 245.307 239.617 245.331C239.295 245.355 239.055 245.634 239.079 245.955C239.102 246.277 239.382 246.518 239.703 246.494Z" fill="#171949" fill-opacity="0.8" stroke="#171949" stroke-opacity="0.8" stroke-miterlimit="10"/>
<path d="M232.438 247.036C232.759 247.012 233 246.732 232.976 246.411C232.952 246.09 232.672 245.849 232.351 245.873C232.03 245.897 231.789 246.176 231.813 246.497C231.837 246.819 232.117 247.06 232.438 247.036Z" fill="#171949" fill-opacity="0.8" stroke="#171949" stroke-opacity="0.8" stroke-miterlimit="10"/>
<path d="M225.457 247.556C225.778 247.532 226.019 247.252 225.995 246.931C225.971 246.61 225.692 246.369 225.371 246.393C225.049 246.417 224.808 246.697 224.832 247.018C224.856 247.339 225.136 247.58 225.457 247.556Z" fill="#171949" fill-opacity="0.8" stroke="#171949" stroke-opacity="0.8" stroke-miterlimit="10"/>
<path d="M217.856 247.538C218.177 247.514 218.418 247.234 218.394 246.913C218.37 246.592 218.09 246.351 217.769 246.375C217.448 246.399 217.207 246.678 217.231 246.999C217.255 247.321 217.535 247.561 217.856 247.538Z" fill="#171949" fill-opacity="0.8" stroke="#171949" stroke-opacity="0.8" stroke-miterlimit="10"/>
<path d="M62.975 197.4C62.975 197.4 49.321 211.498 61.6385 223.665C65.0449 227.358 79.2307 219.529 78.6595 236.493C78.6276 247.005 72.208 247.048 58.0514 244.289C53.0575 243.968 67.5768 281.157 31.2897 285.105L26.5562 195.152L62.975 197.4Z" fill="#FFDA66" fill-opacity="0.7" stroke="#171949" stroke-opacity="0.8" stroke-miterlimit="10"/>
<path d="M64.3642 224.741C60.1235 224.601 46.0093 225.586 47.2917 245.139C48.792 268.123 48.5618 269.31 48.5618 269.31L52.8161 273.436C60.2921 261.211 54.6606 244.064 58.0512 244.29C72.2067 247.036 78.6275 247.007 78.6593 236.495C79.1263 222.565 69.6593 225.337 64.3642 224.741Z" fill="#FFDA66" fill-opacity="0.7" stroke="#171949" stroke-opacity="0.8" stroke-miterlimit="10"/>
<path d="M32.6339 284.935L33.4611 284.814L33.672 284.781C34.0044 284.73 34.3305 284.674 34.6535 284.614L34.8784 284.571L35.6419 284.421L35.8953 284.37C36.209 284.303 36.5166 284.233 36.8211 284.16L36.8938 284.155C37.181 284.087 37.4506 284.017 37.7229 283.944L37.9666 283.879L38.6965 283.67L38.8423 283.627C39.1283 283.541 39.4141 283.453 39.6765 283.366L39.8762 283.298L40.5229 283.072L40.725 282.998C40.9868 282.903 41.2484 282.804 41.5038 282.7L41.5974 282.661C41.8245 282.571 42.0454 282.476 42.2664 282.38L42.4618 282.296C42.6825 282.197 42.9003 282.099 43.112 281.999L43.191 281.961C43.431 281.846 43.665 281.729 43.8933 281.616L44.0592 281.528C44.245 281.432 44.4275 281.331 44.6218 281.231L44.7678 281.15C44.9894 281.026 45.2051 280.898 45.4176 280.769L45.5127 280.712C45.6943 280.599 45.8759 280.486 46.0522 280.379L46.2056 280.28C46.4033 280.148 46.6011 280.017 46.7928 279.883C46.9901 279.745 47.1841 279.602 47.3749 279.456L47.5051 279.359C47.6628 279.239 47.8173 279.116 47.9717 278.991L48.0682 278.913C48.2501 278.765 48.4289 278.615 48.6017 278.461L48.6812 278.391C48.8293 278.26 48.9775 278.129 49.1222 277.993L49.2316 277.891C49.5609 277.576 49.8793 277.26 50.187 276.943L50.2845 276.839C50.417 276.695 50.5551 276.547 50.6757 276.401L50.7295 276.338C50.8748 276.169 51.0199 275.998 51.1592 275.827L51.2206 275.749C51.3381 275.6 51.4548 275.439 51.57 275.299L51.6474 275.2C51.9078 274.849 52.1581 274.494 52.3983 274.135C52.4192 274.101 52.443 274.067 52.4636 274.031C52.5767 273.862 52.684 273.693 52.7908 273.518L52.8092 273.49C52.921 273.304 53.0328 273.117 53.1415 272.928L53.1882 272.848C53.2812 272.684 53.371 272.516 53.461 272.351L53.4978 272.217C53.6004 272.025 53.7002 271.834 53.7968 271.639C51.7443 267.951 47.3578 262.092 39.5132 260.119C38.8528 259.947 38.2644 259.568 37.8338 259.039C37.4031 258.51 37.1526 257.857 37.1186 257.175L33.8839 195.596L26.562 195.145L31.2897 285.099C31.6473 285.072 31.9969 285.017 32.3445 284.974L32.6339 284.935Z" fill="#FCF8DE" fill-opacity="0.7" stroke="#171949" stroke-opacity="0.8" stroke-miterlimit="10"/>
<path d="M55.7019 266.523C55.7019 266.523 54.4691 259.359 45.3047 257.212" stroke="#171949" stroke-opacity="0.8" stroke-miterlimit="10"/>
<path d="M56.7957 259.749C56.7957 259.749 56.4524 252.832 44.9297 250.227" stroke="#171949" stroke-opacity="0.8" stroke-miterlimit="10"/>
<path d="M57.0145 252.732C57.0145 252.732 56.6712 245.814 45.1484 243.209" stroke="#171949" stroke-opacity="0.8" stroke-miterlimit="10"/>
<path d="M57.1981 245.131C57.1981 245.131 56.8548 238.214 45.332 235.608" stroke="#171949" stroke-opacity="0.8" stroke-miterlimit="10"/>
<path d="M45.9416 258.054C46.2627 258.03 46.5037 257.75 46.4797 257.429C46.4558 257.108 46.176 256.867 45.8549 256.891C45.5338 256.915 45.2928 257.195 45.3168 257.516C45.3407 257.837 45.6205 258.078 45.9416 258.054Z" fill="#171949" fill-opacity="0.8" stroke="#171949" stroke-opacity="0.8" stroke-miterlimit="10"/>
<path d="M45.5588 250.777C45.8799 250.753 46.1208 250.473 46.0969 250.152C46.073 249.831 45.7932 249.59 45.4721 249.614C45.151 249.638 44.91 249.918 44.934 250.239C44.9579 250.56 45.2377 250.801 45.5588 250.777Z" fill="#171949" fill-opacity="0.8" stroke="#171949" stroke-opacity="0.8" stroke-miterlimit="10"/>
<path d="M45.1916 243.791C45.5127 243.768 45.7537 243.488 45.7297 243.167C45.7058 242.845 45.426 242.605 45.1049 242.629C44.7838 242.652 44.5428 242.932 44.5668 243.253C44.5907 243.574 44.8705 243.815 45.1916 243.791Z" fill="#171949" fill-opacity="0.8" stroke="#171949" stroke-opacity="0.8" stroke-miterlimit="10"/>
<path d="M45.3752 236.191C45.6963 236.167 45.9373 235.887 45.9133 235.566C45.8894 235.245 45.6096 235.004 45.2885 235.028C44.9674 235.052 44.7264 235.332 44.7504 235.653C44.7743 235.974 45.0541 236.215 45.3752 236.191Z" fill="#171949" fill-opacity="0.8" stroke="#171949" stroke-opacity="0.8" stroke-miterlimit="10"/>
<path d="M126.775 157.439C126.677 154.059 126.759 150.677 127.02 147.306C127.492 140.821 128.457 135.212 129.466 132.327C115.519 131.356 91.607 130.361 91.607 130.361L96.2996 103.116L90.3805 92.4242L84.9718 82.6187C84.9718 82.6187 77.3463 92.25 72.0939 119.83C70.0141 130.752 67.7371 139.032 70.483 145.001C77.0858 160.197 126.463 164.587 128.305 164.745C128.308 164.743 128.309 164.741 128.311 164.739C128.312 164.736 128.313 164.734 128.312 164.731C128.312 164.728 128.311 164.726 128.31 164.723C128.308 164.721 128.306 164.72 128.303 164.719C127.113 163.81 126.932 157.547 126.932 157.547" fill="#EA7F98" fill-opacity="0.7"/>
<path d="M84.9679 82.6265C84.9679 82.6265 77.3424 92.2578 72.09 119.838C70.0101 130.76 67.7332 139.04 70.4791 145.009C77.0819 160.204 126.459 164.595 128.301 164.753C128.304 164.751 128.306 164.749 128.307 164.747C128.308 164.744 128.309 164.742 128.308 164.739C128.308 164.736 128.307 164.733 128.306 164.731C128.304 164.729 128.302 164.727 128.299 164.726C127.109 163.818 126.928 157.555 126.928 157.555" stroke="#171949" stroke-opacity="0.8" stroke-miterlimit="10"/>
<path d="M126.768 157.446C126.67 154.066 126.751 150.684 127.012 147.313C127.485 140.828 128.449 135.219 129.459 132.334C115.512 131.363 91.5997 130.368 91.5997 130.368L96.2923 103.123" stroke="#171949" stroke-opacity="0.8" stroke-miterlimit="10"/>
<path d="M128.371 164.755C129.253 164.821 130.268 161.924 131.071 157.45C129.604 157.454 128.17 157.453 126.77 157.446C126.929 161.814 127.495 164.692 128.371 164.755Z" fill="#171949" fill-opacity="0.8" stroke="#171949" stroke-opacity="0.8" stroke-miterlimit="10"/>
<path d="M19.8789 285.982L102.447 279.826L19.8789 285.982Z" fill="#F9C0C0" fill-opacity="0.7"/>
<path d="M19.8789 285.982L102.447 279.826" stroke="#171949" stroke-opacity="0.8" stroke-miterlimit="10"/>
<path d="M50.8594 276.072L279.084 259.056L50.8594 276.072Z" fill="#F9C0C0" fill-opacity="0.7"/>
<path d="M50.8594 276.072L279.084 259.056" stroke="#171949" stroke-opacity="0.8" stroke-miterlimit="10"/>
<path d="M233.254 232.229C233.254 232.229 238.131 216.012 245.508 219.622C253.5 223.534 232.486 236.403 233.254 232.229Z" stroke="#171949" stroke-opacity="0.8" stroke-miterlimit="10"/>
<path d="M234.202 232.948C234.202 232.948 247.274 222.18 241.095 216.776C234.396 210.914 230.648 235.272 234.202 232.948Z" stroke="#171949" stroke-opacity="0.8" stroke-miterlimit="10"/>
<path d="M60.4517 252.887C60.4517 252.887 77.3905 252.653 76.1662 260.778C74.8455 269.571 56.2401 253.412 60.4517 252.887Z" stroke="#171949" stroke-opacity="0.8" stroke-miterlimit="10"/>
<path d="M60.0467 254.008C60.0467 254.008 74.2552 263.227 77.5475 255.705C81.1174 247.554 56.7618 251.317 60.0467 254.008Z" stroke="#171949" stroke-opacity="0.8" stroke-miterlimit="10"/>
<path d="M51.899 208.25C52.0336 205.033 49.078 202.296 45.2975 202.138C41.5171 201.98 38.3432 204.46 38.2086 207.677C38.074 210.895 41.0295 213.631 44.81 213.789C48.5905 213.948 51.7643 211.468 51.899 208.25Z" fill="white" fill-opacity="0.7" stroke="#171949" stroke-opacity="0.8" stroke-miterlimit="10"/>
<path d="M76.4121 177.691C76.4121 177.691 69.0685 200.75 94.7523 204.097C115.229 206.765 136.967 232.523 117.168 271.127" stroke="#171949" stroke-opacity="0.8" stroke-miterlimit="10"/>
<path d="M152.005 58.3328L97.7677 130.786L152.005 58.3328Z" fill="#FCF8DE" fill-opacity="0.7"/>
<path d="M152.005 58.3328L97.7677 130.786" stroke="#171949" stroke-opacity="0.8" stroke-miterlimit="10"/>
</svg>
