<svg width="268" height="239" viewBox="0 0 268 239" fill="none" xmlns="http://www.w3.org/2000/svg">
<g clip-path="url(#clip0_2042_40547)">
<path d="M141.938 6.92845C142.64 2.51874 146.819 -0.471569 149.69 0.0614123C153.454 0.757093 154.347 4.46552 153.645 8.87524" fill="#85DEED" fill-opacity="0.7"/>
<path d="M141.938 6.92845C142.64 2.51874 146.819 -0.471569 149.69 0.0614123C153.454 0.757093 154.347 4.46552 153.645 8.87524" stroke="#171949" stroke-opacity="0.7" stroke-miterlimit="10"/>
<path d="M147.288 7.36888L147.271 7.46426L144.322 7.20898L136.457 29.51L146.569 33.1568L146.96 22.988L148.288 23.2293C148.998 23.3568 149.73 23.1977 150.322 22.7869C150.915 22.3761 151.32 21.7472 151.448 21.0384L153.715 8.53022L147.288 7.36888Z" fill="#F9C0C0" fill-opacity="0.7" stroke="#171949" stroke-opacity="0.7" stroke-miterlimit="10"/>
<path d="M146.996 22.9192L143.625 21.5166C143.625 21.5166 143.302 25.0764 146.833 26.3836C146.878 24.7846 146.996 22.9192 146.996 22.9192Z" fill="#171949" fill-opacity="0.7" stroke="#171949" stroke-opacity="0.7" stroke-miterlimit="10"/>
<path d="M149.244 8.89412C149.244 8.89412 148.12 16.7486 146.435 15.907C144.75 15.0655 147.559 11.9798 145.592 11.6993C143.626 11.4188 144.188 19.2732 138.289 17.0291C133.795 14.785 139.132 7.49154 142.503 7.21102C145.873 6.93051 149.244 8.89412 149.244 8.89412Z" fill="#171949" fill-opacity="0.7" stroke="#171949" stroke-opacity="0.7" stroke-miterlimit="10"/>
<path d="M138.303 26.9532C138.303 26.9532 96.4605 24.4012 93.6116 42.2648C91.0475 55.5859 99.4519 91.4547 99.4519 91.4547L138.303 26.9532Z" fill="#A6C94F"/>
<path d="M138.107 27.6383C138.107 27.6383 96.8523 25.1137 94.0434 42.7862C91.5154 55.9705 99.9422 91.3156 99.9422 91.3156L138.107 27.6383Z" stroke="#171949" stroke-opacity="0.7" stroke-miterlimit="10"/>
<path d="M155.199 14.4509L136.494 10.3806C136.415 10.3644 136.34 10.3325 136.274 10.2867C136.207 10.2409 136.151 10.1821 136.108 10.114C136.065 10.0459 136.036 9.96975 136.023 9.89023C136.01 9.81071 136.014 9.72941 136.033 9.65124C136.069 9.50632 136.159 9.38029 136.284 9.29817C136.409 9.21606 136.56 9.18388 136.707 9.20802L155.606 12.2937C155.744 12.3154 155.876 12.3649 155.994 12.4394C156.112 12.5138 156.214 12.6115 156.292 12.7266C156.371 12.8416 156.426 12.9715 156.453 13.1084C156.48 13.2452 156.478 13.3861 156.449 13.5224L156.42 13.6626C156.392 13.7947 156.339 13.92 156.262 14.0312C156.185 14.1424 156.087 14.2374 155.974 14.3106C155.86 14.3839 155.733 14.434 155.6 14.4581C155.467 14.4821 155.331 14.4797 155.199 14.4509Z" fill="#85DEED" fill-opacity="0.7" stroke="#171949" stroke-opacity="0.7" stroke-miterlimit="10"/>
<path d="M103.59 71.9531L69.6021 133.106L31.0469 153.948L51.9087 187.93L86.7225 159.138C89.1528 157.129 91.2646 154.765 92.9864 152.125L128.309 98.0412L103.59 71.9531Z" fill="#B4CBF9" fill-opacity="0.7" stroke="#171949" stroke-opacity="0.7" stroke-miterlimit="10"/>
<path d="M107.912 129.277L128.31 98.0412L103.592 71.9531L102.187 74.4918C98.4095 81.976 89.5698 104.967 107.912 129.277Z" fill="#171949" fill-opacity="0.7" stroke="#171949" stroke-opacity="0.7" stroke-miterlimit="10"/>
<path d="M84.5786 230.464H0.328125C0.328125 230.464 3.3738 218.606 15.1716 219.542C26.9693 220.478 25.0672 227.343 36.8649 222.974C48.6627 218.606 54.3748 219.23 61.2247 224.847C68.0747 230.464 74.4385 223.287 84.5786 230.464Z" fill="white" fill-opacity="0.7"/>
<path d="M2.76953 224.976C4.98621 222.018 8.76528 219.048 14.9105 219.544C26.7554 220.48 24.8433 227.344 36.6853 222.976C48.5273 218.608 54.2608 219.232 61.1364 224.848C68.0121 230.464 74.3914 223.288 84.578 230.464H40.9043" stroke="#171949" stroke-opacity="0.7" stroke-miterlimit="10"/>
<path d="M168.642 132.732C171.157 128.557 171.905 123.58 170.728 118.868C169.55 114.157 166.54 110.087 162.343 107.534L140.418 94.1818L123.82 73.1631H104.128C104.128 73.1631 85.842 107.18 130.853 125.433C128.22 131.095 114.044 158.601 102.721 180.469H141.402C147.113 168.909 159.792 147.442 168.642 132.732Z" fill="#B4CBF9" fill-opacity="0.7" stroke="#171949" stroke-opacity="0.7" stroke-miterlimit="10"/>
<path d="M102.895 72.1279C102.895 72.1279 130.494 22.9691 140.119 27.0702C158.094 33.1789 139.981 93.8935 139.981 93.8935L102.895 72.1279Z" fill="#A6C94F"/>
<path d="M8.36719 166.206C8.36719 166.206 37.58 216.699 43.7596 226.236C51.0628 222.309 50.7819 212.945 47.1303 205.198C42.636 195.66 46.2876 192.574 46.2876 192.574L51.9055 187.929L31.0464 153.947L8.36719 166.206Z" fill="#F99BCC" fill-opacity="0.7" stroke="#171949" stroke-opacity="0.7" stroke-miterlimit="10"/>
<path d="M160.049 209.405C160.049 209.405 159.207 199.026 150.499 197.903C141.791 196.781 133.365 199.587 138.421 186.122C138.935 184.753 139.749 182.941 140.797 180.792H102.188C94.1661 196.54 87.582 209.405 87.582 209.405H160.049Z" fill="#F99BCC" fill-opacity="0.7" stroke="#171949" stroke-opacity="0.7" stroke-miterlimit="10"/>
<path d="M147.27 40.0176C149.967 59.1712 139.821 93.2708 139.821 93.2708L103.586 71.9516C103.586 71.9516 115.063 51.4486 125.656 38.3176C126.358 37.448 127.054 36.614 127.743 35.8154" stroke="#171949" stroke-opacity="0.7" stroke-miterlimit="10"/>
<path d="M137.082 60.2659L152.866 90.3356C153.313 91.1953 154.054 91.8816 154.964 92.2803C158.922 94.0055 170.453 98.9893 179.495 102.429C180.79 96.2612 186.63 89.3355 190.807 85.0295C178.77 79.9512 165.701 74.9952 165.701 74.9952C156.306 29.8516 139.684 28.0459 139.684 28.0459" fill="#A6C94F"/>
<path d="M203.032 99.7258C204.717 100.287 210.897 99.4453 208.65 95.5181C207.65 93.7676 198.9 89.5711 189.507 85.4531C185.448 89.8011 179.774 96.7944 178.516 103.022C181.605 104.242 184.395 105.266 186.459 105.897C195.729 108.702 201.347 99.1648 203.032 99.7258Z" fill="#F9C0C0" fill-opacity="0.7" stroke="#171949" stroke-opacity="0.7" stroke-miterlimit="10"/>
<path d="M199.664 93.8359C199.664 93.8359 211.742 105.337 199.324 109.144C197.698 105.057 196.574 99.4463 196.574 99.4463" fill="#F9C0C0" fill-opacity="0.7"/>
<path d="M199.664 93.8359C199.664 93.8359 211.742 105.337 199.324 109.144C197.698 105.057 196.574 99.4463 196.574 99.4463" stroke="#171949" stroke-opacity="0.7" stroke-miterlimit="10"/>
<path d="M196.573 95.5176C196.573 95.5176 207.41 108.738 195.672 112.228C194.045 108.141 192.922 102.53 192.922 102.53" fill="#F9C0C0" fill-opacity="0.7"/>
<path d="M196.573 95.5176C196.573 95.5176 207.41 108.738 195.672 112.228C194.045 108.141 192.922 102.53 192.922 102.53" stroke="#171949" stroke-opacity="0.7" stroke-miterlimit="10"/>
<path d="M193.198 98.043C193.198 98.043 204.035 111.264 192.297 114.753C190.67 110.666 189.547 105.056 189.547 105.056" fill="#F9C0C0" fill-opacity="0.7"/>
<path d="M193.198 98.043C193.198 98.043 204.035 111.264 192.297 114.753C190.67 110.666 189.547 105.056 189.547 105.056" stroke="#171949" stroke-opacity="0.7" stroke-miterlimit="10"/>
<path d="M181.824 104.302C181.824 104.302 187.852 106.459 187.852 111.508C186.448 111.789 185.886 114.313 187.571 115.997C189.257 117.68 198.807 115.716 190.099 100.849" fill="#F9C0C0" fill-opacity="0.7"/>
<path d="M181.824 104.302C181.824 104.302 187.852 106.459 187.852 111.508C186.448 111.789 185.886 114.313 187.571 115.997C189.257 117.68 198.807 115.716 190.099 100.849" stroke="#171949" stroke-opacity="0.7" stroke-miterlimit="10"/>
<path d="M87.582 209.408H160.052C159.877 207.867 159.493 206.357 158.909 204.92H89.8769C88.4275 207.759 87.582 209.408 87.582 209.408Z" fill="#171949" fill-opacity="0.7" stroke="#171949" stroke-opacity="0.7" stroke-miterlimit="10"/>
<path d="M185.434 229.885H140.25C140.25 229.885 141.882 222.14 148.21 222.751C154.539 223.363 153.517 227.845 159.845 224.995C166.174 222.145 169.235 222.549 172.909 226.218C176.583 229.888 179.996 225.197 185.434 229.885Z" fill="white" fill-opacity="0.7" stroke="#171949" stroke-opacity="0.7" stroke-miterlimit="10"/>
<path d="M137.301 60.4521L152.637 90.8152C153.073 91.6833 153.792 92.3763 154.677 92.7788C158.522 94.5209 169.727 99.5533 178.513 103.026C179.772 96.7986 185.446 89.8054 189.505 85.4574C177.808 80.3295 165.109 75.3251 165.109 75.3251C154.997 25.3932 137.301 27.6373 137.301 27.6373" stroke="#171949" stroke-opacity="0.7" stroke-miterlimit="10"/>
<path d="M144.605 185.844H95.4492L99.9435 175.745H149.1L144.605 185.844Z" fill="#9BC1F9" fill-opacity="0.7" stroke="#171949" stroke-opacity="0.7" stroke-miterlimit="10"/>
<path d="M36.4844 146.172L60.9051 188.413L52.1478 193.463L27.727 151.221L36.4844 146.172Z" fill="#9BC1F9" fill-opacity="0.7" stroke="#171949" stroke-opacity="0.7" stroke-miterlimit="10"/>
<path d="M205.715 213.334H75.2771C73.8323 213.335 72.4052 213.015 71.1 212.397C69.7948 211.778 68.6442 210.876 67.7323 209.757L58.6623 198.66C58.2566 198.139 58.0708 197.481 58.1448 196.826C58.2188 196.17 58.5467 195.57 59.0582 195.153C59.5698 194.736 60.2245 194.535 60.8823 194.594C61.54 194.653 62.1486 194.966 62.5779 195.467L71.6507 206.565C72.0885 207.103 72.6414 207.537 73.2689 207.835C73.8963 208.132 74.5825 208.286 75.2771 208.284H205.715C206.372 208.284 207.021 208.145 207.622 207.878C208.222 207.611 208.759 207.221 209.198 206.733L219.408 195.378C219.863 194.907 220.482 194.631 221.136 194.607C221.79 194.583 222.427 194.813 222.915 195.249C223.402 195.685 223.701 196.293 223.75 196.945C223.798 197.596 223.591 198.241 223.172 198.744L212.962 210.108C212.048 211.123 210.931 211.935 209.682 212.49C208.434 213.046 207.082 213.333 205.715 213.334Z" fill="#85DEED" fill-opacity="0.7" stroke="#171949" stroke-opacity="0.7" stroke-miterlimit="10"/>
<path d="M190.738 223.561C191.847 219.574 190.955 215.845 188.746 215.232C186.536 214.619 183.847 217.355 182.738 221.342C181.629 225.329 182.521 229.058 184.731 229.671C186.94 230.284 189.63 227.548 190.738 223.561Z" fill="#171949" fill-opacity="0.7" stroke="#171949" stroke-opacity="0.7" stroke-miterlimit="10"/>
<path d="M188.328 222.893C188.768 221.31 188.415 219.831 187.539 219.588C186.663 219.345 185.596 220.431 185.156 222.013C184.716 223.595 185.069 225.075 185.945 225.318C186.821 225.561 187.888 224.475 188.328 222.893Z" fill="white" fill-opacity="0.7" stroke="#171949" stroke-opacity="0.7" stroke-miterlimit="10"/>
<path d="M90.4611 223.564C91.5698 219.577 90.6776 215.848 88.4684 215.235C86.2591 214.622 83.5694 217.358 82.4606 221.345C81.3519 225.332 82.2441 229.061 84.4533 229.674C86.6626 230.287 89.3524 227.551 90.4611 223.564Z" fill="#171949" fill-opacity="0.7" stroke="#171949" stroke-opacity="0.7" stroke-miterlimit="10"/>
<path d="M88.0468 222.893C88.4868 221.31 88.1334 219.831 87.2575 219.588C86.3816 219.345 85.3148 220.431 84.8748 222.013C84.4348 223.595 84.7882 225.075 85.6641 225.318C86.5401 225.561 87.6068 224.475 88.0468 222.893Z" fill="white" fill-opacity="0.7" stroke="#171949" stroke-opacity="0.7" stroke-miterlimit="10"/>
<path d="M109.492 42.7803L113.245 55.9477" stroke="#171949" stroke-opacity="0.7" stroke-miterlimit="10"/>
<path d="M110.099 202.417C109.383 202.421 108.677 202.279 108.039 202.004C105.239 200.787 104.495 197.251 106.371 194.118C107.765 191.788 110.341 190.224 112.784 190.224C113.499 190.22 114.205 190.362 114.843 190.637C117.644 191.854 118.387 195.39 116.511 198.523C115.117 200.851 112.541 202.417 110.099 202.417Z" fill="white" fill-opacity="0.7"/>
<path d="M112.75 190.483C113.424 190.479 114.089 190.613 114.689 190.874C117.34 192.03 118.041 195.411 116.251 198.412C114.916 200.644 112.459 202.148 110.132 202.148C109.458 202.151 108.794 202.017 108.193 201.756C105.542 200.6 104.856 197.22 106.631 194.218C107.966 191.984 110.426 190.483 112.75 190.483ZM112.75 190.224C110.366 190.224 107.799 191.696 106.361 194.112C104.492 197.243 105.25 200.777 108.054 201.998C108.697 202.277 109.41 202.421 110.132 202.417C112.517 202.417 115.083 200.945 116.521 198.529C118.39 195.395 117.632 191.865 114.828 190.644C114.185 190.364 113.472 190.22 112.75 190.224Z" fill="black" fill-opacity="0.7"/>
<path d="M25.7713 176.811C23.8944 176.811 22.3767 176.022 21.6018 174.641C20.9503 173.478 20.9154 172.039 21.4999 170.592C22.1645 169.044 23.3019 167.762 24.739 166.942C25.9139 166.232 27.2487 165.851 28.6108 165.837C30.4877 165.837 32.0054 166.627 32.7803 168.008C33.4318 169.17 33.4667 170.609 32.8821 172.056C32.2152 173.597 31.0779 174.873 29.6431 175.687C28.4706 176.405 27.1353 176.793 25.7713 176.811Z" fill="white" fill-opacity="0.7"/>
<path d="M28.5774 166.106C30.3638 166.106 31.8092 166.851 32.5411 168.154C33.1575 169.249 33.1916 170.608 32.6355 171.981C31.9975 173.464 30.904 174.693 29.5218 175.479C28.3945 176.167 27.1108 176.538 25.7994 176.556C24.013 176.556 22.5676 175.81 21.8358 174.508C21.2193 173.412 21.1852 172.053 21.7413 170.681C22.3794 169.198 23.4729 167.969 24.8551 167.182C25.9823 166.495 27.2661 166.124 28.5774 166.106ZM28.5774 165.837C27.2209 165.855 25.8926 166.236 24.7239 166.943C21.6417 168.77 20.2461 172.21 21.6076 174.629C22.4129 176.058 23.9999 176.811 25.8047 176.811C27.1612 176.793 28.4895 176.412 29.6582 175.705C32.7404 173.878 34.136 170.439 32.7745 168.019C31.9692 166.588 30.3822 165.837 28.5774 165.837Z" fill="black" fill-opacity="0.7"/>
<path d="M141.639 194.686C141.639 194.686 137.945 194.686 136.695 199.022" stroke="#171949" stroke-opacity="0.7" stroke-miterlimit="10"/>
<path d="M145.791 195.338C145.791 195.338 142.098 195.338 140.848 199.675" stroke="#171949" stroke-opacity="0.7" stroke-miterlimit="10"/>
<path d="M149.959 195.988C149.959 195.988 146.266 195.988 145.016 200.325" stroke="#171949" stroke-opacity="0.7" stroke-miterlimit="10"/>
<path d="M146.03 194.7C146.027 194.7 146.023 194.699 146.019 194.697C146.016 194.695 146.013 194.692 146.011 194.689C146.009 194.685 146.008 194.681 146.008 194.677C146.008 194.674 146.009 194.67 146.011 194.666C146.387 194.105 151.146 187.272 153.572 190.773C155.999 194.273 146.736 194.675 146.03 194.7Z" stroke="#171949" stroke-opacity="0.7" stroke-miterlimit="10"/>
<path d="M146.052 194.759C146.048 194.761 146.044 194.762 146.039 194.762C146.035 194.761 146.03 194.76 146.027 194.757C146.023 194.755 146.02 194.751 146.018 194.747C146.016 194.743 146.015 194.738 146.016 194.734C146.108 193.937 147.372 183.979 151.74 186.683C156.108 189.387 146.769 194.386 146.052 194.759Z" stroke="#171949" stroke-opacity="0.7" stroke-miterlimit="10"/>
<path d="M48.6116 199.165C48.6116 199.165 47.1594 195.771 42.668 196.343" stroke="#171949" stroke-opacity="0.7" stroke-miterlimit="10"/>
<path d="M49.6585 203.258C49.6585 203.258 48.2063 199.866 43.7148 200.436" stroke="#171949" stroke-opacity="0.7" stroke-miterlimit="10"/>
<path d="M50.7015 207.318C50.7015 207.318 49.2521 203.927 44.7578 204.496" stroke="#171949" stroke-opacity="0.7" stroke-miterlimit="10"/>
<path d="M50.3454 203.21C50.344 203.206 50.3435 203.202 50.3439 203.198C50.3444 203.195 50.3458 203.191 50.348 203.188C50.3503 203.185 50.3533 203.182 50.3568 203.181C50.3602 203.179 50.3641 203.178 50.3679 203.179C51.0224 203.305 59.1991 204.968 56.9351 208.579C54.6712 212.189 50.6263 203.846 50.3454 203.21Z" stroke="#171949" stroke-opacity="0.7" stroke-miterlimit="10"/>
<path d="M50.2871 203.256C50.283 203.254 50.2795 203.25 50.2771 203.246C50.2747 203.242 50.2734 203.238 50.2734 203.233C50.2734 203.229 50.2747 203.224 50.2771 203.22C50.2795 203.216 50.283 203.213 50.2871 203.211C51.0568 202.984 60.7167 200.212 59.9526 205.284C59.1886 210.356 50.9051 203.763 50.2871 203.256Z" stroke="#171949" stroke-opacity="0.7" stroke-miterlimit="10"/>
<path d="M13.2162 163.759L8.91016 166.087C8.91016 166.087 38.123 216.58 44.3026 226.118C45.7 225.38 46.9165 224.343 47.8643 223.08L13.2162 163.759Z" fill="#171949" fill-opacity="0.7" stroke="#171949" stroke-opacity="0.7" stroke-miterlimit="10"/>
<path d="M45.2969 229.766H261.356V238.882H45.2969V229.766Z" fill="#171949" fill-opacity="0.7" stroke="#171949" stroke-opacity="0.7" stroke-miterlimit="10"/>
<path opacity="0.81" d="M206.876 40.5579C205.896 40.5542 204.931 40.7933 204.067 41.2536C203.512 39.4045 202.418 37.7624 200.925 36.5368C199.431 35.3112 197.606 34.5577 195.682 34.3725C195.029 32.5243 193.742 30.9663 192.05 29.9739C190.357 28.9815 188.368 28.6185 186.433 28.9492C184.499 29.2798 182.744 30.2828 181.478 31.7809C180.212 33.2789 179.518 35.1756 179.517 37.1356C177.313 37.1393 175.2 38.0164 173.643 39.5742C172.086 41.132 171.211 43.2433 171.211 45.4445H212.716C212.472 44.0749 211.753 42.8348 210.685 41.9413C209.617 41.0479 208.269 40.5581 206.876 40.5579Z" fill="white" fill-opacity="0.7"/>
<path opacity="0.81" d="M186.522 66.8348C186.088 66.8344 185.661 66.9404 185.277 67.1434C185.03 66.319 184.541 65.5871 183.875 65.0414C183.208 64.4957 182.394 64.161 181.536 64.0801C181.245 63.2572 180.673 62.5634 179.919 62.1215C179.166 61.6796 178.28 61.518 177.419 61.6655C176.558 61.8129 175.776 62.2598 175.213 62.9271C174.65 63.5943 174.342 64.439 174.342 65.3116C173.362 65.3138 172.422 65.7043 171.73 66.3974C171.037 67.0906 170.648 68.0297 170.648 69.0088H189.12C189.012 68.3993 188.692 67.8473 188.217 67.4498C187.742 67.0522 187.142 66.8345 186.522 66.8348Z" fill="white" fill-opacity="0.7"/>
<path opacity="0.81" d="M58.9872 30.9697C58.2241 30.9681 57.4723 31.1551 56.7991 31.5139C56.3638 30.0653 55.5064 28.779 54.3364 27.8188C53.1663 26.8586 51.7364 26.268 50.229 26.1224C49.7177 24.674 48.7098 23.4528 47.3838 22.6749C46.0577 21.897 44.4989 21.6125 42.9831 21.8717C41.4673 22.131 40.0921 22.9172 39.1008 24.0914C38.1095 25.2657 37.566 26.7522 37.5664 28.288C35.8397 28.288 34.1836 28.972 32.9614 30.19C31.7391 31.408 31.0506 33.0604 31.0469 34.7848H63.563C63.3688 33.7142 62.8042 32.7457 61.9679 32.0485C61.1316 31.3512 60.0767 30.9694 58.9872 30.9697Z" fill="white" fill-opacity="0.7"/>
<path opacity="0.81" d="M233.124 31.4349C233.942 31.4341 234.746 31.6396 235.463 32.0324C235.913 30.4637 236.822 29.0648 238.073 28.0153C239.324 26.9657 240.861 26.3133 242.486 26.1416C242.95 24.7647 243.832 23.5667 245.01 22.7149C246.189 21.863 247.604 21.3997 249.059 21.3896C252.907 21.3896 256.025 24.5791 256.025 28.5148C259.873 28.5035 262.994 31.6986 262.994 35.6259H228.23C228.422 34.4638 229.017 33.4064 229.912 32.6397C230.807 31.8731 231.944 31.4465 233.124 31.4349Z" fill="white" fill-opacity="0.7"/>
<path opacity="0.81" d="M88.3919 27.4097C88.7985 27.4062 89.1998 27.5025 89.5604 27.6902C89.7929 26.9165 90.2507 26.2295 90.8755 25.7164C91.5002 25.2034 92.2637 24.8876 93.0687 24.8093C93.3412 24.0346 93.8795 23.3812 94.5882 22.965C95.2969 22.5488 96.1303 22.3966 96.9407 22.5354C97.7511 22.6742 98.486 23.095 99.0154 23.7233C99.5447 24.3516 99.8342 25.1467 99.8326 25.9678C100.291 25.9674 100.745 26.0574 101.168 26.2326C101.591 26.4078 101.976 26.6648 102.299 26.9888C102.623 27.3127 102.879 27.6973 103.054 28.1205C103.228 28.5436 103.317 28.997 103.316 29.4546H85.9453C86.0481 28.8813 86.3495 28.3623 86.7968 27.9885C87.244 27.6147 87.8086 27.4098 88.3919 27.4097Z" fill="white" fill-opacity="0.7"/>
</g>
<defs>
<clipPath id="clip0_2042_40547">
<rect width="268" height="239" rx="10" transform="matrix(-1 0 0 1 268 0)" fill="white"/>
</clipPath>
</defs>
</svg>
